<svg width="15" height="15" viewBox="0 0 15 15" fill="none" xmlns="http://www.w3.org/2000/svg">
<path fill-rule="evenodd" clip-rule="evenodd" d="M14.3524 0.629179C14.7816 0.918758 14.8948 1.50145 14.6052 1.93067C12.352 5.27054 10.1278 8.33007 8.46777 10.5538C7.63746 11.6661 6.9476 12.5701 6.46491 13.1965C6.22355 13.5098 6.03395 13.7538 5.90445 13.9196C5.83968 14.0026 5.78995 14.0661 5.75627 14.109L5.71794 14.1578L5.70477 14.1744C5.70471 14.1745 5.70447 14.1748 4.9687 13.5938C4.35119 14.2992 4.35083 14.2989 4.35047 14.2987L4.34973 14.298L4.34818 14.2966L4.34474 14.2936L4.33655 14.2862L4.31495 14.2664C4.29823 14.2508 4.27684 14.2304 4.25078 14.2047C4.19866 14.1532 4.12777 14.0804 4.03804 13.9818C3.8587 13.7847 3.60336 13.4842 3.27176 13.0457C2.60902 12.1694 1.63742 10.7369 0.35571 8.46973C0.100903 8.019 0.259729 7.44705 0.710457 7.19225C1.16118 6.93743 1.73313 7.09626 1.98794 7.54699C3.23747 9.75731 4.16431 11.1175 4.7672 11.9147C4.823 11.9884 4.87598 12.0573 4.92616 12.1216C4.94369 12.0988 4.96151 12.0757 4.97964 12.0522C5.4573 11.4323 6.14135 10.5358 6.96526 9.43219C8.61362 7.22409 10.8192 4.18988 13.051 0.882017C13.3405 0.4528 13.9232 0.339601 14.3524 0.629179ZM5.59411 12.8955C5.59411 12.8955 5.59367 12.895 5.59278 12.8943L5.59411 12.8955ZM4.9687 13.5938L4.35119 14.2992C4.54447 14.4684 4.79872 14.5509 5.05452 14.5274C5.31032 14.5039 5.54557 14.3761 5.70477 14.1744L4.9687 13.5938Z" fill="black"/>
</svg>
