<svg width="104" height="135" viewBox="0 0 104 135" fill="none" xmlns="http://www.w3.org/2000/svg">
<path d="M8.9617 99.4793L52.6638 121.721L94.7064 99.4793V12.5039H8.9617V99.4793Z" fill="white"/>
<path d="M95.5915 12.8359L8.0766 101.029L53.4383 123.492L95.5915 101.914V12.8359Z" fill="#F2F3F2"/>
<path d="M6.08511 41.4958V101.361L7.63405 102.135L51.3362 124.377L52.6638 125.041L53.9915 124.377L96.1447 102.135L97.6936 101.361V9.62695H6.08511V41.4958ZM8.96171 99.7007V12.504H94.817V99.7007L52.6638 121.943L8.96171 99.7007Z" fill="#DCDEDC"/>
<path d="M51.8894 13.9425C52.3319 13.9425 52.7745 13.9425 53.217 14.0532L51.8894 16.5983C49.8979 16.4876 48.1277 18.0368 48.017 20.0286C47.9064 22.0204 49.4553 23.7909 51.4468 23.9015H51.8894C52.7745 23.9015 53.6596 23.5696 54.3234 23.0163L55.7617 25.4507C54.6553 26.2253 53.3277 26.6679 51.8894 26.6679C48.349 26.7786 45.3617 24.1229 45.2511 20.5819C45.1404 17.0409 47.7958 14.0532 51.3362 13.9425H51.8894ZM56.4255 19.3647L58.0851 22.1311L56.4255 24.7868L54.8766 22.1311H51.6681L53.3277 19.3647H56.4255ZM53.7702 18.3688C53.7702 17.9261 53.8809 17.4835 54.1021 17.1515C54.3234 16.8196 54.766 16.4876 55.0979 16.2663L55.3192 16.1556C55.7617 15.9343 55.8724 15.8237 55.8724 15.6024C55.8724 15.3811 55.5404 15.1597 55.3192 15.1597C54.8766 15.1597 54.5447 15.3811 54.3234 15.8237L53.7702 15.2704C53.8809 15.0491 54.1021 14.8278 54.3234 14.6065C54.6553 14.3851 54.9872 14.3851 55.3192 14.3851C55.6511 14.3851 56.0936 14.4958 56.3149 14.7171C56.5362 14.9384 56.7575 15.2704 56.7575 15.6024C56.7575 16.1556 56.4255 16.5983 55.7617 16.8196L55.4298 17.0409C55.0979 17.2622 54.8766 17.3729 54.766 17.7048H56.7575V18.4794L53.7702 18.3688ZM51.8894 32.2007L62.4 26.2253V9.62695H41.2681V26.1147L51.8894 32.2007Z" fill="#FF492C"/>
<path d="M99.7958 71.3728H3.98299L0.442566 79.1187L3.98299 86.8646H99.7958L103.226 79.1187L99.7958 71.3728Z" fill="#FF492C"/>
<path d="M21.0766 66.3933C21.0102 66.3933 20.9549 66.3712 20.9107 66.3269C20.8664 66.2753 20.8443 66.2163 20.8443 66.1499V52.6941C20.8443 52.6277 20.8664 52.5687 20.9107 52.5171C20.9549 52.4728 21.0102 52.4507 21.0766 52.4507H23.4111C23.4775 52.4507 23.5328 52.4728 23.577 52.5171C23.6287 52.5687 23.6545 52.6277 23.6545 52.6941V63.8814C23.6545 63.9478 23.6877 63.981 23.7541 63.981H30.2596C30.326 63.981 30.385 64.0031 30.4366 64.0474C30.4809 64.099 30.503 64.1581 30.503 64.2245V66.1499C30.503 66.2163 30.4809 66.2753 30.4366 66.3269C30.385 66.3712 30.326 66.3933 30.2596 66.3933H21.0766ZM41.1132 60.2187C41.1943 60.7204 41.2202 61.2847 41.1907 61.9117C41.1833 62.074 41.0985 62.1552 40.9362 62.1552H34.7847C34.7036 62.1552 34.6777 62.1884 34.7072 62.2548C34.7441 62.5204 34.8142 62.7859 34.9175 63.0515C35.2641 63.7892 35.9685 64.1581 37.0307 64.1581C37.8789 64.1507 38.5501 63.8077 39.0443 63.129C39.0959 63.0478 39.1549 63.0072 39.2213 63.0072C39.2655 63.0072 39.3135 63.0331 39.3651 63.0847L40.7924 64.5011C40.8587 64.5675 40.8919 64.6265 40.8919 64.6781C40.8919 64.7077 40.8661 64.763 40.8145 64.8441C40.3793 65.3827 39.8151 65.8031 39.1217 66.1056C38.4358 66.4007 37.6797 66.5482 36.8536 66.5482C35.7104 66.5482 34.7441 66.29 33.9549 65.7736C33.1657 65.2572 32.5977 64.5343 32.2511 63.6048C31.9708 62.9408 31.8307 62.0704 31.8307 60.9933C31.8307 60.263 31.9302 59.6212 32.1294 59.0679C32.4392 58.1236 32.9739 57.3712 33.7336 56.8105C34.5007 56.2572 35.408 55.9806 36.4553 55.9806C37.783 55.9806 38.8488 56.3642 39.6528 57.1314C40.4568 57.8986 40.9436 58.9277 41.1132 60.2187ZM36.4775 58.404C35.6366 58.404 35.0834 58.7949 34.8179 59.5769C34.7663 59.754 34.722 59.9679 34.6851 60.2187C34.6851 60.2851 34.7183 60.3183 34.7847 60.3183H38.2255C38.3067 60.3183 38.3325 60.2851 38.303 60.2187C38.2366 59.8351 38.2034 59.6507 38.2034 59.6654C38.0854 59.2671 37.8789 58.9572 37.5838 58.7359C37.2814 58.5146 36.9126 58.404 36.4775 58.404ZM47.0102 55.9917C47.8732 55.9917 48.644 56.1429 49.3226 56.4454C50.0011 56.7404 50.5285 57.1499 50.9047 57.6736C51.2809 58.19 51.469 58.7654 51.469 59.3999V66.1499C51.469 66.2163 51.4468 66.2753 51.4026 66.3269C51.3583 66.3712 51.303 66.3933 51.2366 66.3933H48.9021C48.8358 66.3933 48.7804 66.3712 48.7362 66.3269C48.6846 66.2753 48.6587 66.2163 48.6587 66.1499V65.497C48.6587 65.4601 48.6477 65.4343 48.6255 65.4195C48.596 65.4048 48.5702 65.4158 48.5481 65.4527C47.9875 66.1831 47.0914 66.5482 45.8596 66.5482C44.8196 66.5482 43.9824 66.2974 43.3481 65.7958C42.7064 65.2941 42.3855 64.549 42.3855 63.5605C42.3855 62.5425 42.747 61.7495 43.4698 61.1814C44.1853 60.6208 45.2068 60.3404 46.5345 60.3404H48.5592C48.6255 60.3404 48.6587 60.3072 48.6587 60.2408V59.7982C48.6587 59.363 48.526 59.0199 48.2604 58.7691C47.9949 58.5257 47.5966 58.404 47.0655 58.404C46.6599 58.404 46.3206 58.4777 46.0477 58.6253C45.7748 58.7728 45.5977 58.9794 45.5166 59.2449C45.4797 59.3925 45.3949 59.4589 45.2621 59.4441L42.8502 59.1232C42.688 59.0937 42.6142 59.0347 42.629 58.9462C42.6806 58.3855 42.9019 57.8802 43.2928 57.4302C43.6837 56.9802 44.2037 56.6298 44.8528 56.379C45.4945 56.1208 46.2136 55.9917 47.0102 55.9917ZM46.6119 64.4568C47.1799 64.4568 47.663 64.3056 48.0613 64.0031C48.4596 63.7007 48.6587 63.3097 48.6587 62.8302V62.1109C48.6587 62.0445 48.6255 62.0113 48.5592 62.0113H47.1319C46.5345 62.0113 46.0661 62.1257 45.7268 62.3544C45.3875 62.5757 45.2179 62.8929 45.2179 63.306C45.2179 63.6675 45.3433 63.9478 45.5941 64.147C45.8448 64.3536 46.1841 64.4568 46.6119 64.4568ZM59.8 52.6941C59.8 52.6277 59.8221 52.5687 59.8664 52.5171C59.9107 52.4728 59.966 52.4507 60.0324 52.4507H62.3668C62.4332 52.4507 62.4885 52.4728 62.5328 52.5171C62.577 52.5687 62.5992 52.6277 62.5992 52.6941V66.1499C62.5992 66.2163 62.577 66.2753 62.5328 66.3269C62.4885 66.3712 62.4332 66.3933 62.3668 66.3933H60.0324C59.966 66.3933 59.9107 66.3712 59.8664 66.3269C59.8221 66.2753 59.8 66.2163 59.8 66.1499V65.497C59.8 65.4601 59.7853 65.438 59.7558 65.4306C59.7263 65.4232 59.7004 65.4306 59.6783 65.4527C59.1177 66.1831 58.3543 66.5482 57.3881 66.5482C56.4587 66.5482 55.6585 66.29 54.9872 65.7736C54.316 65.2572 53.8329 64.549 53.5379 63.649C53.3166 62.9556 53.206 62.1515 53.206 61.2367C53.206 60.2925 53.324 59.4699 53.56 58.7691C53.8698 57.9134 54.3529 57.2384 55.0094 56.7441C55.6658 56.2425 56.4772 55.9917 57.4434 55.9917C58.4023 55.9917 59.1473 56.3236 59.6783 56.9876C59.7004 57.0318 59.7263 57.0466 59.7558 57.0318C59.7853 57.0171 59.8 56.9913 59.8 56.9544V52.6941ZM59.3796 63.2839C59.6451 62.797 59.7779 62.1257 59.7779 61.2699C59.7779 60.3847 59.6304 59.6876 59.3353 59.1786C59.0329 58.6622 58.5904 58.404 58.0077 58.404C57.3807 58.404 56.9087 58.6622 56.5915 59.1786C56.2596 59.7023 56.0936 60.4068 56.0936 61.2921C56.0936 62.0888 56.2338 62.7527 56.5141 63.2839C56.846 63.8593 57.3365 64.147 57.9855 64.147C58.583 64.147 59.0477 63.8593 59.3796 63.2839ZM73.7736 60.2187C73.8548 60.7204 73.8806 61.2847 73.8511 61.9117C73.8437 62.074 73.7589 62.1552 73.5966 62.1552H67.4451C67.364 62.1552 67.3382 62.1884 67.3677 62.2548C67.4046 62.5204 67.4746 62.7859 67.5779 63.0515C67.9246 63.7892 68.629 64.1581 69.6911 64.1581C70.5393 64.1507 71.2105 63.8077 71.7047 63.129C71.7563 63.0478 71.8153 63.0072 71.8817 63.0072C71.926 63.0072 71.9739 63.0331 72.0255 63.0847L73.4528 64.5011C73.5192 64.5675 73.5524 64.6265 73.5524 64.6781C73.5524 64.7077 73.5265 64.763 73.4749 64.8441C73.0397 65.3827 72.4755 65.8031 71.7821 66.1056C71.0962 66.4007 70.3402 66.5482 69.5141 66.5482C68.3708 66.5482 67.4046 66.29 66.6153 65.7736C65.8261 65.2572 65.2582 64.5343 64.9115 63.6048C64.6312 62.9408 64.4911 62.0704 64.4911 60.9933C64.4911 60.263 64.5907 59.6212 64.7898 59.0679C65.0996 58.1236 65.6343 57.3712 66.3941 56.8105C67.1611 56.2572 68.0684 55.9806 69.1158 55.9806C70.4434 55.9806 71.5092 56.3642 72.3132 57.1314C73.1172 57.8986 73.604 58.9277 73.7736 60.2187ZM69.1379 58.404C68.297 58.404 67.7438 58.7949 67.4783 59.5769C67.4267 59.754 67.3824 59.9679 67.3455 60.2187C67.3455 60.2851 67.3787 60.3183 67.4451 60.3183H70.886C70.9671 60.3183 70.9929 60.2851 70.9634 60.2187C70.897 59.8351 70.8638 59.6507 70.8638 59.6654C70.7458 59.2671 70.5393 58.9572 70.2443 58.7359C69.9419 58.5146 69.5731 58.404 69.1379 58.404ZM80.6885 56.0138C81.168 56.0138 81.5441 56.106 81.817 56.2904C81.9277 56.3495 81.9682 56.449 81.9387 56.5892L81.5183 58.8687C81.5109 59.0236 81.4187 59.0679 81.2417 59.0015C81.0426 58.9351 80.8102 58.9019 80.5447 58.9019C80.4414 58.9019 80.2976 58.9167 80.1132 58.9462C79.6338 58.9831 79.2281 59.1564 78.8962 59.4663C78.5643 59.7835 78.3983 60.2003 78.3983 60.7167V66.1499C78.3983 66.2163 78.3762 66.2753 78.3319 66.3269C78.2803 66.3712 78.2213 66.3933 78.1549 66.3933H75.8315C75.7651 66.3933 75.7061 66.3712 75.6545 66.3269C75.6102 66.2753 75.5881 66.2163 75.5881 66.1499V56.39C75.5881 56.3236 75.6102 56.2683 75.6545 56.224C75.7061 56.1798 75.7651 56.1577 75.8315 56.1577H78.1549C78.2213 56.1577 78.2803 56.1798 78.3319 56.224C78.3762 56.2683 78.3983 56.3236 78.3983 56.39V57.1536C78.3983 57.1904 78.4094 57.2163 78.4315 57.231C78.461 57.2458 78.4831 57.2384 78.4979 57.2089C79.0437 56.4122 79.7739 56.0138 80.6885 56.0138Z" fill="#252530"/>
<path d="M34.5192 83.4344C34.438 83.4344 34.3864 83.3975 34.3643 83.3237L32.3507 75.8323L32.3396 75.7881C32.3396 75.7217 32.3802 75.6885 32.4613 75.6885H33.5456C33.6267 75.6885 33.6783 75.7254 33.7005 75.7991L34.9617 80.845C34.9691 80.8672 34.9802 80.8782 34.9949 80.8782C35.0097 80.8782 35.0207 80.8672 35.0281 80.845L36.2341 75.7991C36.2562 75.7254 36.3041 75.6885 36.3779 75.6885H37.44C37.5212 75.6885 37.5728 75.7254 37.5949 75.7991L38.8783 80.8561C38.8857 80.8782 38.8968 80.8893 38.9115 80.8893C38.9263 80.8893 38.9373 80.8782 38.9447 80.8561L40.1839 75.7991C40.206 75.7254 40.2576 75.6885 40.3388 75.6885H41.3677C41.4709 75.6885 41.5115 75.7364 41.4894 75.8323L39.5753 83.3237C39.5532 83.3975 39.5016 83.4344 39.4205 83.4344H38.3915C38.3104 83.4344 38.2587 83.3975 38.2366 83.3237L36.9422 78.0454C36.9348 78.0233 36.9237 78.0086 36.909 78.0012C36.8942 78.0012 36.8831 78.0159 36.8758 78.0454L35.6366 83.3237C35.6145 83.3975 35.5666 83.4344 35.4928 83.4344H34.5192ZM42.7175 83.4344C42.6806 83.4344 42.6474 83.4196 42.6179 83.3901C42.5958 83.368 42.5847 83.3385 42.5847 83.3016V75.8213C42.5847 75.7844 42.5958 75.7549 42.6179 75.7327C42.6474 75.7032 42.6806 75.6885 42.7175 75.6885H43.7353C43.7722 75.6885 43.8017 75.7032 43.8239 75.7327C43.8534 75.7549 43.8681 75.7844 43.8681 75.8213V83.3016C43.8681 83.3385 43.8534 83.368 43.8239 83.3901C43.8017 83.4196 43.7722 83.4344 43.7353 83.4344H42.7175ZM49.9864 75.8213C49.9864 75.7844 49.9975 75.7549 50.0196 75.7327C50.0491 75.7032 50.0823 75.6885 50.1192 75.6885H51.1371C51.1739 75.6885 51.2034 75.7032 51.2256 75.7327C51.2551 75.7549 51.2698 75.7844 51.2698 75.8213V83.3016C51.2698 83.3385 51.2551 83.368 51.2256 83.3901C51.2034 83.4196 51.1739 83.4344 51.1371 83.4344H50.1524C50.0786 83.4344 50.027 83.4049 49.9975 83.3459L46.8111 78.1229C46.7963 78.1008 46.7816 78.0897 46.7668 78.0897C46.7521 78.0971 46.7447 78.1155 46.7447 78.145L46.7668 83.3016C46.7668 83.3385 46.7521 83.368 46.7226 83.3901C46.7005 83.4196 46.6709 83.4344 46.6341 83.4344H45.6162C45.5793 83.4344 45.5461 83.4196 45.5166 83.3901C45.4945 83.368 45.4834 83.3385 45.4834 83.3016V75.8213C45.4834 75.7844 45.4945 75.7549 45.5166 75.7327C45.5461 75.7032 45.5793 75.6885 45.6162 75.6885H46.6009C46.6746 75.6885 46.7263 75.718 46.7558 75.777L49.9311 81C49.9458 81.0221 49.9606 81.0295 49.9753 81.0221C49.9901 81.0221 49.9975 81.0073 49.9975 80.9778L49.9864 75.8213ZM57.9745 75.6885C58.0114 75.6885 58.0409 75.7032 58.063 75.7327C58.0925 75.7549 58.1073 75.7844 58.1073 75.8213V76.6733C58.1073 76.7102 58.0925 76.7397 58.063 76.7618C58.0409 76.7913 58.0114 76.8061 57.9745 76.8061H55.9388C55.9019 76.8061 55.8834 76.8245 55.8834 76.8614V83.3016C55.8834 83.3385 55.8724 83.368 55.8502 83.3901C55.8207 83.4196 55.7875 83.4344 55.7507 83.4344H54.7328C54.6959 83.4344 54.6664 83.4196 54.6443 83.3901C54.6148 83.368 54.6 83.3385 54.6 83.3016V76.8614C54.6 76.8245 54.5816 76.8061 54.5447 76.8061H52.5864C52.5495 76.8061 52.5163 76.7913 52.4868 76.7618C52.4647 76.7397 52.4536 76.7102 52.4536 76.6733V75.8213C52.4536 75.7844 52.4647 75.7549 52.4868 75.7327C52.5163 75.7032 52.5495 75.6885 52.5864 75.6885H57.9745ZM64.5354 76.6622C64.5354 76.6991 64.5206 76.7286 64.4911 76.7508C64.469 76.7803 64.4395 76.795 64.4026 76.795H60.6298C60.5929 76.795 60.5745 76.8135 60.5745 76.8504V78.9196C60.5745 78.9565 60.5929 78.975 60.6298 78.975H63.1634C63.2003 78.975 63.2335 78.986 63.263 79.0081C63.2851 79.0377 63.2962 79.0709 63.2962 79.1077V79.9487C63.2962 79.9856 63.2851 80.0188 63.263 80.0483C63.2335 80.0704 63.2003 80.0815 63.1634 80.0815H60.6298C60.5929 80.0815 60.5745 80.1 60.5745 80.1368V82.2725C60.5745 82.3094 60.5929 82.3278 60.6298 82.3278H64.4026C64.4395 82.3278 64.469 82.3426 64.4911 82.3721C64.5206 82.3942 64.5354 82.4237 64.5354 82.4606V83.3016C64.5354 83.3385 64.5206 83.368 64.4911 83.3901C64.469 83.4196 64.4395 83.4344 64.4026 83.4344H59.4239C59.387 83.4344 59.3538 83.4196 59.3243 83.3901C59.3022 83.368 59.2911 83.3385 59.2911 83.3016V75.8213C59.2911 75.7844 59.3022 75.7549 59.3243 75.7327C59.3538 75.7032 59.387 75.6885 59.4239 75.6885H64.4026C64.4395 75.6885 64.469 75.7032 64.4911 75.7327C64.5206 75.7549 64.5354 75.7844 64.5354 75.8213V76.6622ZM70.189 83.4344C70.1152 83.4344 70.0636 83.4012 70.0341 83.3348L68.5737 80.1479C68.5589 80.1184 68.5368 80.1036 68.5073 80.1036H67.1796C67.1427 80.1036 67.1243 80.1221 67.1243 80.159V83.3016C67.1243 83.3385 67.1095 83.368 67.08 83.3901C67.0579 83.4196 67.0284 83.4344 66.9915 83.4344H65.9736C65.9368 83.4344 65.9036 83.4196 65.8741 83.3901C65.8519 83.368 65.8409 83.3385 65.8409 83.3016V75.8213C65.8409 75.7844 65.8519 75.7549 65.8741 75.7327C65.9036 75.7032 65.9368 75.6885 65.9736 75.6885H69.0162C69.4661 75.6885 69.8644 75.7807 70.2111 75.9651C70.5578 76.1569 70.827 76.4225 71.0188 76.7618C71.2105 77.1086 71.3064 77.5032 71.3064 77.9459C71.3064 78.4549 71.1737 78.8864 70.9081 79.2405C70.65 79.602 70.2885 79.8528 69.8239 79.993C69.8091 79.993 69.798 80.0004 69.7907 80.0151C69.7833 80.0299 69.7833 80.0446 69.7907 80.0594L71.3507 83.2795C71.3654 83.309 71.3728 83.3311 71.3728 83.3459C71.3728 83.4049 71.3322 83.4344 71.2511 83.4344H70.189ZM67.1796 76.795C67.1427 76.795 67.1243 76.8135 67.1243 76.8504V79.0524C67.1243 79.0893 67.1427 79.1077 67.1796 79.1077H68.8392C69.1932 79.1077 69.4809 79.0008 69.7022 78.7868C69.9161 78.5803 70.023 78.3036 70.023 77.9569C70.023 77.6102 69.9161 77.3299 69.7022 77.1159C69.4809 76.902 69.1932 76.795 68.8392 76.795H67.1796Z" fill="white"/>
<path d="M39.1881 103.419C39.166 103.441 39.1586 103.463 39.166 103.485C39.1807 103.507 39.2028 103.518 39.2324 103.518H43.5804C43.6321 103.518 43.6763 103.537 43.7132 103.574C43.7575 103.611 43.7796 103.655 43.7796 103.707V105.267C43.7796 105.318 43.7575 105.363 43.7132 105.4C43.6763 105.436 43.6321 105.455 43.5804 105.455H36.3668C36.3078 105.455 36.2599 105.436 36.223 105.4C36.1861 105.363 36.1677 105.318 36.1677 105.267V103.784C36.1677 103.688 36.2009 103.607 36.2672 103.541C36.7909 103.032 37.3257 102.475 37.8715 101.87C38.4173 101.265 38.7603 100.889 38.9004 100.741C39.1955 100.387 39.4979 100.048 39.8077 99.723C40.7813 98.6459 41.2681 97.8455 41.2681 97.3217C41.2681 96.9455 41.1353 96.6357 40.8698 96.3922C40.6043 96.1562 40.2576 96.0381 39.8298 96.0381C39.402 96.0381 39.0553 96.1562 38.7898 96.3922C38.5169 96.6357 38.3804 96.9566 38.3804 97.3549V97.7533C38.3804 97.8049 38.362 97.8492 38.3251 97.8861C38.2882 97.923 38.244 97.9414 38.1924 97.9414H36.3004C36.2488 97.9414 36.2046 97.923 36.1677 97.8861C36.1234 97.8492 36.1013 97.8049 36.1013 97.7533V97.0008C36.1382 96.4254 36.3226 95.9127 36.6545 95.4627C36.9864 95.0201 37.4253 94.6807 37.9711 94.4447C38.5243 94.2086 39.1438 94.0906 39.8298 94.0906C40.5895 94.0906 41.2497 94.2344 41.8102 94.5221C42.3708 94.8025 42.8023 95.1824 43.1047 95.6619C43.4145 96.1488 43.5694 96.6836 43.5694 97.2664C43.5694 97.7164 43.455 98.1775 43.2264 98.6496C43.0051 99.1217 42.6695 99.6307 42.2196 100.177C41.8877 100.59 41.5299 101.003 41.1464 101.416C40.7628 101.822 40.1912 102.408 39.4315 103.175L39.1881 103.419ZM48.9906 105.632C47.8105 105.632 46.8811 105.304 46.2026 104.647C45.5166 103.991 45.1736 103.094 45.1736 101.958V97.7201C45.1736 96.6062 45.5166 95.7246 46.2026 95.0754C46.8811 94.4189 47.8105 94.0906 48.9906 94.0906C50.1634 94.0906 51.0965 94.4189 51.7898 95.0754C52.4758 95.7246 52.8187 96.6062 52.8187 97.7201V101.958C52.8187 103.094 52.4758 103.991 51.7898 104.647C51.0965 105.304 50.1634 105.632 48.9906 105.632ZM48.9906 103.695C49.4701 103.695 49.8499 103.548 50.1302 103.253C50.4179 102.958 50.5617 102.563 50.5617 102.069V97.6537C50.5617 97.1668 50.4179 96.7758 50.1302 96.4807C49.8499 96.1857 49.4701 96.0381 48.9906 96.0381C48.5186 96.0381 48.1424 96.1857 47.8621 96.4807C47.5745 96.7758 47.4306 97.1668 47.4306 97.6537V102.069C47.4306 102.563 47.5745 102.958 47.8621 103.253C48.1424 103.548 48.5186 103.695 48.9906 103.695ZM57.3106 103.419C57.2885 103.441 57.2848 103.463 57.2996 103.485C57.307 103.507 57.3291 103.518 57.366 103.518H61.7141C61.7657 103.518 61.8099 103.537 61.8468 103.574C61.8837 103.611 61.9021 103.655 61.9021 103.707V105.267C61.9021 105.318 61.8837 105.363 61.8468 105.4C61.8099 105.436 61.7657 105.455 61.7141 105.455H54.4894C54.4377 105.455 54.3935 105.436 54.3566 105.4C54.3197 105.363 54.3013 105.318 54.3013 105.267V103.784C54.3013 103.688 54.3308 103.607 54.3898 103.541C54.9209 103.032 55.4556 102.475 55.9941 101.87C56.5399 101.265 56.8828 100.889 57.023 100.741C57.3254 100.387 57.6315 100.048 57.9413 99.723C58.9149 98.6459 59.4017 97.8455 59.4017 97.3217C59.4017 96.9455 59.2689 96.6357 59.0034 96.3922C58.7305 96.1562 58.3802 96.0381 57.9524 96.0381C57.5245 96.0381 57.1779 96.1562 56.9124 96.3922C56.6468 96.6357 56.5141 96.9566 56.5141 97.3549V97.7533C56.5141 97.8049 56.4956 97.8492 56.4587 97.8861C56.4219 97.923 56.3739 97.9414 56.3149 97.9414H54.423C54.3714 97.9414 54.3271 97.923 54.2902 97.8861C54.2533 97.8492 54.2349 97.8049 54.2349 97.7533V97.0008C54.2644 96.4254 54.4451 95.9127 54.777 95.4627C55.1089 95.0201 55.5515 94.6807 56.1047 94.4447C56.6579 94.2086 57.2738 94.0906 57.9524 94.0906C58.7121 94.0906 59.3722 94.2344 59.9328 94.5221C60.5007 94.8025 60.9359 95.1824 61.2383 95.6619C61.5407 96.1488 61.6919 96.6836 61.6919 97.2664C61.6919 97.7164 61.5813 98.1775 61.36 98.6496C61.1314 99.1217 60.7921 99.6307 60.3421 100.177C60.0102 100.59 59.6525 101.003 59.2689 101.416C58.8854 101.822 58.3138 102.408 57.5541 103.175L57.3106 103.419ZM64.8672 94.2676C64.9263 94.2381 65.0074 94.2234 65.1106 94.2234H67.0579C67.1095 94.2234 67.1538 94.2418 67.1906 94.2787C67.2275 94.3156 67.246 94.3598 67.246 94.4115V105.267C67.246 105.318 67.2275 105.363 67.1906 105.4C67.1538 105.436 67.1095 105.455 67.0579 105.455H65.177C65.1254 105.455 65.0811 105.436 65.0443 105.4C65 105.363 64.9779 105.318 64.9779 105.267V96.4697C64.9779 96.4475 64.9705 96.4254 64.9558 96.4033C64.9336 96.3812 64.9115 96.3775 64.8894 96.3922L63.2962 96.8238L63.2298 96.8348C63.1339 96.8348 63.086 96.7758 63.086 96.6578L63.0417 95.2857C63.0417 95.175 63.0897 95.0975 63.1855 95.0533L64.8672 94.2676Z" fill="#252530"/>
</svg>
