<svg width="109" height="24" viewBox="0 0 109 24" fill="none" xmlns="http://www.w3.org/2000/svg">
<path fill-rule="evenodd" clip-rule="evenodd" d="M107.193 10.6135C106.785 10.1366 106.155 9.87881 105.486 9.84475C104.739 9.80675 104.168 10.0678 103.788 10.5251C103.464 10.9145 103.238 11.4529 103.241 12.0569V14.1894H104.791C104.905 14.1851 105.019 14.1867 105.134 14.1883C105.307 14.1906 105.48 14.193 105.652 14.1754C106.289 14.1042 106.824 13.8796 107.184 13.4921C107.519 13.1322 107.703 12.6314 107.681 11.9826C107.663 11.4739 107.498 10.9699 107.193 10.6135ZM95.1852 14.0645H94.367V9.01324H95.1852V14.0645ZM99.7526 18.2154C99.1728 18.8934 98.297 19.266 97.4253 19.266C95.7195 19.266 94.3555 18.1727 94.3555 16.0003L94.3468 15.1134H95.165L95.1735 16.1975C95.183 17.4049 95.9187 18.4406 97.3492 18.4406C98.4615 18.4406 99.5982 17.8355 99.5962 16.1372L99.595 15.1121H100.428L100.433 16.3075C100.433 16.3685 100.431 16.4284 100.428 16.4875C100.428 16.8432 100.429 17.1987 100.481 17.5514C100.51 17.7785 100.567 18.0046 100.674 18.2079L100.675 18.2099C100.724 18.2715 100.774 18.3349 100.845 18.3732C100.954 18.4375 101.083 18.4456 101.207 18.4535C101.216 18.454 101.225 18.4545 101.233 18.4551C101.232 18.6148 101.232 18.7746 101.232 18.9344C101.233 19.0451 101.233 19.1557 101.232 19.2663C100.911 19.2735 100.577 19.1989 100.317 19.0021C100.048 18.8029 99.8773 18.4965 99.7865 18.1785L99.7712 18.1971L99.7603 18.21C99.758 18.2127 99.7561 18.2143 99.7544 18.215C99.7538 18.2153 99.7532 18.2154 99.7526 18.2154ZM100.428 14.0645H99.5947V9.01324H100.428V14.0645ZM87.1157 19.2659H86.2975V15.1101H87.1157V19.2659ZM92.3717 12.1671C92.3717 10.374 91.2325 9.01323 89.3645 9.01323C88.8428 9.01323 87.834 9.18032 87.1157 9.91051V5.05713H86.2976V14.0662H87.1157V12.0034C87.1157 10.6287 88.2348 9.84149 89.3411 9.83862C90.5754 9.8354 91.5536 10.6495 91.5536 12.2033V14.0662H92.3717V12.3496H92.3687L92.3717 12.1671ZM92.3717 19.2659H91.5535V15.1101H92.3717V19.2659ZM103.239 15.3253L103.244 15.0095L105.069 15.0091C105.128 15.0079 105.187 15.0085 105.246 15.0091C105.363 15.0103 105.48 15.0114 105.596 14.9987C106.47 14.9704 107.241 14.6249 107.768 14.0519C108.246 13.5329 108.524 12.8275 108.498 12.0023C108.477 11.3289 108.268 10.6466 107.894 10.1631C107.317 9.41692 106.383 9.01856 105.361 9.01641C104.454 9.01444 103.689 9.36439 103.161 10.0019C102.554 10.7353 102.423 11.4159 102.423 12.3694V14.1893H101.232V15.0095H102.423L102.425 15.7511C102.425 15.8069 102.425 15.8628 102.425 15.9187C102.424 16.1165 102.423 16.3146 102.449 16.5111C102.488 16.8447 102.567 17.1748 102.692 17.4869C102.868 17.9259 103.141 18.3286 103.507 18.6328C104.017 19.0581 104.673 19.2569 105.332 19.2651C106.317 19.2773 107.349 18.8722 107.955 18.0425C107.838 17.9514 107.716 17.865 107.595 17.7786C107.495 17.7078 107.396 17.6369 107.298 17.5634C106.724 18.1882 106.157 18.4756 105.286 18.4475C104.839 18.4331 104.401 18.3019 104.053 18.0254C103.783 17.811 103.578 17.5163 103.433 17.1423C103.319 16.8487 103.243 16.4937 103.239 16.1792C103.239 16.0786 103.24 15.987 103.24 15.8985C103.241 15.7112 103.242 15.5383 103.239 15.3253ZM73.3682 8.93973C73.3682 8.17487 74.1308 7.82139 75.3593 7.82139C76.7072 7.82139 78.1727 8.11695 79.1682 8.53034L78.8178 5.4709C77.7028 5.23525 76.7072 5.05951 74.8933 5.05951C71.4368 5.05951 69.0933 6.42747 69.0933 9.2932C69.0933 12.2305 71.4564 13.0676 73.3716 13.7461C74.6764 14.2083 75.7734 14.5969 75.7734 15.5259C75.7734 16.4066 75.1263 16.8759 73.5454 16.8759C72.1417 16.8759 69.9714 16.4066 68.6831 15.7596L69.153 18.9947C70.4413 19.466 72.1974 19.6997 73.6051 19.6997C77.1771 19.6997 80.106 18.5235 80.106 14.9947C80.106 12.2122 77.7454 11.3852 75.8187 10.7102C74.4903 10.2448 73.3682 9.85169 73.3682 8.93973ZM23.2283 5.35302H27.5051V19.4061H23.2283V13.8783H18.7762V19.4061H14.4993V5.35302H18.7762V10.9387H23.2283V5.35302ZM42.3826 5.35302V16.5823H46.4823L45.8391 19.4061H38.1057V5.35302H42.3826ZM34.944 5.35302H30.6671V19.4061H34.944V5.35302ZM48.0075 5.35302H52.2824V19.4061H48.0075V5.35302ZM67.805 10.4095C67.805 13.9961 65.2843 16.0551 61.3041 16.0551H59.7809V19.4061H55.504V5.35302C56.9675 5.17728 59.0183 5.05946 60.7167 5.05946C65.111 5.05946 67.805 6.47135 67.805 10.4095ZM63.5879 10.4693C63.5879 12.2906 62.7098 13.5268 60.4818 13.5268H59.7809V7.71941C60.0298 7.70544 60.2628 7.70544 60.4818 7.70544C62.5904 7.70544 63.5879 8.70395 63.5879 10.4693ZM12.801 10.4095C12.801 13.9961 10.2822 16.0551 6.30006 16.0551H4.77687V19.4061H0.5V5.35302C1.96545 5.17728 4.01428 5.05946 5.71468 5.05946C10.107 5.05946 12.801 6.47135 12.801 10.4095ZM8.58588 10.4693C8.58588 12.2906 7.70582 13.5268 5.47977 13.5268H4.77692V7.71941C5.0258 7.70544 5.26075 7.70544 5.47977 7.70544C7.58834 7.70544 8.58588 8.70395 8.58588 10.4693Z" fill="black"/>
</svg>
