<svg width="136" height="24" viewBox="0 0 136 24" fill="none" xmlns="http://www.w3.org/2000/svg">
<g clip-path="url(#clip0)">
<path fill-rule="evenodd" clip-rule="evenodd" d="M70.5219 9.88381H68.6586L68.7556 9.43212C68.9108 8.50922 69.4542 7.68446 70.3472 7.68446C70.6964 7.68446 70.9684 7.7433 71.201 7.82192L71.7252 5.70119C71.4146 5.56373 70.9295 5.46533 70.2695 5.46533C69.3184 5.46533 68.3673 5.7405 67.6491 6.36871C66.7368 7.15415 66.3099 8.29314 66.0964 9.43212L66.0186 9.88381H64.7765L64.3882 11.9259H65.6306L64.2135 19.5059H66.8923L68.3091 11.9259H70.1531L70.5219 9.88381ZM34.8073 11.1207C35.5255 10.2566 36.457 9.68725 37.641 9.68725C39.0385 9.68725 39.8344 10.6102 39.8344 12.1417C39.8344 12.6129 39.7567 13.32 39.6404 13.9092L38.5923 19.5057H35.9138L36.923 14.0859C37.0005 13.7126 37.0396 13.2609 37.0396 12.8881C37.0396 12.2987 36.8064 11.8866 36.2048 11.8866C35.3507 11.8866 34.4385 12.986 34.0891 14.7732L33.1964 19.5057H30.5176L33.1187 5.66162H35.7972L34.7684 11.1009L34.8073 11.1207ZM107.65 9.83747L108.057 7.77686L107.127 8.15068L106.818 9.83747H105.462L105.327 10.5983H106.663L105.617 16.1801C105.462 16.905 105.404 17.3736 105.404 17.8831C105.404 18.6666 105.83 19.4114 106.934 19.4114C107.263 19.4114 107.592 19.3531 107.844 19.275L107.786 18.5905C107.612 18.6493 107.418 18.6716 107.108 18.6716C106.527 18.6716 106.275 18.3437 106.275 17.7951C106.275 17.2861 106.353 16.8068 106.469 16.1799L107.495 10.5983H109.684L109.839 9.83747H107.65ZM96.3802 10.3794C96.9613 10.3794 97.2904 10.4382 97.5035 10.5166L96.845 13.9645C96.3998 16.3939 94.6956 18.686 93.185 18.686C91.9263 18.686 91.5779 17.5889 91.5972 16.3548C91.6165 13.3964 93.7079 10.3794 96.3802 10.3794ZM96.4569 17.2327V17.2329C96.3392 18.1035 96.2465 18.789 96.2641 19.4744H97.0774C97.0387 18.4602 97.1548 16.8541 97.484 15.0909L98.4716 9.92328C97.9876 9.74676 97.2516 9.66357 96.5933 9.66357C92.9915 9.66357 90.7258 13.4148 90.7258 16.6276C90.7258 18.3126 91.5779 19.5459 92.9915 19.5459C94.2116 19.5459 95.3925 18.9674 96.4577 16.9385H96.4965L96.4569 17.2327ZM84.9163 18.686C84.1612 18.686 83.5415 18.4902 83.1154 18.157L83.7158 14.9244C84.2384 12.0839 85.9621 10.3794 87.2787 10.3794C88.6537 10.3794 89.0796 11.6333 89.0796 12.7499C89.0796 15.1598 87.3757 18.686 84.9163 18.686ZM83.2317 13.1688L81.3726 23.2787H82.2054L82.9412 19.2211H82.9798C83.1131 19.2211 83.2832 19.2689 83.4933 19.328C83.8328 19.4234 84.2768 19.5482 84.8388 19.5482C87.8016 19.5482 89.951 15.8982 89.951 12.7247C89.951 11.1769 89.2927 9.70215 87.5306 9.70215C86.2913 9.70215 85.1294 10.5982 84.2966 11.8662H84.258L84.5483 9.83733H83.7544C83.6383 10.8518 83.4641 11.9345 83.2317 13.1688ZM99.072 19.4745L100.253 13.0299C100.486 11.8349 100.621 10.8519 100.699 9.83743H101.454C101.414 10.3599 101.365 10.7628 101.301 11.2925V11.2926L101.3 11.2952V11.2998C101.27 11.5395 101.238 11.8054 101.202 12.12H101.241C101.802 10.8519 102.732 9.7507 103.894 9.7507C103.955 9.7507 104.021 9.74023 104.084 9.73025C104.141 9.72113 104.196 9.7124 104.242 9.7124L104.068 10.5846C103.991 10.5651 103.894 10.5506 103.758 10.5506C102.538 10.5506 101.183 12.5245 100.795 14.5816L99.9048 19.4745H99.072ZM109.722 19.4743L110.962 12.7162C111.175 11.5996 111.291 10.598 111.368 9.8372H112.162L111.891 11.8661H111.93C112.743 10.598 113.905 9.69238 115.183 9.69238C116.093 9.69238 117.255 10.2511 117.255 12.0338C117.255 12.5042 117.178 13.0799 117.081 13.5894L116.016 19.4743H115.183L116.268 13.575C116.345 13.1441 116.403 12.633 116.403 12.1436C116.403 11.1639 116.016 10.4286 114.873 10.4286C113.634 10.4286 111.872 12.101 111.465 14.3736L110.555 19.4743H109.722ZM122.907 10.3794C123.778 10.3794 124.376 10.8496 124.376 11.7116V11.7312C124.376 13.5924 122.044 14.0038 119.623 13.9843C120.204 11.9467 121.474 10.3794 122.907 10.3794ZM121.438 19.4109C122.6 19.4109 123.49 19.0385 123.974 18.7053L123.723 18.0393C123.297 18.2939 122.6 18.6662 121.573 18.6662C120.586 18.6662 119.869 18.1372 119.54 17.0794C119.346 16.3936 119.366 15.1595 119.462 14.7284C122.503 14.7479 125.214 14.0819 125.214 11.6918C125.214 10.6338 124.575 9.63477 123.045 9.63477C120.392 9.63477 118.514 13.1806 118.514 15.8841C118.514 17.6868 119.269 19.4109 121.438 19.4109ZM125.776 19.4745L126.957 13.0299C127.189 11.8349 127.325 10.8519 127.402 9.83743H128.157C128.118 10.3586 128.069 10.7607 128.005 11.2884C127.975 11.5311 127.942 11.8004 127.906 12.12H127.945C128.506 10.8519 129.436 9.7507 130.597 9.7507C130.658 9.7507 130.724 9.74022 130.787 9.73023C130.845 9.72112 130.9 9.7124 130.946 9.7124L130.772 10.5846C130.694 10.5651 130.597 10.5506 130.462 10.5506C129.242 10.5506 127.886 12.5245 127.499 14.5816L126.608 19.4745H125.776ZM132.282 18.6662C131.604 18.6662 130.985 18.3918 130.655 18.1372L130.326 18.8425C130.636 19.0971 131.372 19.4109 132.205 19.4109C133.812 19.4109 135.187 18.3723 135.187 16.472C135.187 15.512 134.645 14.65 133.754 14.0428C132.999 13.5138 132.495 13.0241 132.495 12.1423C132.495 11.1823 133.25 10.3791 134.374 10.3791C134.916 10.3791 135.4 10.5947 135.69 10.771L136 10.0461C135.729 9.83056 135.109 9.63477 134.47 9.63477C132.824 9.63477 131.643 10.8298 131.643 12.2992C131.643 13.1806 132.146 14.0231 133.076 14.6305C133.947 15.1986 134.335 15.7667 134.335 16.7071C134.335 17.7844 133.502 18.6662 132.282 18.6662ZM28.0526 13.7327C27.3733 13.3596 27.0238 13.0454 27.0238 12.6132C27.0238 12.0634 27.5092 11.7101 28.266 11.7101C28.9649 11.7101 29.5665 11.9064 29.9353 12.0831L30.5564 10.1587C30.1295 9.90333 29.3336 9.70703 28.3048 9.70703C25.9562 9.70703 24.3453 11.0618 24.3453 12.9667C24.3453 14.0466 25.1024 14.8716 26.1116 15.4605C26.9268 15.9318 27.2179 16.2658 27.2179 16.7568C27.2179 17.2673 26.8103 17.6797 26.0535 17.6797C25.2187 17.6992 24.3453 17.3457 23.86 17.0905L23.2002 19.0149C23.7048 19.3682 24.7336 19.6629 25.8399 19.6825C28.2467 19.7022 29.9741 18.4846 29.9741 16.3249C29.9741 15.1661 29.1007 14.3413 28.0526 13.7327ZM44.5706 17.6205C43.6583 17.6205 43.27 16.8348 43.27 15.853C43.27 14.3017 44.0659 11.7686 45.5216 11.7686C46.4727 11.7686 46.7833 12.5933 46.7833 13.3983C46.7833 15.0676 45.9874 17.6205 44.5706 17.6205ZM45.8904 9.6875C42.6684 9.6875 40.5333 12.633 40.5333 15.9122C40.5333 18.0134 41.8143 19.7022 44.2211 19.7022C47.385 19.7022 49.52 16.8351 49.52 13.4773C49.52 11.5333 48.3942 9.6875 45.8904 9.6875ZM52.7034 17.2672C52.9947 17.5028 53.3246 17.6598 53.8099 17.6598C55.3043 17.6598 56.333 15.166 56.333 13.4183C56.333 12.6917 56.0809 11.9258 55.2656 11.9258C54.3339 11.9258 53.4605 13.0452 53.1499 14.7341L52.7034 17.2672ZM53.5379 11.2977C54.2564 10.2764 55.3042 9.6875 56.3719 9.6875C58.3322 9.6875 59.1281 11.3172 59.1281 13.1435C59.1281 16.4425 57.0708 19.7022 53.9263 19.7022C53.2665 19.7022 52.6646 19.545 52.354 19.3487H52.2958L51.5583 23.3548H48.8798L50.7431 13.438C50.9567 12.3188 51.17 10.8262 51.2866 9.84449H53.6545L53.4993 11.2977H53.5379ZM62.9521 5.79932C62.0982 5.79932 61.4189 6.48661 61.4189 7.37021C61.4189 8.17543 61.9233 8.72527 62.6803 8.72527H62.7192C63.5537 8.72527 64.2721 8.15565 64.2914 7.15413C64.2914 6.36868 63.7673 5.79932 62.9521 5.79932ZM61.8846 19.5059H59.2059L61.0113 9.90332H63.7091L61.8846 19.5059ZM75.3355 14.2039L76.9659 9.90332H79.761L76.4806 17.0119C75.3162 19.4468 74.1904 21.2338 72.9675 22.3926C72.0165 23.2957 70.8906 23.7474 70.3472 23.8653L69.6097 21.5678C70.0561 21.4106 70.6189 21.175 71.1235 20.8019C71.7447 20.37 72.2686 19.7809 72.5792 19.1719C72.657 19.0345 72.6763 18.9168 72.6376 18.7205L71.0265 9.90332H73.8409L74.2681 14.2236C74.3844 15.1856 74.4621 15.8732 74.501 16.5014H74.5396C74.5636 16.4284 74.5874 16.356 74.6113 16.2833C74.7993 15.7108 74.9909 15.1275 75.3355 14.2039Z" fill="black"/>
<path fill-rule="evenodd" clip-rule="evenodd" d="M6.92072 7.86504C6.90032 7.86504 6.87906 7.86341 6.85752 7.86071C6.6142 7.82849 6.41052 7.62113 6.40276 7.39725C6.395 7.17824 6.25338 2.01979 9.4634 0.846512C10.2735 0.550351 11.0095 0.616946 11.6504 1.0444C12.4212 1.55849 12.9831 2.5734 13.3207 4.0607C13.5594 5.11242 13.5979 6.0185 13.5996 6.0564C13.6085 6.28055 13.4183 6.43702 13.175 6.40589C12.9314 6.37503 12.7266 6.1682 12.7177 5.94432C12.6792 5.00982 12.3359 2.42288 11.223 1.68085C10.8665 1.44344 10.435 1.42232 9.90408 1.61642C7.15255 2.62212 7.28297 7.46519 7.2847 7.51392C7.29159 7.71777 7.1333 7.86504 6.92072 7.86504Z" fill="#8DB84A"/>
<path fill-rule="evenodd" clip-rule="evenodd" d="M13.284 3.88698L2.40213 7.19966C2.40213 7.19966 1.93505 7.33012 1.82552 7.45934C1.70516 7.60118 1.682 7.98364 1.682 7.98364L0 20.7393L12.6276 23.0652L13.6 3.87633C13.4608 3.84935 13.3185 3.87905 13.284 3.88698Z" fill="#8DB84A"/>
<path fill-rule="evenodd" clip-rule="evenodd" d="M17.4564 5.52526C17.4564 5.52526 17.437 5.42717 17.3774 5.39126C17.3181 5.35534 17.2531 5.34841 17.2531 5.34841L15.3774 5.21787L13.9972 3.93583C13.9455 3.89842 13.8849 3.87663 13.8231 3.86523L12.7998 23.0652L19.9998 21.6086L17.4564 5.52526Z" fill="#5B873E"/>
<path fill-rule="evenodd" clip-rule="evenodd" d="M8.99536 14.4253C8.80918 14.1641 8.59221 13.9342 8.36312 13.7308C8.13718 13.5302 7.89984 13.3554 7.66736 13.2003C7.50178 13.0924 7.35802 12.9883 7.23633 12.8868C7.11536 12.7854 7.01572 12.6862 6.93693 12.5866C6.85887 12.4873 6.80118 12.3878 6.76457 12.2857C6.72772 12.1842 6.71148 12.0796 6.71609 11.9707C6.72215 11.8237 6.75342 11.6905 6.80699 11.5731C6.86106 11.4551 6.93742 11.3525 7.03415 11.2666C7.13112 11.1802 7.24893 11.111 7.38469 11.0605C7.52166 11.0097 7.67705 10.9779 7.84893 10.9673C8.03584 10.9556 8.21645 10.9617 8.38809 10.9801C8.5619 10.9988 8.72651 11.0304 8.87948 11.0696C9.0339 11.109 9.17645 11.156 9.30445 11.2055C9.43342 11.2555 9.5476 11.3076 9.64384 11.3566L10.4548 8.83833C10.3345 8.77416 10.1881 8.7153 10.0191 8.66553C9.85184 8.61627 9.66275 8.5761 9.45548 8.54856C9.25087 8.52128 9.02857 8.50662 8.79221 8.50789C8.55924 8.5089 8.31269 8.52532 8.05596 8.56044C7.50251 8.63597 7.00287 8.79564 6.56602 9.023C6.1413 9.24406 5.77306 9.5313 5.47002 9.87159C5.17306 10.2053 4.93621 10.5934 4.76918 11.0254C4.6036 11.4528 4.50469 11.928 4.48336 12.4431C4.47027 12.7511 4.50009 13.0343 4.56433 13.2955C4.62881 13.5582 4.72869 13.8 4.85548 14.0233C4.98348 14.2494 5.1396 14.4571 5.31584 14.6491C5.49427 14.8436 5.69354 15.0228 5.90542 15.1872C6.07802 15.3188 6.22372 15.4426 6.34518 15.5629C6.4676 15.6839 6.56481 15.8009 6.63948 15.9176C6.71439 16.035 6.76627 16.1518 6.79802 16.2725C6.83002 16.3933 6.84166 16.5178 6.83609 16.65C6.83051 16.7821 6.80336 16.9056 6.75512 17.015C6.70687 17.1244 6.63778 17.2196 6.54881 17.2947C6.46033 17.3694 6.35221 17.4243 6.22518 17.4543C6.09936 17.4839 5.9556 17.4889 5.79463 17.4642C5.61233 17.4361 5.42833 17.3813 5.24966 17.3098C5.07342 17.2393 4.90178 17.1527 4.7413 17.0592C4.58251 16.9668 4.43439 16.8677 4.30275 16.7712C4.17209 16.6755 4.05742 16.582 3.96384 16.4994L3.40869 18.4194C3.50057 18.5422 3.61766 18.6647 3.7556 18.7832C3.89499 18.9029 4.05572 19.0189 4.23366 19.1268C4.41378 19.2361 4.6116 19.3374 4.82251 19.4261C5.03657 19.5163 5.26396 19.5939 5.50009 19.6532C5.50396 19.6542 5.50809 19.6553 5.51196 19.656C5.51584 19.6573 5.51996 19.6583 5.52384 19.659C5.52796 19.6601 5.53184 19.6608 5.53596 19.6616C5.5396 19.6626 5.54372 19.6636 5.54784 19.6646C6.05087 19.7803 6.53887 19.8086 6.9939 19.7452C7.46275 19.6798 7.89354 19.5173 8.26542 19.2556C8.64578 18.9878 8.96142 18.6182 9.19051 18.1481C9.42227 17.6716 9.56215 17.0976 9.59002 16.4314C9.60699 16.0239 9.55293 15.6543 9.44651 15.3191C9.34057 14.9866 9.18396 14.69 8.99536 14.4253Z" fill="#FFFFFE"/>
<path fill-rule="evenodd" clip-rule="evenodd" d="M4.98486 7.61742C4.96741 7.61742 4.94971 7.61616 4.93201 7.61338C4.73153 7.58332 4.59262 7.3898 4.62147 7.18113C4.64959 6.97675 5.34462 2.16285 8.23868 1.0677C8.9691 0.791317 9.57953 0.853717 10.053 1.25262C10.6222 1.73212 10.9359 2.67923 10.9861 4.06744C11.0215 5.04892 10.9109 5.89422 10.9063 5.92984C10.8784 6.13902 10.6932 6.28479 10.4927 6.25599C10.292 6.22694 10.1521 6.03418 10.1798 5.825C10.2949 4.95317 10.4137 2.53902 9.59165 1.84656C9.32838 1.625 8.96741 1.6053 8.48886 1.78618C6.00813 2.72471 5.35359 7.24429 5.34729 7.28976C5.32086 7.48024 5.16401 7.61742 4.98486 7.61742Z" fill="#8DB84A"/>
</g>
<defs>
<clipPath id="clip0">
<rect width="136" height="24" fill="white"/>
</clipPath>
</defs>
</svg>
