<svg width="116" height="60" viewBox="0 0 116 60" fill="none" xmlns="http://www.w3.org/2000/svg">
<g clip-path="url(#clip0)">
<path fill-rule="evenodd" clip-rule="evenodd" d="M10.076 10.7521C10.0465 10.7521 10.0159 10.7497 9.98479 10.7456C9.6338 10.6975 9.33994 10.3879 9.32874 10.0535C9.31755 9.72647 9.11324 2.02311 13.7441 0.271001C14.9127 -0.17127 15.9745 -0.0718192 16.8991 0.566522C18.0111 1.33423 18.8217 2.84983 19.3087 5.07089C19.653 6.64147 19.7086 7.99457 19.711 8.05117C19.7239 8.3859 19.4496 8.61956 19.0986 8.57307C18.7471 8.52699 18.4516 8.21813 18.4388 7.88379C18.3832 6.48826 17.8879 2.62507 16.2825 1.51696C15.7681 1.16242 15.1457 1.13088 14.3798 1.42074C10.4104 2.9226 10.5986 10.155 10.6011 10.2277C10.611 10.5322 10.3827 10.7521 10.076 10.7521Z" fill="#8DB84A"/>
<path fill-rule="evenodd" clip-rule="evenodd" d="M19.2556 4.81127L3.55719 9.75823C3.55719 9.75823 2.88337 9.95305 2.72536 10.1461C2.55172 10.3579 2.51831 10.929 2.51831 10.929L0.0918274 29.9776L18.3086 33.451L19.7115 4.79538C19.5106 4.75509 19.3054 4.79945 19.2556 4.81127Z" fill="#8DB84A"/>
<path fill-rule="evenodd" clip-rule="evenodd" d="M25.275 7.2578C25.275 7.2578 25.2471 7.11133 25.1611 7.05769C25.0755 7.00406 24.9818 6.9937 24.9818 6.9937L22.2759 6.79876L20.2847 4.88423C20.2102 4.82837 20.1227 4.79582 20.0337 4.77881L18.5574 33.451L28.9442 31.2757L25.275 7.2578Z" fill="#5B873E"/>
<path fill-rule="evenodd" clip-rule="evenodd" d="M13.0687 20.548C12.8001 20.1579 12.4871 19.8146 12.1566 19.5108C11.8307 19.2113 11.4883 18.9502 11.1529 18.7186C10.9141 18.5575 10.7067 18.402 10.5311 18.2504C10.3567 18.0991 10.2129 17.9508 10.0992 17.8022C9.98658 17.6539 9.90341 17.5053 9.85056 17.3529C9.79742 17.2012 9.77394 17.045 9.78058 16.8824C9.78938 16.6629 9.83447 16.464 9.91174 16.2886C9.98976 16.1125 10.1 15.9593 10.2394 15.831C10.3794 15.7019 10.5493 15.5986 10.7452 15.5232C10.9427 15.4473 11.167 15.3998 11.4149 15.3839C11.6845 15.3666 11.9451 15.3756 12.1926 15.4032C12.4434 15.4311 12.6809 15.4783 12.9015 15.5368C13.1244 15.5956 13.33 15.6658 13.5147 15.7397C13.7007 15.8145 13.8654 15.8922 14.0043 15.9653L15.1741 12.2047C15.0006 12.1089 14.7894 12.0209 14.5457 11.9467C14.3043 11.8731 14.0315 11.8131 13.7325 11.772C13.4374 11.7313 13.1166 11.7094 12.7756 11.7113C12.4396 11.7128 12.0839 11.7373 11.7136 11.7898C10.9151 11.9025 10.1943 12.1409 9.56411 12.4805C8.95142 12.8106 8.42018 13.2396 7.98302 13.7477C7.55461 14.2461 7.21292 14.8256 6.97197 15.4708C6.7331 16.109 6.59042 16.8187 6.55964 17.5879C6.54075 18.0479 6.58377 18.4708 6.67645 18.8609C6.76948 19.2532 6.91356 19.6142 7.09647 19.9477C7.28112 20.2854 7.50635 20.5955 7.7606 20.8822C8.018 21.1727 8.30548 21.4402 8.61114 21.6858C8.86013 21.8823 9.07033 22.0672 9.24553 22.2468C9.42211 22.4275 9.56243 22.6021 9.6701 22.7765C9.77815 22.9519 9.85299 23.1262 9.89883 23.3066C9.94495 23.4869 9.96179 23.6729 9.95374 23.8702C9.9457 24.0675 9.9065 24.252 9.8369 24.4154C9.7673 24.5787 9.66767 24.7209 9.53932 24.8329C9.41163 24.9447 9.25567 25.0265 9.07242 25.0714C8.89091 25.1155 8.68352 25.1231 8.45131 25.0861C8.18832 25.0442 7.92287 24.9624 7.66513 24.8556C7.41087 24.7503 7.16327 24.621 6.93175 24.4814C6.70267 24.3433 6.489 24.1954 6.2991 24.0512C6.11059 23.9083 5.94517 23.7687 5.81018 23.6453L5.00931 26.5125C5.14185 26.6959 5.31077 26.8788 5.50976 27.0558C5.71086 27.2346 5.94272 27.4078 6.19942 27.5689C6.45927 27.7322 6.74465 27.8835 7.04891 28.0159C7.35772 28.1506 7.68576 28.2664 8.02639 28.3551C8.03199 28.3566 8.03794 28.3581 8.04353 28.3592C8.04913 28.3611 8.05507 28.3627 8.06066 28.3638C8.06661 28.3653 8.0722 28.3665 8.07815 28.3676C8.0834 28.3691 8.08934 28.3706 8.09529 28.3721C8.82096 28.5449 9.52501 28.5871 10.1814 28.4925C10.8578 28.3948 11.4792 28.1521 12.0157 27.7613C12.5644 27.3614 13.0198 26.8095 13.3503 26.1074C13.6846 25.3958 13.8864 24.5387 13.9266 23.5439C13.9511 22.9353 13.8731 22.3833 13.7196 21.8827C13.5668 21.3863 13.3408 20.9433 13.0687 20.548Z" fill="#FFFFFE"/>
<path fill-rule="evenodd" clip-rule="evenodd" d="M7.28289 10.3822C7.25772 10.3822 7.23219 10.3803 7.20665 10.3761C6.91744 10.3312 6.71704 10.0422 6.75866 9.73062C6.79923 9.42537 7.80189 2.2366 11.9769 0.601151C13.0306 0.188421 13.9113 0.281606 14.5943 0.87731C15.4155 1.59336 15.868 3.00773 15.9404 5.08081C15.9914 6.54649 15.8319 7.80881 15.8253 7.86202C15.7851 8.17439 15.5179 8.39207 15.2286 8.34907C14.9391 8.30568 14.7373 8.01782 14.7772 7.70545C14.9433 6.4035 15.1147 2.79835 13.9287 1.76427C13.549 1.4334 13.0282 1.40397 12.3378 1.6741C8.75909 3.07564 7.81483 9.82494 7.80574 9.89281C7.76762 10.1772 7.54134 10.3822 7.28289 10.3822Z" fill="#8DB84A"/>
<path fill-rule="evenodd" clip-rule="evenodd" d="M40.5608 19.5144C39.5808 18.9572 39.0767 18.488 39.0767 17.8427C39.0767 17.0215 39.7768 16.494 40.8686 16.494C41.8768 16.494 42.7448 16.7871 43.2767 17.0511L44.1729 14.1772C43.557 13.7958 42.4088 13.5027 40.9246 13.5027C37.5365 13.5027 35.2125 15.5259 35.2125 18.3706C35.2125 19.9832 36.3047 21.2152 37.7606 22.0947C38.9367 22.7984 39.3566 23.2971 39.3566 24.0304C39.3566 24.7928 38.7685 25.4086 37.6768 25.4086C36.4726 25.4378 35.2126 24.9098 34.5124 24.5288L33.5606 27.4026C34.2886 27.9302 35.7727 28.3703 37.3687 28.3995C40.8407 28.429 43.3328 26.6107 43.3328 23.3854C43.3328 21.655 42.0728 20.4233 40.5608 19.5144Z" fill="black"/>
<path fill-rule="evenodd" clip-rule="evenodd" d="M54.3931 13.4735C52.6851 13.4735 51.3413 14.3237 50.3052 15.6141L50.2491 15.5845L51.7333 7.46179H47.8692L44.1169 28.1358H47.9813L49.2691 21.0685C49.7733 18.3997 51.0892 16.7578 52.3213 16.7578C53.1893 16.7578 53.5256 17.3733 53.5256 18.2534C53.5256 18.8102 53.4692 19.4847 53.3574 20.0422L51.9015 28.1358H55.7656L57.2776 19.7783C57.4453 18.8984 57.5575 17.8425 57.5575 17.1388C57.5575 14.8516 56.4093 13.4735 54.3931 13.4735Z" fill="black"/>
<path fill-rule="evenodd" clip-rule="evenodd" d="M64.3899 25.3205C63.0739 25.3205 62.5137 24.1472 62.5137 22.6811C62.5137 20.3644 63.6619 16.5816 65.7619 16.5816C67.134 16.5816 67.5821 17.8133 67.5821 19.0153C67.5821 21.5081 66.4338 25.3205 64.3899 25.3205ZM66.294 13.4734C61.6459 13.4734 58.5658 17.872 58.5658 22.769C58.5658 25.9068 60.4137 28.4289 63.8858 28.4289C68.45 28.4289 71.5301 24.1472 71.5301 19.1328C71.5301 16.2298 69.906 13.4734 66.294 13.4734Z" fill="black"/>
<path fill-rule="evenodd" clip-rule="evenodd" d="M77.7189 25.3788C77.0187 25.3788 76.5428 25.1443 76.1226 24.7925L76.7666 21.0097C77.2147 18.4877 78.4746 16.816 79.8188 16.816C80.9949 16.816 81.3587 17.9597 81.3587 19.0449C81.3587 21.6547 79.8746 25.3788 77.7189 25.3788ZM81.4147 13.4734C79.8745 13.4734 78.3629 14.3528 77.3264 15.878H77.2707L77.4945 13.7078H74.0785C73.9103 15.1739 73.6026 17.4027 73.2945 19.0741L70.6065 33.8833H74.4706L75.5345 27.9009H75.6184C76.0664 28.194 76.9347 28.4289 77.8866 28.4289C82.423 28.4289 85.391 23.561 85.391 18.6344C85.391 15.9071 84.2428 13.4734 81.4147 13.4734Z" fill="black"/>
<path fill-rule="evenodd" clip-rule="evenodd" d="M90.9074 7.66711C89.6757 7.66711 88.6956 8.69349 88.6956 10.013C88.6956 11.2154 89.4233 12.0366 90.5154 12.0366H90.5715C91.7754 12.0366 92.8118 11.1859 92.8397 9.69031C92.8397 8.51738 92.0834 7.66711 90.9074 7.66711Z" fill="black"/>
<path fill-rule="evenodd" clip-rule="evenodd" d="M85.5031 28.1359H89.3675L91.9995 13.7959H88.1076L85.5031 28.1359Z" fill="black"/>
<path fill-rule="evenodd" clip-rule="evenodd" d="M101.827 13.7664H99.1398L99.2801 13.0919C99.5037 11.7137 100.288 10.482 101.576 10.482C102.079 10.482 102.472 10.5699 102.808 10.6873L103.564 7.52031C103.116 7.31503 102.416 7.16809 101.464 7.16809C100.091 7.16809 98.7197 7.57902 97.6832 8.51713C96.367 9.69006 95.7515 11.391 95.4437 13.0919L95.3314 13.7664H93.5394L92.9792 16.816H94.7711L92.7271 28.1356H96.5915L98.6356 16.816H101.296L101.827 13.7664Z" fill="black"/>
<path fill-rule="evenodd" clip-rule="evenodd" d="M111.124 13.7959L108.772 20.2181C108.212 21.7724 107.931 22.6813 107.624 23.649H107.568C107.512 22.7109 107.4 21.6841 107.232 20.2476L106.616 13.7959H102.556L104.88 26.963C104.936 27.2561 104.908 27.4318 104.796 27.6371C104.348 28.5464 103.592 29.4263 102.696 30.0712C101.968 30.6283 101.156 30.9802 100.512 31.215L101.576 34.646C102.36 34.4698 103.984 33.7953 105.356 32.4466C107.12 30.7162 108.744 28.0477 110.424 24.4114L115.156 13.7959H111.124Z" fill="black"/>
<path fill-rule="evenodd" clip-rule="evenodd" d="M38.5429 51.5157C39.1577 52.0133 40.0516 52.3057 41.1409 52.3057C44.6889 52.3057 47.147 47.0398 47.147 43.4411C47.147 41.7734 46.5326 39.901 44.549 39.901C42.6496 39.901 40.163 42.4465 39.409 46.6883L38.5429 51.5157ZM36.0288 59.1646L38.7107 44.0672C39.0459 42.2239 39.2973 40.6071 39.4647 39.0921H40.61L40.1912 42.122H40.247C41.4483 40.2284 43.1245 38.8903 44.9124 38.8903C47.4544 38.8903 48.404 41.0926 48.404 43.404C48.404 48.1431 45.3033 53.5939 41.0291 53.5939C39.7164 53.5939 38.8503 53.1053 38.3473 53.1053H38.2915L37.2301 59.1646H36.0288Z" fill="black"/>
<path fill-rule="evenodd" clip-rule="evenodd" d="M59.2995 40.1058C58.9921 39.9887 58.5172 39.9009 57.6789 39.9009C53.8239 39.9009 50.8068 44.4063 50.7789 48.8243C50.751 50.6672 51.2538 52.3056 53.0695 52.3056C55.2487 52.3056 57.7072 48.8826 58.3495 45.2547L59.2995 40.1058ZM57.5116 53.483C57.4834 52.3468 57.6512 51.2106 57.8469 49.6961H57.7907C56.2542 52.7259 54.5505 53.5898 52.7904 53.5898C50.7511 53.5898 49.5219 51.748 49.5219 49.2317C49.5219 44.4339 52.7904 38.832 57.9864 38.832C58.936 38.832 59.9978 38.9563 60.6962 39.2199L59.2713 46.9369C58.7965 49.5699 58.629 51.9685 58.6848 53.483H57.5116Z" fill="black"/>
<path fill-rule="evenodd" clip-rule="evenodd" d="M61.5623 53.4831L63.2663 43.859C63.6016 42.0745 63.7972 40.6064 63.909 39.0915H64.9985C64.9147 40.2277 64.8029 40.9852 64.6351 42.5001H64.6911C65.5013 40.6064 66.8422 38.962 68.5184 38.962C68.6858 38.962 68.8814 38.9048 69.021 38.9048L68.7697 40.2073C68.658 40.1781 68.5184 40.1565 68.3228 40.1565C66.5627 40.1565 64.6073 43.1042 64.0486 46.1761L62.7637 53.4831H61.5623Z" fill="black"/>
<path fill-rule="evenodd" clip-rule="evenodd" d="M74.5241 36.0144L73.9376 39.0916H77.0943L76.8708 40.2278H73.714L72.2335 48.563C72.0657 49.4992 71.954 50.215 71.954 50.9751C71.954 51.7943 72.3174 52.2841 73.1553 52.2841C73.6023 52.2841 73.8814 52.2507 74.1332 52.1628L74.2167 53.1851C73.8536 53.3017 73.3788 53.3888 72.9039 53.3888C71.3113 53.3888 70.6969 52.2765 70.6969 51.1066C70.6969 50.3457 70.7808 49.6457 71.0043 48.5634L72.5126 40.2278H70.5852L70.7808 39.0916H72.7361L73.1831 36.5727L74.5241 36.0144Z" fill="black"/>
<path fill-rule="evenodd" clip-rule="evenodd" d="M76.9265 53.4834L78.7144 43.3913C79.0218 41.7236 79.1893 40.228 79.301 39.0919H80.4463L80.0553 42.1217H80.1111C81.2846 40.228 82.9608 38.8756 84.8044 38.8756C86.1172 38.8756 87.7937 39.71 87.7937 42.3721C87.7937 43.0746 87.682 43.9344 87.542 44.6952L86.0058 53.4834H84.8044L86.3688 44.6737C86.4806 44.0302 86.5645 43.267 86.5645 42.5361C86.5645 41.073 86.0058 39.975 84.3574 39.975C82.5695 39.975 80.0275 42.4724 79.4405 45.8663L78.1279 53.4834H76.9265Z" fill="black"/>
<path fill-rule="evenodd" clip-rule="evenodd" d="M98.0668 41.89C98.0668 40.6027 97.2043 39.9005 95.947 39.9005C93.8796 39.9005 92.0481 42.2411 91.2102 45.2839C94.7018 45.313 98.0668 44.6987 98.0668 41.9192V41.89ZM97.4868 52.3345C96.7889 52.8322 95.5036 53.3881 93.8281 53.3881C90.6988 53.3881 89.6092 50.8135 89.6092 48.1215C89.6092 44.0842 92.3189 38.7891 96.1462 38.7891C98.353 38.7891 99.2754 40.2809 99.2754 41.861C99.2754 45.4301 95.3642 46.4247 90.978 46.3956C90.8384 47.0394 90.8105 48.8824 91.0897 49.9064C91.5649 51.4861 92.5984 52.2761 94.0236 52.2761C95.5036 52.2761 96.5092 51.7202 97.1238 51.3399L97.4868 52.3345Z" fill="black"/>
<path fill-rule="evenodd" clip-rule="evenodd" d="M100.086 53.4831L101.789 43.859C102.125 42.0745 102.32 40.6064 102.432 39.0915H103.522C103.437 40.2277 103.326 40.9852 103.159 42.5001H103.215C104.025 40.6064 105.365 38.962 107.041 38.962C107.209 38.962 107.405 38.9048 107.544 38.9048L107.293 40.2073C107.181 40.1781 107.041 40.1565 106.846 40.1565C105.086 40.1565 103.131 43.1042 102.572 46.1761L101.287 53.4831H100.086Z" fill="black"/>
<path fill-rule="evenodd" clip-rule="evenodd" d="M107.125 51.4861C107.6 51.8663 108.494 52.2761 109.472 52.2761C111.232 52.2761 112.433 50.9593 112.433 49.3505C112.433 47.9461 111.875 47.0977 110.617 46.2494C109.276 45.3423 108.55 44.0842 108.55 42.768C108.55 40.5737 110.254 38.7891 112.629 38.7891C113.55 38.7891 114.444 39.0815 114.835 39.4034L114.388 40.4857C113.969 40.2226 113.271 39.9007 112.489 39.9007C110.869 39.9007 109.779 41.1001 109.779 42.5336C109.779 43.8504 110.505 44.5818 111.595 45.3718C112.88 46.2786 113.662 47.5658 113.662 48.9994C113.662 51.8372 111.679 53.3881 109.36 53.3881C108.159 53.3881 107.097 52.9196 106.65 52.5394L107.125 51.4861Z" fill="black"/>
</g>
<defs>
<clipPath id="clip0">
<rect width="116" height="60" fill="white"/>
</clipPath>
</defs>
</svg>
