<svg width="99" height="114" viewBox="0 0 99 114" fill="none" xmlns="http://www.w3.org/2000/svg">
<g clip-path="url(#clip0)">
<path d="M4.13385 88.9201L47.1064 110.743L88.447 88.9201V3.58301H4.13385V88.9201Z" fill="white"/>
<path d="M89.3176 3.90869L3.26373 90.4401L47.8681 112.48L89.3176 91.3087V3.90869Z" fill="#F2F3F2"/>
<path d="M1.30573 32.0288V90.766L2.8288 91.526L45.8013 113.349L47.1068 114L48.4123 113.349L89.8618 91.526L91.3848 90.766V0.760254H1.30573V32.0288ZM4.1343 89.1374V3.58312H88.5563V89.1374L47.1068 110.96L4.1343 89.1374Z" fill="#DCDEDC"/>
<path d="M46.3451 4.99454C46.7802 4.99454 47.2154 4.99454 47.6506 5.10312L46.3451 7.60026C44.3868 7.49169 42.6462 9.01169 42.5374 10.966C42.4286 12.9203 43.9517 14.6574 45.9099 14.766H46.3451C47.2154 14.766 48.0857 14.4403 48.7385 13.8974L50.1528 16.286C49.0649 17.046 47.7594 17.4803 46.3451 17.4803C42.8638 17.5888 39.9264 14.9831 39.8176 11.5088C39.7088 8.03454 42.3198 5.10312 45.8011 4.99454H46.3451ZM50.8055 10.3145L52.4374 13.0288L50.8055 15.6345L49.2824 13.0288H46.1275L47.7594 10.3145H50.8055ZM48.1945 9.3374C48.1945 8.90312 48.3033 8.46883 48.5209 8.14312C48.7385 7.8174 49.1736 7.49169 49.5 7.27454L49.7176 7.16597C50.1528 6.94883 50.2616 6.84026 50.2616 6.62312C50.2616 6.40597 49.9352 6.18883 49.7176 6.18883C49.2824 6.18883 48.9561 6.40597 48.7385 6.84026L48.1945 6.2974C48.3033 6.08026 48.5209 5.86312 48.7385 5.64597C49.0649 5.42883 49.3912 5.42883 49.7176 5.42883C50.044 5.42883 50.4791 5.5374 50.6967 5.75454C50.9143 5.97169 51.1319 6.2974 51.1319 6.62312C51.1319 7.16597 50.8055 7.60026 50.1528 7.8174L49.8264 8.03454C49.5 8.25168 49.2824 8.36026 49.1736 8.68597H51.1319V9.44597L48.1945 9.3374ZM46.3451 22.9088L56.6802 17.046V0.760254H35.9011V16.9374L46.3451 22.9088Z" fill="#FF492C"/>
<path d="M20.6701 44.623V35.0687C20.6701 34.9601 20.7789 34.8516 20.8877 34.8516H23.3899C23.4987 34.8516 23.6075 34.9601 23.6075 35.0687V44.623C23.6075 46.0344 24.5866 47.1201 26.1097 47.1201C27.6327 47.1201 28.6119 46.143 28.6119 44.623V35.0687C28.6119 34.9601 28.7206 34.8516 28.8294 34.8516H31.3316C31.4404 34.8516 31.5492 34.9601 31.5492 35.0687V44.623C31.5492 47.663 29.3734 49.6173 26.1097 49.6173C22.8459 49.6173 20.6701 47.5544 20.6701 44.623ZM33.3987 46.4687V46.2516C33.3987 46.143 33.5075 46.0344 33.6162 46.0344H35.9009C36.0097 46.0344 36.1184 46.143 36.1184 46.2516C36.1184 46.903 36.88 47.3373 37.9679 47.3373C38.947 47.3373 39.5998 46.903 39.5998 46.3601C39.5998 45.4916 37.9679 45.4916 36.4448 44.9487C35.0305 44.5144 33.5075 43.7544 33.5075 41.9087C33.5075 39.8458 35.2481 38.543 37.9679 38.543C40.6877 38.543 42.4283 39.9544 42.4283 41.9087C42.4283 42.0173 42.3195 42.1258 42.2108 42.1258H39.9261C39.8173 42.1258 39.7086 42.0173 39.7086 41.9087C39.7086 41.2573 39.0558 40.823 37.9679 40.823C37.0976 40.823 36.4448 41.1487 36.4448 41.8001C36.4448 42.6687 37.8591 42.6687 39.491 43.2116C41.1228 43.6458 42.7547 44.4058 42.7547 46.3601C42.7547 48.423 40.9053 49.6173 38.1855 49.6173C35.2481 49.6173 33.3987 48.3144 33.3987 46.4687ZM53.9602 44.7316C53.9602 44.9487 53.8514 44.9487 53.6338 44.9487H47.1064C46.9976 44.9487 46.9976 44.9487 46.9976 45.0573C46.9976 45.383 47.1064 45.6001 47.2151 45.9258C47.5415 46.6858 48.1943 47.1201 49.391 47.1201C50.3701 47.1201 51.0228 46.6858 51.5668 46.0344C51.6756 45.9258 51.7844 45.8173 51.8932 46.0344L53.4162 47.5544C53.525 47.663 53.525 47.7716 53.4162 47.8801C52.4371 49.0744 50.914 49.7258 49.1734 49.7258C46.78 49.7258 45.1481 48.5316 44.3866 46.5773C44.0602 45.8173 43.9514 45.0573 43.9514 43.9716C43.9514 43.2116 44.0602 42.4516 44.2778 41.8001C44.9305 39.8458 46.5624 38.543 48.847 38.543C51.6756 38.543 53.4162 40.3887 53.7426 42.9944C53.9602 43.5373 53.9602 44.0801 53.9602 44.7316ZM47.2151 42.2344C47.1064 42.4516 47.1064 42.6687 47.1064 42.8858C47.1064 42.9944 47.1064 42.9944 47.2151 42.9944H50.8053C50.914 42.9944 50.914 42.9944 50.914 42.8858C50.914 42.6687 50.8053 42.4516 50.8053 42.343C50.5877 41.4744 49.9349 41.0401 48.9558 41.0401C48.0855 41.0401 47.5415 41.4744 47.2151 42.2344ZM62.4459 38.8687C62.5547 38.9773 62.5547 39.0858 62.5547 39.1944L62.1195 41.583C62.1195 41.8001 62.0107 41.8001 61.7932 41.6916C61.4668 41.583 61.0316 41.583 60.5965 41.583C59.6173 41.6916 58.747 42.343 58.747 43.4287V49.183C58.747 49.2916 58.6382 49.4001 58.5294 49.4001H56.0272C55.9184 49.4001 55.8097 49.2916 55.8097 49.183V38.9773C55.8097 38.8687 55.9184 38.7601 56.0272 38.7601H58.5294C58.6382 38.7601 58.747 38.8687 58.747 38.9773V39.7373C58.747 39.8458 58.8558 39.8458 58.8558 39.8458C59.3998 39.0858 60.1613 38.543 61.1404 38.543C61.7932 38.543 62.1195 38.6516 62.4459 38.8687ZM63.3162 46.4687V46.2516C63.3162 46.143 63.425 46.0344 63.5338 46.0344H65.8184C65.9272 46.0344 66.036 46.143 66.036 46.2516C66.036 46.903 66.7976 47.3373 67.8855 47.3373C68.8646 47.3373 69.5173 46.903 69.5173 46.3601C69.5173 45.4916 67.8855 45.4916 66.3624 44.9487C64.9481 44.5144 63.425 43.7544 63.425 41.9087C63.425 39.8458 65.1657 38.543 67.8855 38.543C70.6053 38.543 72.3459 39.9544 72.3459 41.9087C72.3459 42.0173 72.2371 42.1258 72.1283 42.1258H69.8437C69.7349 42.1258 69.6261 42.0173 69.6261 41.9087C69.6261 41.2573 68.9734 40.823 67.8855 40.823C67.0151 40.823 66.3624 41.1487 66.3624 41.8001C66.3624 42.6687 67.7767 42.6687 69.4086 43.2116C71.0404 43.6458 72.6723 44.4058 72.6723 46.3601C72.6723 48.423 70.8228 49.6173 68.1031 49.6173C65.1657 49.6173 63.3162 48.3144 63.3162 46.4687ZM11.2053 66.7716V52.6573C11.2053 52.5487 11.3141 52.4401 11.4228 52.4401H13.925C14.0338 52.4401 14.1426 52.5487 14.1426 52.6573V64.383C14.1426 64.4916 14.1426 64.4916 14.2514 64.4916H21.1053C21.2141 64.4916 21.3228 64.6001 21.3228 64.7087V66.7716C21.3228 66.8801 21.2141 66.9887 21.1053 66.9887H11.4228C11.3141 66.9887 11.2053 66.8801 11.2053 66.7716ZM23.0635 63.7316C22.8459 63.0801 22.7371 62.3201 22.7371 61.5601C22.7371 60.8001 22.8459 59.9316 23.0635 59.3887C23.7162 57.3258 25.4569 56.1316 27.8503 56.1316C30.1349 56.1316 31.8756 57.4344 32.5283 59.3887C32.7459 60.0401 32.8547 60.8001 32.8547 61.5601C32.8547 62.3201 32.7459 63.0801 32.5283 63.623C31.8756 65.7944 30.1349 67.0973 27.8503 67.0973C25.4569 67.2058 23.6075 65.903 23.0635 63.7316ZM29.6998 63.0801C29.8086 62.6458 29.9173 62.103 29.9173 61.6687C29.9173 61.1258 29.8086 60.583 29.6998 60.1487C29.3734 59.1716 28.7206 58.6287 27.8503 58.6287C26.8712 58.6287 26.2184 59.1716 26.0009 60.1487C25.7833 60.4744 25.7833 61.0173 25.7833 61.6687C25.7833 62.2116 25.7833 62.7544 25.8921 63.0801C26.2184 64.0573 26.8712 64.6001 27.8503 64.6001C28.7206 64.7087 29.3734 64.0573 29.6998 63.0801ZM36.88 66.7716L33.5075 56.4573C33.3987 56.2401 33.5075 56.1316 33.725 56.1316H36.4448C36.5536 56.1316 36.6624 56.2401 36.7712 56.3487L38.5119 62.6458C38.5119 62.7544 38.6206 62.7544 38.6206 62.6458L40.3613 56.3487C40.3613 56.2401 40.4701 56.1316 40.6877 56.1316H43.4075C43.625 56.1316 43.7338 56.2401 43.625 56.4573L40.2525 66.663C40.2525 66.7716 40.1437 66.8801 39.9261 66.8801H37.2064C36.9888 66.9887 36.88 66.9887 36.88 66.7716ZM54.069 62.3201C54.069 62.5373 53.9602 62.5373 53.7426 62.5373H47.2151C47.1064 62.5373 47.1064 62.5373 47.1064 62.6458C47.1064 62.9716 47.2151 63.1887 47.3239 63.5144C47.6503 64.2744 48.3031 64.7087 49.4998 64.7087C50.4789 64.7087 51.1316 64.2744 51.6756 63.623C51.7844 63.5144 51.8932 63.4058 52.002 63.623L53.525 65.143C53.6338 65.2516 53.6338 65.3601 53.525 65.4687C52.5459 66.663 51.0228 67.3144 49.2822 67.3144C46.8888 67.3144 45.2569 66.1201 44.4954 64.1658C44.169 63.4058 44.0602 62.6458 44.0602 61.5601C44.0602 60.8001 44.169 60.0401 44.3866 59.3887C45.0393 57.4344 46.6712 56.1316 48.9558 56.1316C51.7844 56.1316 53.525 57.9773 53.8514 60.583C54.069 61.1258 54.069 61.6687 54.069 62.3201ZM47.3239 59.823C47.2151 60.0401 47.2151 60.2573 47.2151 60.4744C47.2151 60.583 47.2151 60.583 47.3239 60.583H50.914C51.0228 60.583 51.0228 60.583 51.0228 60.4744C51.0228 60.2573 50.914 60.0401 50.914 59.9316C50.6965 59.063 50.0437 58.6287 49.0646 58.6287C48.0855 58.6287 47.5415 59.063 47.3239 59.823ZM60.1613 62.2116V52.6573C60.1613 52.5487 60.2701 52.4401 60.3789 52.4401H62.8811C62.9899 52.4401 63.0987 52.5487 63.0987 52.6573V62.2116C63.0987 63.623 64.0778 64.7087 65.6009 64.7087C67.1239 64.7087 68.1031 63.7316 68.1031 62.2116V52.6573C68.1031 52.5487 68.2118 52.4401 68.3206 52.4401H70.8228C70.9316 52.4401 71.0404 52.5487 71.0404 52.6573V62.2116C71.0404 65.2516 68.8646 67.2058 65.6009 67.2058C62.3371 67.2058 60.1613 65.143 60.1613 62.2116ZM72.8899 64.0573V63.8401C72.8899 63.7316 72.9987 63.623 73.1074 63.623H75.3921C75.5009 63.623 75.6096 63.7316 75.6096 63.8401C75.6096 64.4916 76.3712 64.9258 77.4591 64.9258C78.4382 64.9258 79.091 64.4916 79.091 63.9487C79.091 63.0801 77.4591 63.0801 75.936 62.5373C74.5217 62.103 72.9987 61.343 72.9987 59.4973C72.9987 57.4344 74.7393 56.1316 77.4591 56.1316C80.1789 56.1316 81.9195 57.543 81.9195 59.4973C81.9195 59.6058 81.8108 59.7144 81.702 59.7144H79.4173C79.3085 59.7144 79.1998 59.6058 79.1998 59.4973C79.1998 58.8458 78.547 58.4116 77.4591 58.4116C76.5888 58.4116 75.936 58.7373 75.936 59.3887C75.936 60.2573 77.3503 60.2573 78.9822 60.8001C80.614 61.2344 82.2459 61.9944 82.2459 63.9487C82.2459 66.0116 80.3965 67.2058 77.6767 67.2058C74.7393 67.2058 72.8899 65.903 72.8899 64.0573Z" fill="#252530"/>
<path d="M16.3187 79.4746H38.077V80.3432H16.3187V79.4746ZM55.266 79.4746H77.0242V80.3432H55.266V79.4746Z" fill="#DCDEDC"/>
<path d="M41.449 78.4974L44.8216 77.9546L46.5622 74.5889L48.1941 77.846L51.7842 78.4974L49.282 80.9946L49.826 84.5774L46.5622 83.0574L43.2985 84.5774L43.7336 80.9946L41.449 78.4974Z" fill="#DCDEDC"/>
</g>
<defs>
<clipPath id="clip0">
<rect width="99" height="114" fill="white"/>
</clipPath>
</defs>
</svg>
