<svg width="86" height="133" viewBox="0 0 86 133" fill="none" xmlns="http://www.w3.org/2000/svg">
    <g clip-path="url(#a)">
        <path fill-rule="evenodd" clip-rule="evenodd" d="M11.178 131.554c.265.31.817.506 1.33.547.057.165.111.333.156.506.586-.25 1.11-.448 1.582-.625.903-.341 1.616-.611 2.214-1.035 2.002-1.421 3.963-2.925 5.767-4.575 2.383-2.182 4.645-4.494 6.844-6.854.404-.432.505-1.446.283-2.02-.16-.412-1.308-.913-1.646-.728-1.516.829-3.02 1.757-4.307 2.888-2.689 2.368-5.306 4.813-7.922 7.259l-.329.306c-.929-6.327.173-12.479 2.404-18.312 1.31-3.427 3.005-6.706 4.7-9.985a218.965 218.965 0 0 0 2.284-4.505c.296-.609.572-1.23.849-1.85.53-1.191 1.06-2.382 1.734-3.484.826-1.352 1.742-2.648 2.658-3.944.736-1.043 1.473-2.085 2.164-3.157 4.053-6.293 9.45-11.326 14.988-16.218 1.33-1.175 2.115-1.28 2.553 1.08.234 1.259.404 2.525.574 3.79.525 3.915 1.048 7.822 3.468 11.465 3.96 5.962 8.344 9.944 15.906 9.82 5.418-.09 10.612-2.314 13.53-8.222 6.113-12.373-1.234-23.75-13.58-27.088-4.674-1.264-9.304-.992-13.893.473l-.134.043c-1.1.355-2.264.73-1.927-1.3.128-.768.233-1.543.338-2.318.25-1.832.499-3.665 1.041-5.404a239.946 239.946 0 0 1 5.456-15.536c1.007-2.586 2.438-5.026 3.854-7.426l.887-1.506c1.913-3.26 3.833-6.529 6.054-9.567 1.813-2.478 3.834-4.802 5.856-7.125.963-1.108 1.927-2.215 2.867-3.34l.008-.008c.332-.397.72-.861.787-1.335.073-.518.019-1.054-.036-1.59-.023-.225-.046-.45-.06-.674a6.226 6.226 0 0 1-.699.067c-.52.03-1.04.06-1.327.336-3.005 2.88-5.995 5.784-8.807 8.85-.864.943-1.575 2.024-2.288 3.106-.491.747-.983 1.494-1.526 2.198-.495.642-1.01 1.265-1.522 1.887-1.644 1.994-3.28 3.977-4.264 6.531-.53 1.377-1.373 2.633-2.216 3.888-.835 1.244-1.67 2.488-2.202 3.852a106.656 106.656 0 0 0-4.333 13.847c-.718 2.99-1.149 6.05-1.58 9.11a220.33 220.33 0 0 1-.59 4.023 5.214 5.214 0 0 0-.045.63c-.016.46-.031.917-.267 1.137a725.4 725.4 0 0 0-.65.609h-.001c-1.932 1.809-3.873 3.627-5.998 5.181-5.12 3.743-9.668 8.141-13.074 13.405-5.492 8.488-10.273 17.377-13.934 26.909-2.003 5.217-3.646 10.3-3.632 15.92.084.699.16 1.401.235 2.103.107.992.215 1.985.344 2.972a15.983 15.983 0 0 0-.45-.681c-2.051-2.941-4.188-5.819-6.325-8.696l-.005-.006c-.494-.665-.989-1.331-1.482-1.997a17.012 17.012 0 0 1-.236-.329c-.393-.552-.808-1.137-1.346-1.364-.386-.164-.888-.04-1.444.096a8.856 8.856 0 0 1-.816.174c.183.611.322 1.156.447 1.646.24.938.429 1.68.784 2.323 1.19 2.152 2.466 4.273 3.905 6.252 1.9 2.615 3.945 5.124 6.042 7.575zm44.133-70.15c5.437-1.83 10.688-2.589 16.37.16 5.474 2.647 8.519 6.617 9.778 12.269.884 3.974-2.344 10.699-6.023 12.486-1.578.766-3.247 1.345-4.899 1.919-.74.257-1.475.512-2.199.783a24.786 24.786 0 0 0-1.813-.496c-1.215-.298-2.318-.57-3.122-1.216l-.71-.566-.002-.002c-2.29-1.823-4.714-3.754-6.01-6.203-1.155-2.184-1.618-4.744-2.08-7.297-.18-1-.36-1.997-.582-2.971-.149-.652-.24-1.318-.332-1.983-.112-.812-.224-1.624-.439-2.408-.59-2.153.035-3.793 2.063-4.476z" fill="#000"/>
    </g>
    <defs>
        <clipPath id="a">
            <path fill="#fff" d="M0 0h86v133H0z"/>
        </clipPath>
    </defs>
</svg>
