<svg width="1440" height="896" viewBox="0 0 1440 896" fill="none" xmlns="http://www.w3.org/2000/svg">
    <g clip-path="url(#a)">
        <path fill="#FFD2D2" d="M0 0h1440v896H0z"/>
        <path fill-rule="evenodd" clip-rule="evenodd" d="M8.07 266.374c.862-.379 1.77-2.953 1.896-4.726.082-1.175-1.173-2.619-2.387-5.076-1.09 3.107-2.194 4.953-2.227 6.855-.018 1.035 1.957 3.279 2.718 2.947z" fill="#fff"/>
        <path fill-rule="evenodd" clip-rule="evenodd" d="M.734 277.834c-1.587-1.955-2.95-4.34-3.379-4.022-1.172.866-2.097 2.757-2.768 4.528-.15.394 1.32 2.969 1.755 2.812 1.322-.476 2.502-1.8 4.392-3.318z" fill="#fff"/>
        <path fill-rule="evenodd" clip-rule="evenodd" d="M22.286 276.87c-2.22-1.546-3.592-3.339-4.73-3.058-1.113.275-1.989 2.664-2.968 4.125 1.185 1.163 2.366 3.217 3.552 3.222 1.102.006 2.212-2.168 4.146-4.289z" fill="#fff"/>
        <path fill-rule="evenodd" clip-rule="evenodd" d="M14.589 311.939c1.101 1.318 2.228 3.707 3.296 3.641 1.035-.062 2.686-2.489 2.84-4.17.189-2.044-.905-4.392-1.814-8.121-2.64 5.286-3.481 6.968-4.322 8.65z" fill="#fff"/>
        <path fill-rule="evenodd" clip-rule="evenodd" d="M.734 311.891c-1.674-1.77-3.177-3.999-3.567-3.648-1.138 1.034-1.959 3.006-2.586 4.84-.11.324 1.51 2.697 1.986 2.485 1.293-.574 2.401-2.029 4.167-3.677z" fill="#fff"/>
        <path fill-rule="evenodd" clip-rule="evenodd" d="M40.758 311.597c-.045-1.255-1.473-3.561-1.97-3.381-1.214.446-2.245 2.057-4.187 4.066 2.134 1.655 3.306 3.043 4.578 3.298.45.088 1.628-2.625 1.579-3.983z" fill="#fff"/>
        <path fill-rule="evenodd" clip-rule="evenodd" d="M11.51 296.151c-.435-1.079-.868-2.159-1.302-3.239-.704-.679-1.666-2.206-2.064-1.87-1.06.888-1.878 2.584-2.792 3.959.802 1.196 1.596 3.346 2.409 3.369 1.244.032 2.498-1.407 3.749-2.219z" fill="#fff"/>
        <path fill-rule="evenodd" clip-rule="evenodd" d="M31.523 294.538c-1.54-1.811-2.46-3.713-3.162-3.531-1.077.278-2.005 1.991-2.996 3.093.7 1.518 1.454 4.333 2.092 4.27 1.145-.114 2.218-1.957 4.066-3.832z" fill="#fff"/>
        <path fill-rule="evenodd" clip-rule="evenodd" d="M36.142 345.247c.03 1.625 1.333 3.174 2.065 4.757.873-1.746 1.95-3.298 2.518-5.338.221-.792-.7-2.686-1.1-4.081L37.4 337.71c-.463 2.514-1.3 5.054-1.258 7.537z" fill="#fff"/>
        <path fill-rule="evenodd" clip-rule="evenodd" d="M14.589 346.118c1.049 1.399 2.107 3.914 3.143 3.886 1.018-.029 2.012-2.637 3.014-4.115-.903-1.632-1.805-3.264-3.168-5.721l-2.99 5.95z" fill="#fff"/>
        <path fill-rule="evenodd" clip-rule="evenodd" d="M.734 377.973c-1.74-1.749-2.707-3.546-3.576-3.371-.91.188-1.725 2.267-2.582 3.521.832 2.102 1.665 4.202 2.499 6.303a5534.5 5534.5 0 0 1 3.659-6.453z" fill="#fff"/>
        <path fill-rule="evenodd" clip-rule="evenodd" d="M18 377.05c-1.17.053-2.277 1.479-3.412 2.306 1.035.923 1.99 2.458 3.125 2.6 1.128.139 2.437-1.126 4.573-2.255-1.996-1.311-3.175-2.699-4.286-2.651z" fill="#fff"/>
        <path fill-rule="evenodd" clip-rule="evenodd" d="M36.143 380.913c-.074.941 1.703 2.326 2.638 3.513.696-1.979 1.576-3.854 1.971-6.001.113-.612-1.166-2.004-2.298-3.835-1.023 2.588-2.15 4.34-2.31 6.323z" fill="#fff"/>
        <path fill-rule="evenodd" clip-rule="evenodd" d="M62.287 379.264c.194-.703-.806-2.382-1.651-4.674-1.323 2.404-2.57 3.808-2.93 5.707-.168.874 1.393 2.72 2.168 4.129.839-1.693 1.876-3.222 2.413-5.162z" fill="#fff"/>
        <path fill-rule="evenodd" clip-rule="evenodd" d="M82.3 379.541c.208-.811-.99-2.748-1.853-4.951-1.284 1.853-2.847 3.381-2.736 4.086.33 2.089 1.318 3.857 2.049 5.75.889-1.596 2.049-2.971 2.54-4.885z" fill="#fff"/>
        <path fill-rule="evenodd" clip-rule="evenodd" d="M9.96 362.278c-.386-1.537-1.326-2.829-2.401-4.899-1.062 2.07-2.418 3.92-2.18 4.404.662 1.343 1.936 2.257 3.1 2.967.194.118 1.629-1.888 1.48-2.472z" fill="#fff"/>
        <path fill-rule="evenodd" clip-rule="evenodd" d="M27.28 364.736c1.081-.837 2.212-2.051 2.69-3.484.177-.531-1.397-2.057-2.709-3.873-.877 2.367-1.64 3.846-1.894 5.464-.076.479 1.627 2.113 1.913 1.893z" fill="#fff"/>
        <path fill-rule="evenodd" clip-rule="evenodd" d="M51.535 361.375c-.584-1.419-1.308-4.157-1.722-3.988-.929.381-1.702 2.212-2.896 3.982.922 1.674 1.62 3.586 1.922 3.37.978-.701 1.809-2.183 2.697-3.364z" fill="#fff"/>
        <path fill-rule="evenodd" clip-rule="evenodd" d="M73.088 361.482c-.964-1.172-1.927-2.347-3.368-4.103l-2.79 4.651c1.096.987 2.228 2.797 3.28 2.723 1.003-.07 1.922-2.101 2.878-3.271z" fill="#fff"/>
        <path fill-rule="evenodd" clip-rule="evenodd" d="M59.61 349.97c1.159-.901 2.048-2.83 2.693-4.62.138-.382-1.401-2.891-1.846-2.714-1.315.522-2.47 1.904-4.303 3.479 1.618 1.868 3.021 4.194 3.455 3.855z" fill="#fff"/>
        <path fill-rule="evenodd" clip-rule="evenodd" d="M9.97 327.978c.02-1.653-1.556-3.346-2.434-5.02l-3.723 4.764 3.58 5.071c.925-1.605 2.56-3.19 2.577-4.815z" fill="#fff"/>
        <path fill-rule="evenodd" clip-rule="evenodd" d="M29.015 322.958c-.753 1.487-2.05 2.895-2.108 4.488-.065 1.69 1.045 3.557 1.642 5.347.851-1.23 1.703-2.455 2.974-4.292-1.075-2.376-1.79-3.959-2.508-5.543z" fill="#fff"/>
        <path fill-rule="evenodd" clip-rule="evenodd" d="M51.533 327.435c-.06-1.588-1.36-2.99-2.115-4.477-.713 1.586-1.428 3.172-2.5 5.558l2.971 4.277c.599-1.794 1.707-3.662 1.644-5.358z" fill="#fff"/>
        <path fill-rule="evenodd" clip-rule="evenodd" d="M.734 412.094l-3.34-5.54c-1.004 1.485-2.739 2.896-2.815 4.478-.079 1.701 1.4 3.565 2.198 5.357l3.957-4.295z" fill="#fff"/>
        <path fill-rule="evenodd" clip-rule="evenodd" d="M9.936 462.643c.222-.786-.698-2.674-1.098-4.06l-2.215-2.854c-.468 2.507-1.31 5.034-1.27 7.511.028 1.631 1.328 3.191 2.059 4.782.876-1.762 1.95-3.33 2.524-5.379z" fill="#fff"/>
        <path fill-rule="evenodd" clip-rule="evenodd" d="M49.089 465.562c.822-.013 1.631-2.191 2.447-3.402-.74-1.369-1.347-3.36-2.265-3.906-.675-.4-1.76 1.087-2.662 1.734l-1.231 3.236c1.237.854 2.478 2.357 3.71 2.338z" fill="#fff"/>
        <path fill-rule="evenodd" clip-rule="evenodd" d="M33.062 463.27c-.528-1.103-1.055-2.205-1.584-3.307-1.122-.636-2.472-2.112-3.31-1.706-1.14.554-1.887 2.546-2.803 3.921 1.016 1.203 2.023 3.368 3.051 3.384 1.54.027 3.097-1.451 4.646-2.292z" fill="#fff"/>
        <path fill-rule="evenodd" clip-rule="evenodd" d="M73.088 462.283c-.964-1.169-1.926-2.341-3.37-4.096-1.193 1.985-1.99 3.315-2.788 4.646 1.097.99 2.228 2.801 3.28 2.728 1.002-.071 1.922-2.106 2.878-3.278z" fill="#fff"/>
        <path fill-rule="evenodd" clip-rule="evenodd" d="M93.1 463.152c-.847-1.233-1.488-2.616-1.773-2.499-1.013.41-1.906 1.333-2.845 2.062.55 1.011 1.194 2.926 1.629 2.846.944-.17 1.783-1.356 2.99-2.409z" fill="#fff"/>
        <path fill-rule="evenodd" clip-rule="evenodd" d="M13.05 444.799c2.104 1.768 3.38 3.71 4.508 3.543 1.138-.171 2.132-2.436 3.188-3.784-1.103-1.279-2.168-3.467-3.323-3.577-1.122-.106-2.335 1.924-4.374 3.818z" fill="#fff"/>
        <path fill-rule="evenodd" clip-rule="evenodd" d="M40.751 443.542c.117-1.105-1.063-2.573-2.189-5.024-1.187 2.959-2.344 4.667-2.42 6.497-.043 1.009 1.729 2.218 2.682 3.336.687-1.589 1.745-3.076 1.927-4.809z" fill="#fff"/>
        <path fill-rule="evenodd" clip-rule="evenodd" d="M62.311 445.446c-1.145-2.001-1.837-3.946-2.736-4.454-.42-.237-1.242 2.304-1.882 3.589.819 1.303 1.568 2.921 2.495 3.74.32.283 1.09-1.418 2.123-2.875z" fill="#fff"/>
        <path fill-rule="evenodd" clip-rule="evenodd" d="M83.864 444.67c-1.678-1.774-3.155-4.018-3.58-3.654-1.137.976-1.955 2.974-2.573 4.799-.113.339 1.508 2.735 1.99 2.524 1.293-.564 2.4-2.022 4.163-3.669z" fill="#fff"/>
        <path fill-rule="evenodd" clip-rule="evenodd" d="M28.972 433.6c.724.029 1.475-2.154 2.55-3.919-1.219-1.602-2.088-3.623-2.807-3.447-.73.179-1.864 2.613-1.809 3.9.058 1.344 1.315 3.436 2.066 3.466z" fill="#fff"/>
        <path fill-rule="evenodd" clip-rule="evenodd" d="M9.964 428.793c.12-.349-1.478-2.759-1.937-2.557-1.319.581-2.459 2.014-4.214 3.604 1.662 1.807 3.135 4.073 3.543 3.723 1.142-.984 1.981-2.951 2.608-4.77z" fill="#fff"/>
        <path fill-rule="evenodd" clip-rule="evenodd" d="M51.532 430.187c-.224-1.96-1.318-3.627-3.505-8.88-.604 3.456-1.291 5.248-1.066 6.606.339 2.054 1.312 3.806 2.016 5.687.907-1.156 2.65-2.59 2.555-3.413z" fill="#fff"/>
        <path fill-rule="evenodd" clip-rule="evenodd" d="M74.627 429.914c-2.069-1.832-3.312-3.817-4.438-3.683-1.146.137-2.178 2.359-3.26 3.668 1.085 1.318 2.114 3.548 3.268 3.693 1.12.142 2.366-1.849 4.43-3.678z" fill="#fff"/>
        <path fill-rule="evenodd" clip-rule="evenodd" d="M93.1 429.973c-.843-1.838-1.485-3.913-1.773-3.739-1.014.617-1.906 2.001-2.845 3.097.55 1.514 1.182 4.375 1.63 4.266.932-.225 1.767-2.019 2.988-3.624z" fill="#fff"/>
        <path fill-rule="evenodd" clip-rule="evenodd" d="M18.477 409.014c-1.06.057-2.077 1.888-3.888 3.759 1.421 1.57 2.526 3.734 3.502 3.612 1-.128 2.192-2.302 2.643-3.977.173-.654-1.48-3.437-2.257-3.394z" fill="#fff"/>
        <path fill-rule="evenodd" clip-rule="evenodd" d="M40.756 411.018c-.073-1.576-1.806-2.983-2.807-4.464l-3.348 5.54 3.967 4.295c.794-1.797 2.267-3.664 2.188-5.371z" fill="#fff"/>
        <path fill-rule="evenodd" clip-rule="evenodd" d="M62.311 411.481a4534.183 4534.183 0 0 0-2.738-4.927c-.676 1.64-1.882 3.279-1.88 4.918.002 1.641 1.208 3.279 1.887 4.917l2.731-4.908z" fill="#fff"/>
        <path fill-rule="evenodd" clip-rule="evenodd" d="M82.311 412.508c.147-1.469-1.001-3.188-2.002-5.954-1.286 2.512-2.624 3.978-2.603 5.402.024 1.498 1.35 2.957 2.107 4.433.886-1.284 2.357-2.455 2.498-3.881z" fill="#fff"/>
        <path fill-rule="evenodd" clip-rule="evenodd" d="M28.674 399.178c.964-.025 1.9-2.199 2.849-3.432-.838-1.402-1.602-3.788-2.53-3.937-.957-.15-2.072 1.877-3.628 3.476 1.397 1.755 2.367 3.917 3.309 3.893z" fill="#fff"/>
        <path fill-rule="evenodd" clip-rule="evenodd" d="M5.352 394.916c.549 1.51 1.192 4.377 1.625 4.258.94-.253 1.772-2.029 2.993-3.636-.84-1.827-1.484-3.9-1.767-3.726-1.017.623-1.91 2.008-2.851 3.104z" fill="#fff"/>
        <path fill-rule="evenodd" clip-rule="evenodd" d="M51.52 394.58c.186-.773-1.382-2.817-2.656-5.237-.9 3.135-1.68 5.082-1.944 7.223-.081.654 1.601 2.868 1.877 2.587 1.09-1.1 2.266-2.675 2.723-4.573z" fill="#fff"/>
        <path fill-rule="evenodd" clip-rule="evenodd" d="M73.088 395.383c-1.105-1.279-2.172-3.467-3.328-3.577-1.121-.107-2.334 1.923-4.37 3.82 2.103 1.767 3.378 3.714 4.504 3.541 1.142-.172 2.136-2.437 3.194-3.784z" fill="#fff"/>
        <path fill-rule="evenodd" clip-rule="evenodd" d="M17.919 878.632c-1.16.114-2.224 2.3-3.33 3.58 1.06 1.348 2.057 3.625 3.193 3.783 1.14.162 2.42-1.787 4.504-3.541-2.036-1.899-3.25-3.929-4.367-3.822z" fill="#fff"/>
        <path fill-rule="evenodd" clip-rule="evenodd" d="M40.725 880.652c.222-.801-.694-2.692-1.09-4.086-.738-.95-1.477-1.904-2.218-2.854-.469 2.509-1.314 5.041-1.275 7.524.025 1.624 1.332 3.183 2.065 4.769.873-1.753 1.95-3.309 2.518-5.353z" fill="#fff"/>
        <path fill-rule="evenodd" clip-rule="evenodd" d="M166.974 880.691c.176-.682-.886-2.323-1.794-4.521-1.254 2.439-2.467 3.908-2.795 5.828-.15.878 1.445 2.645 2.249 4.007.816-1.744 1.827-3.336 2.34-5.314z" fill="#fff"/>
        <path fill-rule="evenodd" clip-rule="evenodd" d="M142.446 886c.956-.297 1.792-2.055 2.995-3.64-.838-1.822-1.482-3.893-1.766-3.721-1.017.623-1.911 2.004-2.852 3.1.549 1.513 1.211 4.392 1.623 4.261z" fill="#fff"/>
        <path fill-rule="evenodd" clip-rule="evenodd" d="M119.271 881.998c1.026 1.442 2.053 4.007 3.079 4.007 1.026 0 2.052-2.565 3.079-4.007-.88-1.663-1.759-3.33-3.079-5.828-1.319 2.498-2.199 4.165-3.079 5.828z" fill="#fff"/>
        <path fill-rule="evenodd" clip-rule="evenodd" d="M101.758 886.005c.752-1.856 1.764-3.574 2.112-5.643.122-.723-1.396-2.306-2.614-4.192-.92 2.15-2.17 4.038-1.978 4.825.475 1.939 1.611 3.373 2.48 5.01z" fill="#fff"/>
        <path fill-rule="evenodd" clip-rule="evenodd" d="M60.51 878.677c-1.066.895-1.895 2.588-2.817 3.964.805 1.195 1.605 3.348 2.419 3.364 1.24.024 2.492-1.429 3.739-2.257-.428-1.07-.854-2.142-1.28-3.21-.704-.676-1.66-2.196-2.061-1.861z" fill="#fff"/>
        <path fill-rule="evenodd" clip-rule="evenodd" d="M77.726 881c.472 1.937 1.61 3.368 2.479 5.005.75-1.856 1.764-3.576 2.112-5.643.122-.723-1.393-2.303-2.613-4.192-.922 2.154-2.172 4.037-1.978 4.83z" fill="#fff"/>
        <path fill-rule="evenodd" clip-rule="evenodd" d="M9.955 863.672c-.425-1.511-1.422-2.737-2.553-4.713-.982 2.161-2.274 4.13-2.017 4.603.714 1.305 2.032 2.123 3.222 2.769.18.098 1.52-2.041 1.348-2.659z" fill="#fff"/>
        <path fill-rule="evenodd" clip-rule="evenodd" d="M31.523 862.984c-1.583-1.936-2.931-4.316-3.379-3.996-1.17.836-2.11 2.72-2.768 4.481-.154.415 1.338 3.019 1.776 2.859 1.32-.476 2.494-1.816 4.37-3.344z" fill="#fff"/>
        <path fill-rule="evenodd" clip-rule="evenodd" d="M69.56 866.335c1.18-.008 2.352-2.056 3.528-3.217-.977-1.463-1.847-3.857-2.959-4.13-1.136-.28-2.503 1.517-4.739 3.082 1.954 2.118 3.064 4.274 4.17 4.265z" fill="#fff"/>
        <path fill-rule="evenodd" clip-rule="evenodd" d="M51.535 862.511c-.65-1.265-1.503-3.79-1.91-3.533-.902.566-1.58 2.53-2.708 4.576 1.056 1.398 1.834 3.046 2.164 2.745.917-.83 1.65-2.469 2.454-3.788z" fill="#fff"/>
        <path fill-rule="evenodd" clip-rule="evenodd" d="M93.09 862.822c.132-.84-1.022-1.98-2.105-3.863-1.221 2.178-2.391 3.423-2.501 4.796-.06.749 1.675 1.714 2.601 2.581.713-1.161 1.803-2.234 2.005-3.514z" fill="#fff"/>
        <path fill-rule="evenodd" clip-rule="evenodd" d="M114.652 863.658c-1.129-2.11-1.788-4.087-2.683-4.678-.404-.269-1.276 2.215-1.935 3.449.796 1.345 1.515 3.005 2.428 3.867.327.312 1.121-1.292 2.19-2.638z" fill="#fff"/>
        <path fill-rule="evenodd" clip-rule="evenodd" d="M132.132 866.307c.937-.806 1.701-2.394 2.533-3.678-.63-1.306-1.444-3.883-1.854-3.656-.908.503-1.615 2.418-2.764 4.372 1.014 1.495 1.772 3.231 2.085 2.962z" fill="#fff"/>
        <path fill-rule="evenodd" clip-rule="evenodd" d="M157.757 862.497c-1.727-1.697-3.269-3.877-3.683-3.493-1.12 1.033-1.885 3.072-2.47 4.928-.104.323 1.58 2.62 2.072 2.387 1.282-.609 2.361-2.117 4.081-3.822z" fill="#fff"/>
        <path fill-rule="evenodd" clip-rule="evenodd" d="M179.309 862.209c-2.172-1.621-3.511-3.474-4.643-3.228-1.128.243-2.045 2.591-3.054 4.016 1.161 1.199 2.311 3.314 3.481 3.338 1.13.025 2.279-2.11 4.216-4.126z" fill="#fff"/>
        <path fill-rule="evenodd" clip-rule="evenodd" d="M145.417 846.421c.195-.704-.809-2.389-1.654-4.673-1.323 2.404-2.569 3.806-2.928 5.702-.165.883 1.389 2.725 2.162 4.132.841-1.69 1.881-3.22 2.42-5.161z" fill="#fff"/>
        <path fill-rule="evenodd" clip-rule="evenodd" d="M166.969 846.418c.196-.706-.798-2.391-1.631-4.67-1.332 2.407-2.569 3.809-2.95 5.716-.17.844 1.392 2.712 2.167 4.118.84-1.693 1.876-3.223 2.414-5.164z" fill="#fff"/>
        <path fill-rule="evenodd" clip-rule="evenodd" d="M119.271 847.931c1.101 1.321 2.226 3.715 3.295 3.651 1.036-.062 2.687-2.49 2.841-4.17.189-2.041-.905-4.386-1.817-8.123-2.64 5.285-3.48 6.965-4.319 8.642z" fill="#fff"/>
        <path fill-rule="evenodd" clip-rule="evenodd" d="M20.746 848.066l-2.686-6.318a3846.344 3846.344 0 0 1-3.471 5.338c.93 1.603 1.814 4.37 2.805 4.491 1.064.129 2.231-2.236 3.352-3.511z" fill="#fff"/>
        <path fill-rule="evenodd" clip-rule="evenodd" d="M38.81 844.217c-1.3.558-2.426 1.987-4.209 3.605 1.661 1.806 3.133 4.076 3.542 3.725 1.145-.981 1.981-2.947 2.61-4.769.12-.345-1.475-2.76-1.943-2.561z" fill="#fff"/>
        <path fill-rule="evenodd" clip-rule="evenodd" d="M62.304 845.583c.114-.614-1.162-2.008-2.291-3.835-1.025 2.591-2.144 4.339-2.317 6.334-.08.919 1.697 2.319 2.632 3.5.698-1.978 1.576-3.854 1.976-5.999z" fill="#fff"/>
        <path fill-rule="evenodd" clip-rule="evenodd" d="M80.265 844.206c-.727-.03-1.48 2.139-2.56 3.891 1.22 1.618 2.086 3.646 2.808 3.475.728-.169 1.86-2.597 1.81-3.9-.05-1.33-1.308-3.432-2.058-3.466z" fill="#fff"/>
        <path fill-rule="evenodd" clip-rule="evenodd" d="M99.261 846.439c.56 1.889 1.266 3.98 2.366 5.093.396.403 2.016-1.713 3.789-3.328-1.681-1.77-2.727-3.324-3.996-3.975-.505-.261-2.244 1.918-2.159 2.21z" fill="#fff"/>
        <path fill-rule="evenodd" clip-rule="evenodd" d="M29.979 831.172c-.088-1.471-1.483-2.791-2.307-4.177-.823 1.388-2.226 2.714-2.304 4.178-.078 1.46 1.173 3.056 2.305 5.657 1.144-2.63 2.394-4.224 2.306-5.658z" fill="#fff"/>
        <path fill-rule="evenodd" clip-rule="evenodd" d="M93.097 831.159c-.084-1.463-1.481-2.781-2.302-4.164-.826 1.388-2.229 2.714-2.31 4.18-.08 1.455 1.172 3.054 2.301 5.655 1.147-2.637 2.393-4.227 2.31-5.671z" fill="#fff"/>
        <path fill-rule="evenodd" clip-rule="evenodd" d="M111.915 826.995l-3.42 4.042 3.878 3.334c.826-1.315 2.338-2.671 2.278-3.931-.057-1.199-1.758-2.3-2.736-3.445z" fill="#fff"/>
        <path fill-rule="evenodd" clip-rule="evenodd" d="M134.656 830.386c.127-1.45-1.062-3.121-2.125-5.849-1.228 2.541-2.53 4.049-2.483 5.469.051 1.498 1.391 2.915 2.166 4.365.869-1.319 2.316-2.541 2.442-3.985z" fill="#fff"/>
        <path fill-rule="evenodd" clip-rule="evenodd" d="M156.216 830.434c-.039-1.195-1.318-2.297-2.053-3.439l-2.564 4.041 2.903 3.335c.622-1.316 1.757-2.671 1.714-3.937z" fill="#fff"/>
        <path fill-rule="evenodd" clip-rule="evenodd" d="M7.661 824.537c-1.144 2.639-2.39 4.231-2.305 5.67.088 1.466 1.483 2.784 2.305 4.164.822-1.38 2.219-2.698 2.305-4.164.085-1.439-1.16-3.031-2.305-5.67z" fill="#fff"/>
        <path fill-rule="evenodd" clip-rule="evenodd" d="M70.265 834.352c.582.279 2.864-2.394 2.822-3.639-.057-1.702-1.59-3.325-3.14-6.176-1.297 2.246-3.11 4.023-3.013 5.603.097 1.592 1.935 3.542 3.331 4.212z" fill="#fff"/>
        <path fill-rule="evenodd" clip-rule="evenodd" d="M51.535 830.943c.03-1.285-1.17-2.63-1.83-3.948l-4.327 5.157c1.863 1.094 3.042 2.412 4.073 2.196.837-.179 2.056-2.168 2.084-3.405z" fill="#fff"/>
        <path fill-rule="evenodd" clip-rule="evenodd" d="M125.429 813.413c-1.102-1.31-2.228-3.697-3.295-3.626-1.037.068-2.69 2.49-2.843 4.167-.184 2.045.912 4.393 1.824 8.125 2.632-5.283 3.473-6.975 4.314-8.666z" fill="#fff"/>
        <path fill-rule="evenodd" clip-rule="evenodd" d="M99.262 815.092c-.093.508 1.54 2.244 1.802 2.054 1.104-.802 2.298-1.935 2.796-3.345.196-.56-1.332-2.159-2.557-4.017-.935 2.286-1.75 3.715-2.04 5.308z" fill="#fff"/>
        <path fill-rule="evenodd" clip-rule="evenodd" d="M57.7 813.266c-.133.883 1.5 2.571 2.332 3.894.79-1.794 1.773-3.448 2.264-5.462.16-.663-.952-2.255-1.913-4.373-1.199 2.47-2.388 4.004-2.682 5.941z" fill="#fff"/>
        <path fill-rule="evenodd" clip-rule="evenodd" d="M17.421 809.788c-1.123-.104-2.338 1.929-4.372 3.826 2.1 1.762 3.376 3.703 4.505 3.536 1.14-.167 2.135-2.43 3.192-3.775-1.104-1.283-2.168-3.474-3.325-3.587z" fill="#fff"/>
        <path fill-rule="evenodd" clip-rule="evenodd" d="M36.14 813.926c1.19 1.151 2.303 2.723 3.613 3.226.452.172 1.39-2.316 2.545-4.365-1.381-1.383-2.601-3.301-3.103-2.964-1.198.801-2.059 2.667-3.054 4.103z" fill="#fff"/>
        <path fill-rule="evenodd" clip-rule="evenodd" d="M145.434 812.33c.116-1.103-1.088-2.579-2.221-5.005-1.165 2.934-2.314 4.651-2.389 6.484-.041 1.014 1.714 2.228 2.659 3.351.696-1.599 1.765-3.087 1.951-4.83z" fill="#fff"/>
        <path fill-rule="evenodd" clip-rule="evenodd" d="M164.581 817.114c1.107-1.106 1.84-3.16 2.409-5.038.092-.3-1.633-2.523-2.135-2.273-1.273.639-2.329 2.18-4.019 3.921 1.76 1.652 3.357 3.779 3.745 3.39z" fill="#fff"/>
        <path fill-rule="evenodd" clip-rule="evenodd" d="M9.95 797.069c.178-.675-.88-2.306-1.789-4.496-1.258 2.441-2.476 3.91-2.8 5.827-.149.886 1.444 2.645 2.247 4.009.817-1.752 1.826-3.356 2.343-5.34z" fill="#fff"/>
        <path fill-rule="evenodd" clip-rule="evenodd" d="M66.93 798.903c1.124 1.273 2.293 3.637 3.354 3.501.994-.126 1.872-2.897 2.804-4.502l-3.476-5.329-2.682 6.33z" fill="#fff"/>
        <path fill-rule="evenodd" clip-rule="evenodd" d="M28.928 795.041c-.859-.129-1.817 1.227-3.563 2.57l3.685 4.798c.824-1.585 1.648-3.169 2.473-4.75-.86-.933-1.683-2.481-2.595-2.618z" fill="#fff"/>
        <path fill-rule="evenodd" clip-rule="evenodd" d="M46.937 797.408c.47 1.937 1.61 3.368 2.48 5.001.752-1.855 1.765-3.573 2.111-5.64.123-.728-1.391-2.308-2.605-4.196-.925 2.158-2.178 4.044-1.986 4.835z" fill="#fff"/>
        <path fill-rule="evenodd" clip-rule="evenodd" d="M134.627 796.972c.231-1.589-.625-3.694-1.254-6.857-2.141 4.377-3.475 6.164-3.313 6.954.413 2.019 1.492 3.591 2.305 5.34.794-1.794 1.967-3.405 2.262-5.437z" fill="#fff"/>
        <path fill-rule="evenodd" clip-rule="evenodd" d="M156.211 796.776c.121-.721-1.393-2.3-2.623-4.203-.917 2.153-2.162 4.038-1.969 4.829.473 1.937 1.61 3.371 2.48 5.007.751-1.853 1.763-3.568 2.112-5.633z" fill="#fff"/>
        <path fill-rule="evenodd" clip-rule="evenodd" d="M57.727 779.958c.722 1.304 2.04 2.121 3.233 2.779.17.092 1.51-2.045 1.336-2.652-.441-1.525-1.441-2.764-2.563-4.722-.98 2.161-2.265 4.128-2.006 4.595z" fill="#fff"/>
        <path fill-rule="evenodd" clip-rule="evenodd" d="M17.71 775.383c-1.139-.239-2.48 1.604-4.66 3.23 1.972 2.044 3.118 4.164 4.231 4.125 1.174-.04 2.311-2.141 3.465-3.343-1.004-1.423-1.918-3.774-3.037-4.012z" fill="#fff"/>
        <path fill-rule="evenodd" clip-rule="evenodd" d="M36.14 778.749c1.029 1.388 1.93 3.197 3.145 3.959.49.307 1.671-1.687 3.013-3.154-1.182-1.96-2.173-4.375-2.611-4.18-1.3.572-2.38 2.175-3.546 3.375z" fill="#fff"/>
        <path fill-rule="evenodd" clip-rule="evenodd" d="M82.3 779.697c.225-.477-1.166-2.298-2.267-4.334-1.036 2.087-1.958 3.401-2.318 4.946-.136.584 1.33 2.554 1.54 2.424 1.152-.722 2.401-1.681 3.045-3.036z" fill="#fff"/>
        <path fill-rule="evenodd" clip-rule="evenodd" d="M103.858 779.454c.202-.514-1.279-2.172-2.484-4.091-.96 2.223-1.806 3.619-2.11 5.197-.103.535 1.492 2.344 1.744 2.167 1.113-.778 2.302-1.875 2.85-3.273z" fill="#fff"/>
        <path fill-rule="evenodd" clip-rule="evenodd" d="M146.981 778.348c-1.38-1.374-2.596-3.284-3.102-2.945-1.197.801-2.059 2.668-3.056 4.104 1.19 1.153 2.302 2.733 3.609 3.223.46.173 1.392-2.324 2.549-4.382z" fill="#fff"/>
        <path fill-rule="evenodd" clip-rule="evenodd" d="M122.367 775.363l-3.096 4.382c1.026 1.077 2.055 3.001 3.077 2.993 1.031-.006 2.055-1.928 3.081-3.01-.873-1.248-1.748-2.492-3.062-4.365z" fill="#fff"/>
        <path fill-rule="evenodd" clip-rule="evenodd" d="M28.674 767.985c.962-.02 1.9-2.201 2.849-3.438-.84-1.399-1.605-3.773-2.54-3.929-.95-.157-2.068 1.868-3.618 3.456 1.396 1.763 2.365 3.935 3.309 3.911z" fill="#fff"/>
        <path fill-rule="evenodd" clip-rule="evenodd" d="M11.51 765.769l-1.306-3.263c-.703-.67-1.658-2.184-2.059-1.848-1.06.889-1.879 2.582-2.793 3.954.802 1.2 1.594 3.351 2.409 3.373 1.242.034 2.498-1.403 3.749-2.216z" fill="#fff"/>
        <path fill-rule="evenodd" clip-rule="evenodd" d="M51.533 764.536c-.165-2.014-1.27-3.789-2.268-6.384-1.144 1.785-2.45 3.169-2.342 3.772.39 2.163 1.258 4.062 1.948 6.061.945-1.164 2.737-2.541 2.662-3.449z" fill="#fff"/>
        <path fill-rule="evenodd" clip-rule="evenodd" d="M65.39 763.68c1.941 2.132 3.051 4.309 4.16 4.305 1.18-.001 2.358-2.063 3.538-3.226-.98-1.458-1.855-3.841-2.97-4.119-1.138-.284-2.51 1.502-4.728 3.04z" fill="#fff"/>
        <path fill-rule="evenodd" clip-rule="evenodd" d="M132.911 760.61c-.98.049-1.911 2.205-2.864 3.44.836 1.399 1.59 3.749 2.532 3.926.929.174 2.048-1.853 3.626-3.472-1.397-1.76-2.369-3.937-3.294-3.894z" fill="#fff"/>
        <path fill-rule="evenodd" clip-rule="evenodd" d="M157.757 763.619c-1.964-1.387-3.2-2.605-4.552-3.006-.405-.118-1.773 2.6-1.589 3.057.7 1.728 1.717 3.557 2.917 4.295.46.282 1.734-2.268 3.224-4.346z" fill="#fff"/>
        <path fill-rule="evenodd" clip-rule="evenodd" d="M17.295 743.399c-.961 1.375-2.379 2.6-2.697 4.183-.163.814 1.762 3.331 2.523 3.188 1.238-.233 2.295-2.021 3.625-3.35l-3.451-4.021z" fill="#fff"/>
        <path fill-rule="evenodd" clip-rule="evenodd" d="M40.759 747.163c.02-1.237-1.55-2.509-2.424-3.764-1.069 1.022-2.137 2.047-3.734 3.574 1.542 1.634 2.566 2.719 3.59 3.802.92-1.202 2.547-2.391 2.568-3.612z" fill="#fff"/>
        <path fill-rule="evenodd" clip-rule="evenodd" d="M59.877 743.399c-1.064 1.024-2.126 2.044-3.723 3.582l3.59 3.794c.921-1.2 2.555-2.391 2.567-3.604.013-1.247-1.558-2.514-2.434-3.772z" fill="#fff"/>
        <path fill-rule="evenodd" clip-rule="evenodd" d="M145.44 746.842c-.052-1.196-1.752-2.298-2.727-3.443l-3.429 4.066c1.658 1.42 2.765 2.364 3.872 3.31.826-1.315 2.339-2.668 2.284-3.933z" fill="#fff"/>
        <path fill-rule="evenodd" clip-rule="evenodd" d="M66.93 730.055c1.122 1.273 2.293 3.638 3.354 3.504.994-.126 1.873-2.896 2.804-4.502l-3.48-5.328-2.678 6.326z" fill="#fff"/>
        <path fill-rule="evenodd" clip-rule="evenodd" d="M9.97 729.333c-.975-1.564-1.711-3.369-2.017-3.123-.954.769-1.747 2.313-2.601 3.557.614 1.35 1.394 3.991 1.807 3.785.914-.452 1.645-2.336 2.811-4.219z" fill="#fff"/>
        <path fill-rule="evenodd" clip-rule="evenodd" d="M28.99 726.198c-.932-.173-2.05 1.857-3.625 3.475 1.397 1.755 2.367 3.916 3.309 3.891.964-.026 1.9-2.198 2.849-3.43-.838-1.402-1.592-3.761-2.534-3.936z" fill="#fff"/>
        <path fill-rule="evenodd" clip-rule="evenodd" d="M46.928 730.727c-.153.409 1.328 2.99 1.752 2.83 1.337-.5 2.53-1.827 4.395-3.333-1.586-1.944-2.947-4.327-3.384-4.007-1.172.854-2.102 2.742-2.763 4.51z" fill="#fff"/>
        <path fill-rule="evenodd" clip-rule="evenodd" d="M93.1 729.058c.021-1.351-.914-2.744-1.882-5.329l-2.736 6.212 3.2 3.623c.511-1.5 1.396-2.985 1.418-4.506z" fill="#fff"/>
        <path fill-rule="evenodd" clip-rule="evenodd" d="M114.637 728.098c.162-.663-.949-2.253-1.909-4.369-1.202 2.473-2.391 4.005-2.686 5.943-.134.88 1.499 2.569 2.331 3.892.791-1.797 1.772-3.453 2.264-5.466z" fill="#fff"/>
        <path fill-rule="evenodd" clip-rule="evenodd" d="M134.665 730.278c-.006-1.212-.916-2.405-1.64-4.09-.664 1.931-1.506 3.317-1.434 4.474.072 1.165 1.084 2.985 1.621 2.898.562-.089 1.46-2.117 1.453-3.282z" fill="#fff"/>
        <path fill-rule="evenodd" clip-rule="evenodd" d="M20.746 714.395c-1.102-1.069-2.23-3.014-3.295-2.958-1.041.052-2.704 2.031-2.845 3.384-.172 1.634.97 3.498 1.93 6.449l4.21-6.875z" fill="#fff"/>
        <path fill-rule="evenodd" clip-rule="evenodd" d="M145.426 713.35c.16-.661-.951-2.25-1.917-4.373-1.2 2.476-2.392 4.007-2.678 5.94-.133.894 1.499 2.573 2.33 3.895.79-1.793 1.773-3.45 2.265-5.462z" fill="#fff"/>
        <path fill-rule="evenodd" clip-rule="evenodd" d="M119.271 714.803c1.022 1.443 2.05 4.019 3.068 4.009 1.035-.011 2.06-2.573 3.09-4.017l-3.104-5.818-3.054 5.826z" fill="#fff"/>
        <path fill-rule="evenodd" clip-rule="evenodd" d="M77.706 713.553c1.782 1.356 2.783 2.608 3.94 2.796.593.095 1.47-1.724 2.218-2.676-.933-.788-1.78-1.986-2.828-2.224-.714-.161-1.71 1.021-3.33 2.104z" fill="#fff"/>
        <path fill-rule="evenodd" clip-rule="evenodd" d="M98.95 713.224l-1.231 3.242c1.238.858 2.476 2.362 3.709 2.345.822-.01 1.633-2.188 2.449-3.396-.743-1.372-1.351-3.36-2.27-3.911-.674-.403-1.757 1.079-2.658 1.72z" fill="#fff"/>
        <path fill-rule="evenodd" clip-rule="evenodd" d="M38.628 711.456c-1.273.64-2.33 2.177-4.027 3.929 1.766 1.645 3.355 3.774 3.758 3.378 1.105-1.089 1.827-3.167 2.397-5.047.089-.296-1.627-2.512-2.128-2.26z" fill="#fff"/>
        <path fill-rule="evenodd" clip-rule="evenodd" d="M57.695 715.407c-.065.936 1.743 2.257 2.702 3.405.676-2.023 1.532-3.953 1.909-6.133.102-.602-1.223-1.95-2.39-3.702-.982 2.619-2.086 4.426-2.221 6.43z" fill="#fff"/>
        <path fill-rule="evenodd" clip-rule="evenodd" d="M9.967 697.141c-.274-1.596-1.07-3.04-1.994-5.375-1.269 1.867-2.795 3.428-2.605 3.969.495 1.415 1.659 2.575 2.752 3.391.27.201 1.933-1.489 1.847-1.985z" fill="#fff"/>
        <path fill-rule="evenodd" clip-rule="evenodd" d="M29.957 696.101c.234-.511-1.162-2.321-2.241-4.335-1.047 2.096-1.97 3.417-2.342 4.963-.137.571 1.33 2.536 1.538 2.406 1.152-.726 2.421-1.676 3.045-3.034z" fill="#fff"/>
        <path fill-rule="evenodd" clip-rule="evenodd" d="M69.892 699.131c1.142-.176 2.136-2.434 3.196-3.781-1.105-1.281-2.171-3.477-3.323-3.581-1.124-.1-2.336 1.939-4.374 3.851 2.1 1.752 3.376 3.685 4.5 3.511z" fill="#fff"/>
        <path fill-rule="evenodd" clip-rule="evenodd" d="M51.514 695.964c.215-.5-1.216-2.225-2.37-4.198-1.003 2.176-1.882 3.538-2.22 5.103-.118.543 1.422 2.42 1.654 2.263 1.13-.755 2.344-1.792 2.936-3.168z" fill="#fff"/>
        <path fill-rule="evenodd" clip-rule="evenodd" d="M93.097 695.96c.064-1.025-.81-2.141-1.688-4.194-1.348 2.069-2.136 3.284-2.927 4.498 1.014.958 2.027 1.92 3.04 2.878.563-1.057 1.509-2.076 1.575-3.182z" fill="#fff"/>
        <path fill-rule="evenodd" clip-rule="evenodd" d="M131.825 699.072c1.025-.542 1.901-2.091 2.84-3.211-.58-1.453-1.275-4.229-1.716-4.09-.963.304-1.797 2.083-4.441 5.59 1.752.978 2.641 2.07 3.317 1.711z" fill="#fff"/>
        <path fill-rule="evenodd" clip-rule="evenodd" d="M112.232 691.766c-1.053 2.07-2.411 3.92-2.17 4.423.646 1.338 1.929 2.252 3.091 2.947.205.124 1.637-1.885 1.489-2.46-.394-1.543-1.334-2.841-2.41-4.91z" fill="#fff"/>
        <path fill-rule="evenodd" clip-rule="evenodd" d="M20.746 680.502c-.85-1.698-1.7-3.398-2.978-5.947-1.367 2.462-2.273 4.094-3.18 5.723 1.006 1.477 1.998 4.082 3.016 4.111 1.034.029 2.095-2.485 3.142-3.887z" fill="#fff"/>
        <path fill-rule="evenodd" clip-rule="evenodd" d="M40.747 678.759c.145-.648-1.017-2.178-2.03-4.204-1.145 2.518-2.302 4.118-2.57 6.084-.118.869 1.565 2.479 2.43 3.75.76-1.851 1.708-3.578 2.17-5.63z" fill="#fff"/>
        <path fill-rule="evenodd" clip-rule="evenodd" d="M80.882 684.386c.558-.118 1.442-2.819 1.442-4.394 0-1.592-.906-3.186-1.626-5.437-.675 2.607-1.52 4.453-1.448 5.993.072 1.546 1.092 3.953 1.632 3.838z" fill="#fff"/>
        <path fill-rule="evenodd" clip-rule="evenodd" d="M62.306 678.266c.104-.603-1.216-1.954-2.382-3.711-.984 2.625-2.083 4.428-2.23 6.438-.066.919 1.745 2.252 2.706 3.396.673-2.02 1.53-3.943 1.906-6.123z" fill="#fff"/>
        <path fill-rule="evenodd" clip-rule="evenodd" d="M103.874 680.928c-.199-1.95-1.311-3.63-3.461-8.832-.626 3.405-1.332 5.195-1.114 6.545.333 2.074 1.305 3.847 2.006 5.748.911-1.169 2.656-2.589 2.569-3.461z" fill="#fff"/>
        <path fill-rule="evenodd" clip-rule="evenodd" d="M126.968 680.859c-2.046-1.913-3.261-3.951-4.378-3.841-1.156.114-2.216 2.31-3.319 3.595 1.058 1.34 2.048 3.589 3.187 3.766 1.123.17 2.397-1.758 4.51-3.52z" fill="#fff"/>
        <path fill-rule="evenodd" clip-rule="evenodd" d="M134.663 663.166c-.062-1.194-1.363-2.248-2.118-3.363-.714 1.186-1.427 2.376-2.498 4.157l2.972 3.218c.597-1.343 1.709-2.745 1.644-4.012z" fill="#fff"/>
        <path fill-rule="evenodd" clip-rule="evenodd" d="M110.041 663.099c.107 1.457 1.526 2.728 2.37 4.079.801-1.413 2.183-2.78 2.24-4.25.057-1.456-1.22-3.015-2.391-5.585-1.108 2.688-2.326 4.317-2.219 5.756z" fill="#fff"/>
        <path fill-rule="evenodd" clip-rule="evenodd" d="M88.482 662.657c.001 1.509 1.293 3.015 2.02 4.521.913-1.252 2.406-2.371 2.58-3.796.177-1.452-.94-3.206-1.902-6.039-1.335 2.48-2.698 3.897-2.698 5.314z" fill="#fff"/>
        <path fill-rule="evenodd" clip-rule="evenodd" d="M7.472 657.343c-1.057 2.741-2.24 4.416-2.11 5.862.13 1.442 1.577 2.659 2.447 3.973.775-1.447 2.116-2.862 2.16-4.352.044-1.425-1.26-2.928-2.497-5.483z" fill="#fff"/>
        <path fill-rule="evenodd" clip-rule="evenodd" d="M26.904 662.67c.003 1.507.86 3.005 1.343 4.508.61-1.247 1.612-2.362 1.724-3.779.115-1.459-.636-3.211-1.288-6.056-.883 2.495-1.781 3.915-1.779 5.327z" fill="#fff"/>
        <path fill-rule="evenodd" clip-rule="evenodd" d="M69.808 667.178c1.234-.001 2.465-1.829 4.819-3.817-1.773-1.575-3.112-3.686-4.289-3.552-1.217.14-2.278 2.463-3.408 3.83.959 1.265 1.92 3.541 2.877 3.539z" fill="#fff"/>
        <path fill-rule="evenodd" clip-rule="evenodd" d="M51.527 663.198c.123-1.463-1.066-3.138-2.122-5.855-1.232 2.557-2.533 4.063-2.487 5.486.05 1.492 1.39 2.902 2.166 4.349.869-1.317 2.32-2.542 2.443-3.98z" fill="#fff"/>
        <path fill-rule="evenodd" clip-rule="evenodd" d="M18.835 637.674l-4.246 8.602c1.1 1.334 2.23 3.757 3.3 3.69 1.035-.064 2.693-2.53 2.839-4.223.177-2.041-.952-4.381-1.893-8.069z" fill="#fff"/>
        <path fill-rule="evenodd" clip-rule="evenodd" d="M40.752 645.166c.112-1.116-1.082-2.582-2.22-5.034-1.17 2.952-2.325 4.67-2.39 6.496-.038 1.025 1.727 2.22 2.679 3.339.689-1.587 1.756-3.076 1.93-4.801z" fill="#fff"/>
        <path fill-rule="evenodd" clip-rule="evenodd" d="M62.296 644.508c.16-.667-.955-2.261-1.917-4.376-1.196 2.469-2.384 3.999-2.678 5.941-.133.881 1.504 2.57 2.338 3.894.79-1.795 1.77-3.446 2.257-5.459z" fill="#fff"/>
        <path fill-rule="evenodd" clip-rule="evenodd" d="M80.26 642.592c-.735-.013-1.48 2.162-2.554 3.926 1.212 1.592 2.086 3.62 2.803 3.438.736-.188 1.854-2.595 1.814-3.924-.04-1.305-1.32-3.427-2.063-3.44z" fill="#fff"/>
        <path fill-rule="evenodd" clip-rule="evenodd" d="M105.416 646.113c-1.728-1.694-3.271-3.858-3.677-3.478-1.12 1.054-1.884 3.089-2.477 4.948-.1.31 1.581 2.603 2.064 2.367 1.297-.638 2.39-2.148 4.09-3.837z" fill="#fff"/>
        <path fill-rule="evenodd" clip-rule="evenodd" d="M126.968 646.296c-2.067-1.839-3.311-3.834-4.435-3.698-1.149.136-2.179 2.367-3.262 3.683 1.083 1.315 2.119 3.552 3.265 3.68 1.138.129 2.389-1.861 4.432-3.665z" fill="#fff"/>
        <path fill-rule="evenodd" clip-rule="evenodd" d="M7.836 627.86c-1.274.65-2.332 2.192-4.024 3.948 1.757 1.634 3.35 3.753 3.745 3.36 1.108-1.099 1.838-3.162 2.41-5.039.092-.299-1.633-2.522-2.131-2.269z" fill="#fff"/>
        <path fill-rule="evenodd" clip-rule="evenodd" d="M25.365 630.081c.75.952 1.617 2.762 2.228 2.672 1.145-.167 2.143-1.434 3.93-2.799-1.627-1.087-2.62-2.264-3.326-2.099-1.05.244-1.898 1.436-2.832 2.226z" fill="#fff"/>
        <path fill-rule="evenodd" clip-rule="evenodd" d="M53.075 630.399c-1.737-1.322-2.706-2.678-3.578-2.552-.908.134-1.724 1.702-2.58 2.645l2.502 4.724 3.656-4.817z" fill="#fff"/>
        <path fill-rule="evenodd" clip-rule="evenodd" d="M69.911 625.381l-2.981 5.948c1.05 1.399 2.108 3.913 3.143 3.886 1.017-.028 2.012-2.636 3.015-4.112-.906-1.63-1.812-3.261-3.177-5.722z" fill="#fff"/>
        <path fill-rule="evenodd" clip-rule="evenodd" d="M93.096 628.942c.093-.587-1.295-1.87-2.538-3.561-.923 2.669-2.02 4.555-2.076 6.532-.03 1.019 1.794 2.196 2.778 3.303.652-2.073 1.486-4.061 1.836-6.274z" fill="#fff"/>
        <path fill-rule="evenodd" clip-rule="evenodd" d="M116.192 633.054c-.442-1.103-.887-2.204-1.33-3.307-.7-.675-1.653-2.196-2.051-1.86-1.053.888-1.867 2.581-2.777 3.953.798 1.199 1.583 3.344 2.397 3.374 1.244.048 2.507-1.365 3.761-2.16z" fill="#fff"/>
        <path fill-rule="evenodd" clip-rule="evenodd" d="M17.482 608.176c-1.126-.137-2.371 1.855-4.433 3.679 2.06 1.827 3.307 3.82 4.434 3.684 1.147-.136 2.18-2.367 3.263-3.681-1.084-1.315-2.116-3.543-3.264-3.682z" fill="#fff"/>
        <path fill-rule="evenodd" clip-rule="evenodd" d="M40.749 612.043c.131-.838-1.017-1.977-2.103-3.875-1.225 2.19-2.394 3.436-2.504 4.806-.059.746 1.682 1.708 2.61 2.572.71-1.157 1.797-2.225 1.997-3.503z" fill="#fff"/>
        <path fill-rule="evenodd" clip-rule="evenodd" d="M101.024 615.477c1.029-.541 1.909-2.084 2.853-3.202-.582-1.457-1.292-4.245-1.721-4.1-.973.331-1.807 2.105-4.437 5.609 1.734.96 2.627 2.048 3.305 1.693z" fill="#fff"/>
        <path fill-rule="evenodd" clip-rule="evenodd" d="M126.968 611.27c-2.226-1.557-3.6-3.357-4.729-3.071-1.117.282-1.988 2.673-2.968 4.139 1.182 1.157 2.368 3.215 3.548 3.208 1.118-.007 2.231-2.177 4.149-4.276z" fill="#fff"/>
        <path fill-rule="evenodd" clip-rule="evenodd" d="M60.221 608.168c-1.216 1.901-2.709 3.533-2.51 4.054.536 1.402 1.718 2.519 2.826 3.309.256.186 1.869-1.586 1.77-2.098-.303-1.588-1.132-3.003-2.086-5.265z" fill="#fff"/>
        <path fill-rule="evenodd" clip-rule="evenodd" d="M77.71 613.481c-.094.504 1.54 2.242 1.804 2.05 1.101-.801 2.276-1.934 2.793-3.341.196-.533-1.31-2.134-2.546-4.022-.943 2.294-1.757 3.722-2.051 5.313z" fill="#fff"/>
        <path fill-rule="evenodd" clip-rule="evenodd" d="M90.107 600.789c.94-.244 1.773-2.022 2.993-3.622-.84-1.837-1.485-3.913-1.767-3.74-1.017.626-1.91 2.01-2.85 3.108.547 1.511 1.187 4.369 1.624 4.254z" fill="#fff"/>
        <path fill-rule="evenodd" clip-rule="evenodd" d="M66.93 597.295c1.123 1.271 2.296 3.627 3.356 3.493.996-.128 1.872-2.896 2.802-4.501-.99-1.514-1.977-3.031-3.478-5.329l-2.68 6.337z" fill="#fff"/>
        <path fill-rule="evenodd" clip-rule="evenodd" d="M49.707 600.78c.418.216 1.207-2.396 1.828-3.728-.841-1.26-1.62-2.831-2.564-3.609-.315-.259-1.059 1.515-2.054 3.049 1.162 1.92 1.88 3.827 2.79 4.288z" fill="#fff"/>
        <path fill-rule="evenodd" clip-rule="evenodd" d="M8.19 593.428c-1.012.61-1.901 2.003-2.838 3.097.55 1.516 1.18 4.37 1.63 4.266.933-.22 1.768-2.015 2.988-3.616-.845-1.838-1.49-3.924-1.78-3.747z" fill="#fff"/>
        <path fill-rule="evenodd" clip-rule="evenodd" d="M26.904 596.402c.012 1.601.894 4.309 1.44 4.389.555.083 1.558-2.308 1.634-3.873.075-1.524-.776-3.375-1.45-5.96-.731 2.296-1.637 3.897-1.624 5.444z" fill="#fff"/>
        <path fill-rule="evenodd" clip-rule="evenodd" d="M114.627 595.64c.197-.707-.804-2.386-1.647-4.682-1.329 2.421-2.569 3.828-2.933 5.728-.168.871 1.387 2.708 2.162 4.107.842-1.688 1.882-3.215 2.418-5.153z" fill="#fff"/>
        <path fill-rule="evenodd" clip-rule="evenodd" d="M82.322 578.227c-.06-1.59-1.36-2.995-2.112-4.48-.715 1.587-1.43 3.178-2.504 5.569l2.971 4.266c.598-1.792 1.708-3.659 1.644-5.355z" fill="#fff"/>
        <path fill-rule="evenodd" clip-rule="evenodd" d="M106.955 580.463a9249.538 9249.538 0 0 0-5.364-6.716c-.844 1.764-2.372 3.566-2.332 5.281.037 1.65 1.601 4.303 2.668 4.527 1.276.271 2.737-1.562 5.028-3.092z" fill="#fff"/>
        <path fill-rule="evenodd" clip-rule="evenodd" d="M57.693 579.145c.024 1.5 1.339 2.959 2.09 4.437.892-1.286 2.365-2.455 2.515-3.891.152-1.448-1.008-3.162-2.024-5.944-1.276 2.513-2.605 3.976-2.58 5.398z" fill="#fff"/>
        <path fill-rule="evenodd" clip-rule="evenodd" d="M38.56 583.582c.798-1.792 2.282-3.661 2.196-5.354-.08-1.591-1.816-2.994-2.825-4.481l-3.33 5.561c1.69 1.824 2.824 3.047 3.959 4.274z" fill="#fff"/>
        <path fill-rule="evenodd" clip-rule="evenodd" d="M20.746 579.944c-.048-1.701-1.573-3.334-3.112-6.197-1.318 2.256-3.137 4.02-3.042 5.594.094 1.591 1.927 3.522 3.326 4.22.56.28 2.866-2.372 2.828-3.617z" fill="#fff"/>
        <path fill-rule="evenodd" clip-rule="evenodd" d="M8.145 559.043c-1.06.885-1.88 2.578-2.793 3.95.803 1.201 1.595 3.352 2.41 3.376 1.242.035 2.497-1.407 3.748-2.22l-1.303-3.25c-.704-.674-1.66-2.194-2.062-1.856z" fill="#fff"/>
        <path fill-rule="evenodd" clip-rule="evenodd" d="M26.904 563.078c.013 1.199.894 3.229 1.44 3.291.554.063 1.558-1.731 1.634-2.903.075-1.145-.776-2.53-1.45-4.472-.732 1.723-1.637 2.924-1.624 4.084z" fill="#fff"/>
        <path fill-rule="evenodd" clip-rule="evenodd" d="M70.404 566.37c1.11.041 2.254-2.082 4.223-4.124-2.177-1.626-3.516-3.473-4.65-3.23-1.122.24-2.04 2.588-3.047 4.012 1.158 1.2 2.298 3.3 3.474 3.342z" fill="#fff"/>
        <path fill-rule="evenodd" clip-rule="evenodd" d="M51.535 563.091c-.583-1.455-1.285-4.231-1.727-4.091-.965.302-1.798 2.085-4.43 5.574 1.722.976 2.615 2.083 3.293 1.73 1.034-.545 1.917-2.094 2.864-3.213z" fill="#fff"/>
        <path fill-rule="evenodd" clip-rule="evenodd" d="M93.091 562.368c.105-1.402-.71-3.004-1.48-5.832l-3.129 5.705 2.879 4.13c.615-1.326 1.624-2.567 1.73-4.003z" fill="#fff"/>
        <path fill-rule="evenodd" clip-rule="evenodd" d="M114.633 561.056c.177-.684-.881-2.321-1.788-4.52-1.259 2.438-2.474 3.909-2.801 5.828-.149.878 1.447 2.645 2.251 4.007.816-1.744 1.825-3.338 2.338-5.315z" fill="#fff"/>
        <path fill-rule="evenodd" clip-rule="evenodd" d="M103.86 546.503c.179-.777-1.116-2.607-2.091-4.718-1.172 1.951-2.635 3.588-2.502 4.317.374 2.041 1.407 3.704 2.18 5.516.849-1.675 1.962-3.157 2.413-5.115z" fill="#fff"/>
        <path fill-rule="evenodd" clip-rule="evenodd" d="M77.722 546.501c.447 1.958 1.561 3.443 2.407 5.117.775-1.808 1.81-3.47 2.186-5.507.136-.73-1.321-2.367-2.493-4.326-.982 2.114-2.279 3.937-2.1 4.716z" fill="#fff"/>
        <path fill-rule="evenodd" clip-rule="evenodd" d="M59.603 549.138c1.162-.606 2.05-1.893 2.7-3.086.137-.252-1.4-1.923-1.836-1.803-1.32.358-2.48 1.276-4.313 2.324 1.608 1.237 3.018 2.788 3.45 2.565z" fill="#fff"/>
        <path fill-rule="evenodd" clip-rule="evenodd" d="M17.634 544.263c-1.124.245-2.038 2.593-3.046 4.016 1.156 1.199 2.297 3.295 3.474 3.339 1.108.042 2.253-2.079 4.224-4.124-2.181-1.626-3.52-3.472-4.652-3.231z" fill="#fff"/>
        <path fill-rule="evenodd" clip-rule="evenodd" d="M34.601 546.563c1.622 1.249 3.045 2.798 3.461 2.575 1.158-.617 2.05-1.891 2.688-3.086.14-.26-1.395-1.921-1.832-1.803-1.32.354-2.478 1.268-4.317 2.314z" fill="#fff"/>
        <path fill-rule="evenodd" clip-rule="evenodd" d="M73.088 528.196c-1.102-1.31-2.23-3.682-3.3-3.622-1.033.057-2.683 2.475-2.837 4.141-.188 2.041.9 4.383 1.813 8.15l4.324-8.669z" fill="#fff"/>
        <path fill-rule="evenodd" clip-rule="evenodd" d="M9.964 530.617c-.382-2.156-1.253-4.052-1.938-6.043-.947 1.167-2.746 2.552-2.672 3.461.171 2.023 1.279 3.811 2.267 6.372 1.148-1.798 2.452-3.172 2.343-3.79z" fill="#fff"/>
        <path fill-rule="evenodd" clip-rule="evenodd" d="M28.252 524.58c-.924.356-1.7 2.195-2.887 3.943.922 1.687 1.626 3.626 1.929 3.409.976-.697 1.804-2.188 2.689-3.373-.586-1.417-1.304-4.143-1.731-3.979z" fill="#fff"/>
        <path fill-rule="evenodd" clip-rule="evenodd" d="M46.928 529.113c-.152.405 1.325 2.986 1.758 2.828 1.324-.479 2.505-1.804 4.389-3.327-1.585-1.945-2.942-4.333-3.384-4.012-1.172.847-2.101 2.741-2.763 4.511z" fill="#fff"/>
        <path fill-rule="evenodd" clip-rule="evenodd" d="M91.982 532.403c.4-1.437 1.33-3.167 1.075-4.24-.347-1.46-1.595-2.417-2.457-3.589-.753 1.3-2.11 2.589-2.118 3.9-.014 1.971.917 3.955 1.45 5.933l2.05-2.004z" fill="#fff"/>
        <path fill-rule="evenodd" clip-rule="evenodd" d="M17.855 509.827c-1.152.144-2.183 2.372-3.267 3.686 1.084 1.312 2.115 3.537 3.266 3.677 1.124.137 2.369-1.853 4.432-3.68-2.063-1.828-3.31-3.82-4.43-3.683z" fill="#fff"/>
        <path fill-rule="evenodd" clip-rule="evenodd" d="M34.601 513.435c1.661 1.808 3.133 4.078 3.542 3.725 1.145-.978 1.981-2.947 2.61-4.768.12-.346-1.475-2.761-1.943-2.56-1.3.556-2.426 1.985-4.209 3.603z" fill="#fff"/>
        <path fill-rule="evenodd" clip-rule="evenodd" d="M62.299 511.563c.146-.646-1.018-2.176-2.032-4.202-1.145 2.514-2.307 4.113-2.568 6.071-.117.886 1.564 2.488 2.427 3.765.761-1.853 1.71-3.58 2.173-5.634z" fill="#fff"/>
        <path fill-rule="evenodd" clip-rule="evenodd" d="M80.87 507.361c-.731 2.297-1.639 3.902-1.625 5.443.016 1.604.893 4.289 1.447 4.389.546.103 1.57-2.327 1.629-3.858.061-1.583-.785-3.418-1.45-5.974z" fill="#fff"/>
        <path fill-rule="evenodd" clip-rule="evenodd" d="M105.416 513.21c-1.862-1.538-3.032-2.883-4.353-3.381-.439-.166-1.94 2.375-1.795 2.772.654 1.781 1.562 3.715 2.729 4.565.454.329 1.838-2.059 3.419-3.956z" fill="#fff"/>
        <path fill-rule="evenodd" clip-rule="evenodd" d="M28.27 499.986c.62-1.751 1.76-3.557 1.712-5.233-.045-1.605-1.32-3.074-2.056-4.603l-2.561 5.408c1.237 1.888 2.072 3.158 2.905 4.428z" fill="#fff"/>
        <path fill-rule="evenodd" clip-rule="evenodd" d="M11.51 496.933c-2.6-4.09-3.455-5.438-4.312-6.783-.666 1.762-1.878 3.562-1.845 5.274.03 1.653 1.267 4.301 2.113 4.533 1.024.278 2.197-1.524 4.044-3.024z" fill="#fff"/>
        <path fill-rule="evenodd" clip-rule="evenodd" d="M51.53 495.9c.105-1.439-1.112-3.066-2.218-5.75-1.186 2.596-2.462 4.147-2.392 5.57.073 1.487 1.44 2.849 2.243 4.266.843-1.355 2.258-2.626 2.366-4.086z" fill="#fff"/>
        <path fill-rule="evenodd" clip-rule="evenodd" d="M70.088 490.15c-1.25 2.113-2.816 3.715-3.148 5.75-.175 1.075 1.941 4.269 2.758 4.078 1.325-.309 3.402-2.629 3.39-4.075-.014-1.825-1.8-3.622-3-5.753z" fill="#fff"/>
        <path fill-rule="evenodd" clip-rule="evenodd" d="M90.478 499.952c1.058-.246 2.58-2.891 2.622-4.549.041-1.699-1.466-3.497-2.294-5.253l-5.403 6.886c2.316 1.451 3.793 3.215 5.075 2.916z" fill="#fff"/>
        <path fill-rule="evenodd" clip-rule="evenodd" d="M17.34 475.399c-1.116-.067-2.296 2.022-4.29 3.998 2.14 1.681 3.452 3.568 4.586 3.362 1.129-.208 2.081-2.514 3.11-3.899-1.134-1.243-2.24-3.391-3.405-3.461z" fill="#fff"/>
        <path fill-rule="evenodd" clip-rule="evenodd" d="M34.601 479.023c2.027 1.866 3.115 3.384 4.35 3.745.478.141 1.797-2.33 1.808-3.63.01-1.313-1.268-3.86-1.733-3.736-1.247.337-2.361 1.81-4.425 3.621z" fill="#fff"/>
        <path fill-rule="evenodd" clip-rule="evenodd" d="M62.287 477.614c.194-.707-.811-2.392-1.655-4.675-1.32 2.404-2.565 3.806-2.927 5.707-.167.875 1.394 2.723 2.17 4.129.839-1.693 1.877-3.22 2.412-5.161z" fill="#fff"/>
        <path fill-rule="evenodd" clip-rule="evenodd" d="M82.323 479.32c.038-1.329-1.092-3.763-1.816-3.913-.74-.158-1.606 1.872-2.801 3.456 1.077 1.757 1.826 3.929 2.56 3.912.744-.018 2.02-2.147 2.057-3.455z" fill="#fff"/>
        <path fill-rule="evenodd" clip-rule="evenodd" d="M5.356 897.805c-.098.738 1.62 1.953 2.514 2.953.722-1.561 1.71-3.009 2.063-4.721.215-1.05-.544-2.506-1.204-5.114-2.028 3.916-3.163 5.277-3.373 6.882z" fill="#fff"/>
        <path fill-rule="evenodd" clip-rule="evenodd" d="M29.98 897.715c.065-1.14-.783-2.48-1.448-4.334-.733 1.667-1.642 2.828-1.628 3.948.013 1.162.918 2.287 1.433 3.429.585-1.006 1.579-1.925 1.642-3.043z" fill="#fff"/>
        <path fill-rule="evenodd" clip-rule="evenodd" d="M70.125 900.747c1.127.169 2.402-1.776 4.502-3.546-2.033-1.892-3.247-3.924-4.367-3.815-1.158.11-2.224 2.298-3.33 3.576 1.06 1.349 2.054 3.612 3.195 3.785z" fill="#fff"/>
        <path fill-rule="evenodd" clip-rule="evenodd" d="M53.075 897.413c-1.584-1.942-2.942-4.32-3.38-4.004-1.173.853-2.104 2.741-2.767 4.509-.152.404 1.329 2.99 1.76 2.832 1.324-.481 2.503-1.81 4.387-3.337z" fill="#fff"/>
        <path fill-rule="evenodd" clip-rule="evenodd" d="M93.1 896.263c.02-1.357-.926-2.751-1.902-5.34l-2.716 6.225a4726.21 4726.21 0 0 1 3.189 3.61c.514-1.497 1.41-2.979 1.43-4.495z" fill="#fff"/>
        <path fill-rule="evenodd" clip-rule="evenodd" d="M157.757 897.046c-1.673-1.758-3.157-3.99-3.575-3.625-1.138.991-1.955 2.986-2.577 4.817-.113.332 1.503 2.716 1.97 2.507 1.298-.588 2.412-2.043 4.182-3.699z" fill="#fff"/>
        <path fill-rule="evenodd" clip-rule="evenodd" d="M177.77 897.068c-1.082-1.314-2.117-3.56-3.258-3.681-1.145-.123-2.396 1.872-4.439 3.681 2.065 1.831 3.311 3.819 4.437 3.683 1.148-.138 2.178-2.368 3.26-3.683z" fill="#fff"/>
        <path fill-rule="evenodd" clip-rule="evenodd" d="M132.849 900.747c.732-.174 1.86-2.591 1.815-3.905-.044-1.323-1.308-3.431-2.057-3.46-.729-.03-1.48 2.14-2.56 3.893 1.218 1.614 2.084 3.647 2.802 3.472z" fill="#fff"/>
        <path fill-rule="evenodd" clip-rule="evenodd" d="M114.652 897.11c-.84-1.822-1.484-3.894-1.769-3.718-1.016.621-1.91 2.006-2.849 3.1.547 1.514 1.193 4.381 1.624 4.263.939-.259 1.772-2.033 2.994-3.645z" fill="#fff"/>
        <path fill-rule="evenodd" clip-rule="evenodd" d="M75.472 252.271c-3.165-8.91-7.025-16.821-12.038-23.312-2.022-2.618-3.7-5.933-5.452-9.049-.224-.398-.142-1.927.117-2.23 3.151-3.704 6.46-7.079 9.525-10.952 2.184-2.758 4.146-6.019 6.022-9.329.477-.838.247-2.711.342-4.109-.946.238-2.388-.07-2.76.799-3.167 7.422-8.39 10.373-12.635 15.415-.37.441-.936.457-1.411.671-.061-.637-.154-1.271-.177-1.912-.03-.841-.007-1.688-.007-2.531l.287-.005c0-7.569-.001-15.139.002-22.708 0-.703.151-1.476.017-2.097-.4-1.851-.906-3.642-1.371-5.456-.557 1.554-1.52 3.057-1.6 4.671-.37 7.483-.483 14.999-.714 22.501a271.497 271.497 0 0 1-.366 7.951c-.156 2.577-.938 2.677-2.088 1.269-3.444-4.211-6.826-8.573-10.391-12.504-1.24-1.368-2.945-1.653-4.438-2.432.693 2.188 1.07 4.964 2.14 6.452 2.823 3.925 5.903 7.394 8.967 10.848 2.204 2.484 2.334 4.942.363 7.67-4.864 6.73-9.78 13.379-14.433 20.472-1.782 2.714-3.034 6.428-4.25 9.936-.368 1.062.195 2.956.332 4.469.8-.542 1.83-.745 2.364-1.679 3.819-6.686 7.415-13.708 11.335-20.233 2.157-3.59 4.786-6.459 7.25-9.554.343-.431 1.12-.64 1.417-.308.297.335.386 1.501.325 2.254-.533 6.452-1.248 12.871-1.655 19.341a385.943 385.943 0 0 0-.724 20.103c-.013 1.27 1.119 2.57 1.723 3.856.524-1.422 1.407-2.776 1.516-4.276.817-11.258 1.47-22.545 2.213-33.818.082-1.238.226-2.704.698-3.558.355-.644 1.58-1.03 1.902-.582 2.61 3.66 5.299 7.258 7.57 11.43 2.59 4.759 4.73 10.148 7.174 15.126.593 1.211 1.85 2.923 2.389 2.605 1.621-.958 1.272-3.086.52-5.205z" fill="#fff"/>
        <path fill-rule="evenodd" clip-rule="evenodd" d="M50.764 434.467c1.628-2.301 2.922-8.768 2.058-11.129-.993-2.723-4.673-4.579-6.973-4.104-9.1 1.875-18.16 4.472-27.145 7.498-4.12 1.387-5.553-1.157-5.484-6.955.114-9.799.736-19.596.624-29.378-.061-5.446-1.278-10.838-1.793-16.297-.847-8.957-1.214-18.072-2.477-26.864-.478-3.324-2.883-5.931-4.409-8.863-1.161 2.61-2.854 4.964-3.394 7.872-3.044 16.382-5.805 32.9-8.679 49.363-.345 1.97-.71 3.947-1.195 5.833-2.39 9.315-2.835 8.914-7.755 2.81-6.005-7.45-12.576-13.726-18.94-20.415-2.69-2.827-5.32-6.124-8.285-7.817-1.633-.934-4.581.004-5.7 1.941-1.136 1.972-1.582 6.802-.883 9.356 2.833 10.365 6.188 20.368 9.418 30.45 3.497 10.91 6.994 21.821 10.625 32.617 3.719 11.05.385 20.917-2.245 30.422-3.518 12.712-8.048 24.694-11.671 37.338-.791 2.765-.265 7.842.909 10.299.929 1.943 4.087 2.831 5.722 1.862 3.874-2.295 7.445-5.934 11.113-9.109 2.819-2.443 4.798-1.991 5.673 3.602 2.877 18.358 5.807 36.691 8.71 55.041.088.562.032 1.185.13 1.741 1.065 6.059 1.205 14.489 6.178 14.622 4.735.126 5.054-7.838 5.953-13.798 1.06-7.031 2.247-14.017 3.627-22.563 0-8.193-.138-17.727.042-27.244.168-8.914 2.432-10.802 7.37-6.695 9.496 7.894 18.937 15.971 28.558 23.451 1.618 1.258 4.415.91 5.934-.603 1.068-1.063 1.445-5.529 1.131-8.167-.385-3.239-1.598-6.405-2.825-9.174-7.124-16.085-14.42-31.972-21.522-48.083-2.66-6.034-2.658-10.287 2.034-15.484 9.017-9.99 17.323-21.715 25.566-33.376z" fill="#fff"/>
        <path fill-rule="evenodd" clip-rule="evenodd" d="M1429.9 265.117c18.87-11.574 38.78-17.216 59.26-12.126.51.127 1.04.339 1.57.552 1.18.474 2.36.948 3.37.466 1.48-.714 2.82-2.137 4.17-3.559a44.58 44.58 0 0 1 1.73-1.764c-.54-1.018-1.05-2.256-1.56-3.495-1.1-2.693-2.21-5.387-3.6-5.815-5.95-1.842-12.01-2.889-18.06-3.937-2.24-.388-4.48-.776-6.72-1.204-17.95-.074-34.18 8.345-50.85 18.605-30.44 18.753-58.84 43.241-85.95 71.379-16.82 17.448-30.87 40.741-42.82 66.969-4.97 10.889-10.78 20.833-16.55 30.727l-1.95 3.335c-.7 1.209-2.16 1.288-3.63 1.366-.7.037-1.39.075-2.01.233-4.27 1.091-8.56 2.059-12.85 3.027-9.78 2.204-19.55 4.409-29.1 8.088-15.01 5.778-29.87 13.202-44.24 22.195-4.35 2.727-8.33 7.005-12.3 11.282-4.01 4.318-8.02 8.635-12.42 11.353-8.16 5.037-14.49 13.418-20.86 21.839-1.99 2.629-3.98 5.261-6.03 7.798-2.25 2.782-4.64 5.302-7.02 7.819-3.46 3.65-6.91 7.294-9.92 11.719-9.8 14.403-19.07 29.722-28.27 45.116-.88 1.472-.98 4.135-1.08 6.799-.04 1.233-.09 2.466-.21 3.582.72.069 1.44.187 2.16.304 1.71.281 3.42.56 5.07.185 1.52-.343 3-2.332 4.27-4.033l.02-.037c3.6-4.82 7.13-9.755 10.67-14.689 7.42-10.357 14.84-20.711 22.76-29.996 9.71-11.382 20.15-21.213 30.56-31.016 1.6-1.513 3.21-3.024 4.81-4.539 7.67-7.259 15.46-14.587 23.72-19.747 16.33-10.195 32.9-19.57 49.63-27.946 5.56-2.78 11.41-4.056 17.26-5.333 2.48-.539 4.95-1.079 7.41-1.734 6.48-1.727 5.28 4.236 4.15 9.875-.05.228-.09.458-.14.685-4.68 23.509-5.55 47.225-1.51 71.172 10.66 63.239 47 100.875 86.53 69.564 18.87-14.949 25.98-41.556 26.26-69.31.4-38.739-12.32-61.201-31.37-81.483-11.63-12.394-24.11-15.077-36.62-17.767-4.04-.869-8.08-1.737-12.1-2.937-7.54-2.247-7.21-6.262-3.45-13.077 15.62-28.375 31.7-56.015 51.8-76.782 3.42-3.537 6.75-7.311 10.08-11.084 4.14-4.692 8.28-9.383 12.6-13.617 3.52-3.453 7.33-6.167 11.13-8.883 1.98-1.414 3.97-2.829 5.91-4.349 4.83-3.776 9.61-7.739 14.39-11.701 10.48-8.681 20.95-17.36 31.9-24.074zm-151.25 277.271c-8.78-29.103-6.35-56.002-.51-83.856 2.18-10.388 7.42-13.587 14.3-10.565 2.5 1.097 5.1 1.67 7.69 2.244 2.13.471 4.25.94 6.33 1.701 3.12 1.135 6.3 2.058 9.49 2.985 8.16 2.363 16.34 4.734 23.32 10.654 7.82 6.636 13.98 19.053 19.81 30.785.61 1.225 1.21 2.444 1.82 3.646 2.06 4.123 2.92 9.772 3.88 15.997.46 2.997.94 6.127 1.58 9.286-.86 3.706-1.68 7.477-2.5 11.265-1.83 8.463-3.68 17.01-6.13 25.093-5.71 18.849-27.19 35.386-39.88 30.854-18.06-6.45-30.74-22.049-39.2-50.089z" fill="#fff"/>
        <path fill-rule="evenodd" clip-rule="evenodd" d="M-33.263.129C-24.09 3.428-15.049 7.742-6.052 12.17c12.166 5.985 24.335 12.003 36.33 18.788 10.277 5.813 20.38 12.456 30.432 19.218 4.508 3.033 9.12 5.828 13.735 8.624 11.41 6.914 22.837 13.837 32.731 24.384 4.747 5.06 9.62 9.901 14.501 14.75 16.38 16.273 32.858 32.643 45.022 57.746.719 1.484 2.897 1.975 4.285 1.667 1.496-.332 3.013-1.014 4.52-1.691 2.577-1.159 5.129-2.306 7.517-1.679l2.186.571c10.738 2.8 21.639 5.642 31.72 11.657 5.682 3.389 10.742 9.456 15.796 15.516 2.132 2.555 4.263 5.111 6.44 7.463a415.555 415.555 0 0 0 4.256 4.511l.002.001c4.176 4.383 8.357 8.769 12.153 13.876 2.802 3.768 5.328 8.05 7.855 12.334 2.141 3.628 4.283 7.257 6.594 10.579 9.314 13.384 15.747 30.014 22.183 46.654l.001.003c2.088 5.397 4.176 10.797 6.364 16.087.705 1.707 1.283 3.649 1.865 5.606 1.687 5.671 3.406 11.452 8.372 11.927 14.9 1.43 25.877 15.721 36.489 29.712 13.154 17.339 23.037 39.362 32.971 61.498l1.066 2.379.735 1.633c9.538 21.212 16.028 44.585 22.491 67.863.626 2.252 1.251 4.503 1.878 6.751 6.85 24.547 11.954 50.737 15.698 76.975 2.448 17.142 3.556 34.77 4.664 52.399v.002c.487 7.754.975 15.508 1.576 23.221l-.284.102-2.356.848c-5.115-7.623-7.401-17.441-7.878-28.714-.089-2.103-.114-4.243-.138-6.385-.058-5.087-.116-10.183-1.038-14.837-1.976-9.991-3.69-20.115-5.404-30.241-3.659-21.619-7.319-43.239-13.538-63.554-.991-3.237-1.994-6.468-2.997-9.701l-.006-.019c-4.172-13.443-8.35-26.905-11.694-40.863-1.926-8.038-5.075-14.633-8.192-21.16-2.233-4.675-4.449-9.317-6.188-14.431-9.402-27.643-23.876-47.108-38.852-65.874-2.963-3.713-6.576-6.109-10.402-8.647-1.822-1.207-3.693-2.448-5.565-3.878 1.019 5.6 1.91 10.947 2.766 16.087 1.824 10.95 3.491 20.962 5.911 30.489 3.127 12.308 2.634 24.751 2.144 37.142-.229 5.77-.457 11.528-.319 17.257.216 8.962-2.281 18.249-4.712 27.287-.651 2.422-1.297 4.824-1.885 7.197-4.01 16.19-13.627 21.272-22.497 11.322-1.317-1.477-2.662-2.892-4.009-4.307-5.478-5.761-10.969-11.536-14.547-21.517l-.758-2.113c-8.388-23.36-16.643-46.349-12.37-75.087 3.737-25.141 11.331-45.229 27.592-53.907 4.616-2.459 4.866-5.943 2.241-11.878-4.645-10.488-9.228-21.076-13.439-32.013-7.349-19.103-15.991-36.611-27.078-50.235-10.97-13.48-22.403-26.268-34.367-37.341-12.1-11.198-25.079-20.097-39.325-13.233 1.744 4.733 3.525 9.411 5.302 14.076l.001.003c4.026 10.568 8.026 21.07 11.507 31.994l.556 1.743c5.05 15.818 10.152 31.799 7.836 51.043-1.89 15.682-7.301 21.961-17.064 19.313-11.192-3.037-19.239-14.193-27.218-25.253-.578-.8-1.155-1.6-1.733-2.397-3.373-4.646-6.264-11.816-7.398-18.668-4.276-25.859-2.761-50.586 8.431-72.055 1.81-3.471 2.832-6.021-.079-9.452-3.525-4.156-6.993-8.437-10.46-12.717l-.001-.001c-3.226-3.982-6.452-7.965-9.724-11.847-2.347-2.784-4.677-5.617-7.007-8.45l-.001-.001c-6.804-8.272-13.613-16.55-20.865-23.667-6.584-6.462-13.61-11.782-20.635-17.1-2.838-2.15-5.677-4.298-8.485-6.522a282.734 282.734 0 0 1-4.257-3.463c-3.948-3.254-7.899-6.51-12.038-8.931-4.144-2.424-8.423-4.42-12.696-6.413-7.686-3.585-15.352-7.16-22.18-13.203-8.979-7.949-18.502-11.85-28.028-15.752-3.935-1.612-7.87-3.224-11.768-5.122-2.561-1.247-5.135-2.438-7.71-3.628-6.11-2.827-12.221-5.653-18.153-9.238-1.398-.844-2.25-3.994-3.1-7.142-.391-1.446-.782-2.891-1.225-4.113.816-.444 1.66-1.076 2.502-1.708C-36.66.944-34.825-.433-33.263.129zM158.001 201.72c-.624 3.212-.6 6.745-.575 10.278.011 1.568.022 3.135-.024 4.675-.977 20.798 5.868 34.652 16.077 45.271 1.664 1.73 3.485 3.071 5.308 4.415h.001c1.246.918 2.492 1.836 3.691 2.881 7.639 6.654 9.972 5.254 10.382-8.312.545-18.004-4.229-33.578-10.452-48.064-1.528-3.56-3.112-7.06-4.697-10.557-2.445-5.402-4.89-10.8-7.125-16.416-2.487-6.253-5.241-5.187-7.308-.829-2.326 4.903-4.135 10.77-5.278 16.658zm112.612 187.015c-1.277-21.173 4.394-38.459 13.48-52.182 3.582-5.411 10.04-6.78 15.356-7.826.822-.161 2.028 4.378 3.19 8.746.468 1.762.929 3.495 1.354 4.883.368 1.198.662 2.451.957 3.707.256 1.095.513 2.191.819 3.248 8.341 28.842 10.397 58.561 5.044 89.375-.713 4.114-1.335 8.291-1.775 12.499-.887 8.47-4.878 12.337-9.663 8.646-13.489-10.409-30.61-45.319-28.762-71.096z" fill="#fff"/>
    </g>
    <defs>
        <clipPath id="a">
            <path fill="#fff" d="M0 0h1440v896H0z"/>
        </clipPath>
    </defs>
</svg>
