<svg width="104" height="135" viewBox="0 0 104 135" fill="none" xmlns="http://www.w3.org/2000/svg">
    <path d="M8.962 99.48l43.702 22.241 42.042-22.242V12.504H8.962v86.975z" fill="#fff"/>
    <path d="M95.591 12.836L8.078 101.029l45.361 22.463 42.153-21.578V12.836z" fill="#F2F3F2"/>
    <path d="M6.085 41.496v59.865l1.55.774 43.701 22.242 1.328.664 1.328-.664 42.153-22.242 1.549-.774V9.627H6.085v31.869zM8.962 99.7V12.504h85.855v87.197l-42.153 22.242L8.962 99.701z" fill="#DCDEDC"/>
    <path d="M51.89 13.943c.442 0 .885 0 1.327.11l-1.328 2.545c-1.991-.11-3.761 1.439-3.872 3.43-.11 1.992 1.438 3.763 3.43 3.873h.442c.886 0 1.77-.331 2.434-.885l1.439 2.435a6.706 6.706 0 0 1-3.873 1.217c-3.54.11-6.527-2.545-6.638-6.086-.11-3.541 2.545-6.529 6.085-6.64h.553zm4.535 5.422l1.66 2.766-1.66 2.656-1.548-2.656h-3.209l1.66-2.766h3.097zm-2.655-.996c0-.443.11-.886.332-1.218.221-.331.664-.663.996-.885l.221-.11c.443-.222.553-.332.553-.554 0-.22-.332-.442-.553-.442-.442 0-.774.221-.996.664l-.553-.554c.11-.22.332-.442.553-.663.332-.222.664-.222.996-.222.332 0 .775.11.996.332.221.221.443.553.443.885 0 .554-.333.996-.996 1.218l-.332.22c-.332.222-.553.333-.664.665h1.992v.774l-2.988-.11zM51.89 32.2l10.51-5.976V9.627H41.268v16.488L51.89 32.2z" fill="#FF492C"/>
    <path d="M99.796 71.373H3.983l-3.54 7.746 3.54 7.746h95.813l3.43-7.746-3.43-7.746z" fill="#FF492C"/>
    <path d="M21.077 66.393a.225.225 0 0 1-.166-.066.264.264 0 0 1-.067-.177V52.694c0-.066.022-.125.067-.177a.225.225 0 0 1 .166-.066h2.334c.066 0 .122.022.166.066.052.052.077.11.077.177v11.187c0 .067.034.1.1.1h6.506c.066 0 .125.022.177.066.044.052.066.111.066.178v1.925a.264.264 0 0 1-.066.177.264.264 0 0 1-.177.066h-9.183zm20.036-6.174c.081.501.107 1.066.078 1.693-.008.162-.093.243-.255.243h-6.151c-.081 0-.107.033-.078.1.037.265.107.53.21.796.347.738 1.051 1.107 2.114 1.107.848-.007 1.52-.35 2.013-1.029.052-.081.11-.122.177-.122.045 0 .093.026.144.078l1.427 1.416c.067.066.1.125.1.177 0 .03-.026.085-.078.166-.435.539-.999.96-1.692 1.262-.686.295-1.442.442-2.268.442-1.144 0-2.11-.258-2.9-.774-.788-.517-1.356-1.24-1.703-2.17-.28-.663-.42-1.534-.42-2.61 0-.731.1-1.373.298-1.926.31-.944.845-1.697 1.605-2.258.767-.553 1.674-.83 2.721-.83 1.328 0 2.394.384 3.198 1.151.804.768 1.29 1.797 1.46 3.088zm-4.636-1.815c-.84 0-1.394.39-1.66 1.173a4.857 4.857 0 0 0-.132.642c0 .066.033.1.1.1h3.44c.082 0 .108-.034.078-.1-.066-.384-.1-.568-.1-.554-.118-.398-.324-.708-.62-.93-.302-.22-.67-.331-1.105-.331zm10.533-2.412c.863 0 1.634.15 2.313.453.678.295 1.206.705 1.582 1.229.376.516.564 1.091.564 1.726v6.75a.264.264 0 0 1-.066.177.225.225 0 0 1-.166.066h-2.335a.225.225 0 0 1-.166-.066.244.244 0 0 1-.077-.177v-.653c0-.037-.011-.063-.033-.078-.03-.014-.056-.003-.078.034-.56.73-1.457 1.095-2.688 1.095-1.04 0-1.878-.25-2.512-.752-.642-.502-.962-1.247-.962-2.236 0-1.018.361-1.81 1.084-2.379.715-.56 1.737-.84 3.065-.84h2.024c.067 0 .1-.034.1-.1v-.443c0-.435-.133-.778-.399-1.029-.265-.243-.663-.365-1.194-.365-.406 0-.745.074-1.018.221-.273.148-.45.354-.531.62-.037.148-.122.214-.255.2l-2.412-.322c-.162-.03-.236-.088-.221-.177.052-.56.273-1.066.664-1.516.39-.45.91-.8 1.56-1.051.642-.258 1.36-.387 2.157-.387zm-.398 8.465c.568 0 1.051-.151 1.45-.454.398-.302.597-.693.597-1.173v-.72c0-.066-.033-.099-.1-.099h-1.427c-.597 0-1.066.115-1.405.343-.34.222-.51.539-.51.952 0 .361.126.642.377.841.25.207.59.31 1.018.31zM59.8 52.694c0-.066.022-.125.066-.177a.225.225 0 0 1 .166-.066h2.335c.066 0 .122.022.166.066.044.052.066.11.066.177V66.15a.264.264 0 0 1-.066.177.225.225 0 0 1-.166.066h-2.335a.225.225 0 0 1-.166-.066.264.264 0 0 1-.066-.177v-.653c0-.037-.015-.059-.044-.066a.077.077 0 0 0-.078.022c-.56.73-1.324 1.095-2.29 1.095-.93 0-1.73-.258-2.4-.774-.672-.517-1.155-1.225-1.45-2.125-.221-.693-.332-1.498-.332-2.412 0-.945.118-1.767.354-2.468.31-.856.793-1.53 1.45-2.025.656-.502 1.467-.752 2.433-.752.96 0 1.704.332 2.235.996.022.044.048.059.078.044s.044-.04.044-.078v-4.26zm-.42 10.59c.265-.487.398-1.158.398-2.014 0-.885-.148-1.582-.443-2.091-.302-.517-.745-.775-1.327-.775-.627 0-1.1.258-1.416.775-.332.523-.498 1.228-.498 2.113 0 .797.14 1.46.42 1.992.332.575.822.863 1.471.863.598 0 1.063-.288 1.395-.863zm14.394-3.065a8.23 8.23 0 0 1 .077 1.693c-.007.162-.092.243-.254.243h-6.152c-.081 0-.107.033-.077.1.037.265.107.53.21.796.347.738 1.051 1.107 2.113 1.107.848-.007 1.52-.35 2.014-1.029.051-.081.11-.122.177-.122.044 0 .092.026.143.078l1.428 1.416c.066.066.1.125.1.177 0 .03-.026.085-.078.166-.435.539-1 .96-1.693 1.262-.686.295-1.442.442-2.268.442-1.143 0-2.11-.258-2.899-.774-.789-.517-1.357-1.24-1.703-2.17-.28-.663-.42-1.534-.42-2.61 0-.731.099-1.373.298-1.926.31-.944.844-1.697 1.604-2.258.767-.553 1.674-.83 2.722-.83 1.327 0 2.393.384 3.197 1.151.804.768 1.291 1.797 1.46 3.088zm-4.636-1.815c-.841 0-1.394.39-1.66 1.173a4.857 4.857 0 0 0-.132.642c0 .066.033.1.1.1h3.44c.081 0 .107-.034.077-.1-.066-.384-.1-.568-.1-.554-.117-.398-.324-.708-.619-.93-.302-.22-.67-.331-1.106-.331zm11.55-2.39c.48 0 .856.092 1.129.276.11.06.151.159.122.3l-.42 2.279c-.008.155-.1.199-.277.133-.2-.067-.432-.1-.697-.1a2.92 2.92 0 0 0-.432.044c-.48.037-.885.21-1.217.52-.332.317-.498.734-.498 1.25v5.434a.264.264 0 0 1-.066.177.264.264 0 0 1-.177.066h-2.323a.264.264 0 0 1-.177-.066.264.264 0 0 1-.067-.177v-9.76c0-.066.022-.122.067-.166a.264.264 0 0 1 .177-.066h2.323c.066 0 .125.022.177.066.044.044.066.1.066.166v.764c0 .036.011.062.034.077.029.015.051.007.066-.022.546-.797 1.276-1.195 2.19-1.195z" fill="#252530"/>
    <path d="M34.52 83.434c-.082 0-.134-.037-.156-.11l-2.013-7.492-.011-.044c0-.066.04-.1.121-.1h1.085c.08 0 .132.037.154.111l1.262 5.046c.007.022.018.033.033.033.015 0 .026-.01.033-.033l1.206-5.046c.022-.074.07-.11.144-.11h1.062c.081 0 .133.036.155.11l1.283 5.057c.008.022.019.033.033.033.015 0 .026-.01.034-.033l1.239-5.057c.022-.074.074-.11.155-.11h1.029c.103 0 .143.047.121.143l-1.914 7.492c-.022.073-.073.11-.155.11h-1.029c-.08 0-.132-.037-.154-.11l-1.295-5.279c-.007-.022-.018-.036-.033-.044-.015 0-.026.015-.033.044l-1.24 5.279c-.022.073-.07.11-.143.11h-.974zm8.197 0a.138.138 0 0 1-.1-.044.12.12 0 0 1-.032-.088v-7.48a.12.12 0 0 1 .033-.09.138.138 0 0 1 .1-.043h1.017c.037 0 .067.014.089.044.03.022.044.051.044.088v7.48a.105.105 0 0 1-.044.09.105.105 0 0 1-.089.043h-1.017zm7.27-7.613a.12.12 0 0 1 .033-.088.138.138 0 0 1 .1-.044h1.017c.037 0 .066.014.089.044.03.022.044.051.044.088v7.48a.105.105 0 0 1-.044.09.105.105 0 0 1-.089.043h-.985c-.073 0-.125-.03-.154-.088l-3.187-5.223c-.015-.022-.03-.033-.044-.033-.015.007-.022.025-.022.055l.022 5.157a.105.105 0 0 1-.044.088.105.105 0 0 1-.089.044h-1.018a.138.138 0 0 1-.1-.044.12.12 0 0 1-.033-.088v-7.48a.12.12 0 0 1 .034-.09.138.138 0 0 1 .1-.043h.984c.074 0 .125.029.155.088L49.93 81c.015.022.03.03.044.022.015 0 .023-.015.023-.044l-.012-5.157zm7.987-.132c.037 0 .067.014.089.044.03.022.044.051.044.088v.852a.105.105 0 0 1-.044.089.105.105 0 0 1-.089.044H55.94c-.037 0-.056.019-.056.055v6.44a.12.12 0 0 1-.033.09.138.138 0 0 1-.1.043h-1.017a.105.105 0 0 1-.089-.044.105.105 0 0 1-.044-.088v-6.44c0-.037-.018-.056-.055-.056h-1.959a.138.138 0 0 1-.1-.044.12.12 0 0 1-.032-.089v-.852a.12.12 0 0 1 .033-.088.138.138 0 0 1 .1-.044h5.387zm6.561.973a.105.105 0 0 1-.044.089.105.105 0 0 1-.088.044H60.63c-.037 0-.056.019-.056.055v2.07c0 .037.019.055.056.055h2.533c.037 0 .07.011.1.033.022.03.033.063.033.1v.84c0 .038-.01.07-.033.1a.162.162 0 0 1-.1.034H60.63c-.037 0-.056.018-.056.055v2.135c0 .037.019.056.056.056h3.773c.036 0 .066.015.088.044.03.022.044.052.044.089v.84a.105.105 0 0 1-.044.09.105.105 0 0 1-.088.043h-4.98a.138.138 0 0 1-.099-.044.12.12 0 0 1-.033-.088v-7.48a.12.12 0 0 1 .033-.09.138.138 0 0 1 .1-.043h4.979c.036 0 .066.014.088.044.03.022.044.051.044.088v.841zm5.654 6.772a.157.157 0 0 1-.155-.1l-1.46-3.186c-.015-.03-.037-.044-.067-.044H67.18c-.037 0-.056.018-.056.055v3.143a.105.105 0 0 1-.044.088.105.105 0 0 1-.088.044h-1.018a.138.138 0 0 1-.1-.044.12.12 0 0 1-.033-.088v-7.48a.12.12 0 0 1 .033-.09.137.137 0 0 1 .1-.043h3.042c.45 0 .848.092 1.195.276.347.192.616.457.808.797.191.347.287.741.287 1.184 0 .509-.132.94-.398 1.294-.258.362-.62.613-1.084.753-.015 0-.026.007-.033.022a.047.047 0 0 0 0 .044l1.56 3.22a.17.17 0 0 1 .022.067c0 .059-.04.088-.122.088H70.19zm-3.01-6.639c-.036 0-.055.019-.055.055v2.202c0 .037.019.056.056.056h1.66c.353 0 .64-.107.862-.321.214-.207.321-.483.321-.83s-.107-.627-.32-.841c-.222-.214-.51-.321-.864-.321h-1.66z" fill="#fff"/>
    <path d="M39.188 103.419c-.022.022-.03.044-.022.066.015.022.037.033.066.033h4.348c.052 0 .096.019.133.056a.168.168 0 0 1 .067.133v1.56a.169.169 0 0 1-.067.133.184.184 0 0 1-.133.055h-7.213a.198.198 0 0 1-.144-.055.183.183 0 0 1-.055-.133v-1.483a.33.33 0 0 1 .1-.243 35.371 35.371 0 0 0 1.603-1.671 88.82 88.82 0 0 1 1.03-1.129c.294-.354.597-.693.907-1.018.973-1.077 1.46-1.877 1.46-2.401 0-.377-.133-.686-.398-.93-.266-.236-.612-.354-1.04-.354-.428 0-.775.118-1.04.354-.273.244-.41.565-.41.963v.398a.181.181 0 0 1-.055.133.18.18 0 0 1-.133.055H36.3a.18.18 0 0 1-.132-.055.168.168 0 0 1-.067-.133v-.752a2.843 2.843 0 0 1 .553-1.538c.332-.443.771-.782 1.317-1.018.553-.236 1.173-.354 1.859-.354.76 0 1.42.143 1.98.431.56.28.992.66 1.295 1.14a2.93 2.93 0 0 1 .464 1.604c0 .45-.114.911-.343 1.384-.22.472-.556.98-1.006 1.527-.332.413-.69.826-1.074 1.239-.383.406-.955.992-1.715 1.759l-.243.244zm9.803 2.213c-1.18 0-2.11-.328-2.788-.985-.686-.656-1.03-1.553-1.03-2.689V97.72c0-1.114.344-1.995 1.03-2.645.678-.656 1.607-.984 2.788-.984 1.172 0 2.105.328 2.799.984.686.65 1.029 1.531 1.029 2.645v4.238c0 1.136-.343 2.033-1.03 2.689-.693.657-1.626.985-2.798.985zm0-1.937c.48 0 .859-.147 1.14-.442.287-.295.43-.69.43-1.184v-4.415c0-.487-.143-.878-.43-1.173-.281-.295-.66-.443-1.14-.443-.472 0-.849.148-1.129.443-.288.295-.431.686-.431 1.173v4.415c0 .494.144.889.431 1.184.28.295.657.442 1.129.442zm8.32-.276c-.023.022-.026.044-.011.066.007.022.03.033.066.033h4.348c.052 0 .096.019.133.056a.181.181 0 0 1 .055.133v1.56a.183.183 0 0 1-.055.133.184.184 0 0 1-.133.055H54.49a.184.184 0 0 1-.132-.055.183.183 0 0 1-.056-.133v-1.483c0-.096.03-.177.089-.243a29.246 29.246 0 0 0 1.604-1.671c.546-.605.889-.981 1.029-1.129.302-.354.608-.693.918-1.018.974-1.077 1.46-1.877 1.46-2.401 0-.377-.132-.686-.398-.93-.273-.236-.623-.354-1.05-.354-.428 0-.775.118-1.04.354-.266.244-.399.565-.399.963v.398a.181.181 0 0 1-.055.133.194.194 0 0 1-.144.055h-1.892a.181.181 0 0 1-.133-.055.181.181 0 0 1-.055-.133v-.752c.03-.576.21-1.088.542-1.538a3.18 3.18 0 0 1 1.328-1.018 4.661 4.661 0 0 1 1.847-.354c.76 0 1.42.143 1.98.431.569.28 1.004.66 1.306 1.14.303.487.454 1.022.454 1.604 0 .45-.11.911-.332 1.384-.229.472-.568.98-1.018 1.527-.332.413-.69.826-1.073 1.239-.384.406-.955.992-1.715 1.759l-.243.244zm7.556-9.151c.06-.03.14-.045.244-.045h1.947a.18.18 0 0 1 .133.056.181.181 0 0 1 .055.133v10.855a.183.183 0 0 1-.055.133.184.184 0 0 1-.133.055h-1.881a.184.184 0 0 1-.133-.055.169.169 0 0 1-.066-.133V96.47a.12.12 0 0 0-.022-.067c-.022-.022-.044-.026-.067-.01l-1.593.43-.066.012c-.096 0-.144-.06-.144-.177l-.044-1.372c0-.111.048-.189.143-.233l1.682-.785z" fill="#252530"/>
</svg>
