<svg width="143" height="58" viewBox="0 0 143 58" fill="none" xmlns="http://www.w3.org/2000/svg">
    <path fill-rule="evenodd" clip-rule="evenodd" d="M134.827 15.077V0h7.798v43.853h-7.32v-3.065h-.119c-.2.283-.491.64-.869 1.08-.381.445-1.301 1.036-2.76 1.775-1.46.738-3.049 1.11-4.767 1.11-4.2 0-7.549-1.521-10.048-4.567-2.499-3.04-3.749-7.128-3.749-12.251 0-5.168 1.043-9.264 3.762-12.286 2.719-3.026 6.235-4.537 9.913-4.537 1.682 0 3.19.333 4.53.993 1.34.66 2.25 1.31 2.729 1.95l.78 1.022h.12zm-1.83 20.636c1.22-1.34 1.83-2.972 1.83-4.894v-5.827c0-1.926-.61-3.545-1.83-4.87-1.221-1.32-2.89-1.98-5.009-1.98-2.279 0-4.048.822-5.308 2.465-1.259 1.642-1.889 4.082-1.889 7.328 0 3.202.63 5.637 1.889 7.299 1.26 1.662 3.029 2.493 5.308 2.493 2.119 0 3.788-.67 5.009-2.014zm-31.533 8.14h7.798V12.012h-7.798v31.84zM109.262 0h-7.798v7.387h7.798V0zM87.67 36.676c-1.179.9-2.948 1.35-5.308 1.35-3.12 0-4.679-1.081-4.679-3.242 0-.846.31-1.594.93-2.254.62-.66 1.928-1.232 3.93-1.71.353-.09.686-.177 1.01-.264h-.001s3.25-.785 5.887-2.136v4.922c0 1.32-.59 2.43-1.769 3.334zm-3.988-25.564c3.878 0 7.056 1.022 9.535 3.066 2.48 2.043 3.72 5.206 3.72 9.489v20.186h-6.538v-3.065h-.12c-.08.122-.18.273-.3.45-.12.18-.42.493-.898.933-.481.44-1.02.841-1.62 1.203-.601.357-1.421.68-2.461.958-1.04.283-2.158.42-3.358.42-3.84 0-6.707-.909-8.606-2.733-1.901-1.818-2.85-4.052-2.85-6.697 0-2.762.82-4.865 2.46-6.307 1.637-1.442 4.417-2.645 8.337-3.603 3.639-.885 5.916-1.584 6.838-2.102.918-.523 1.38-1.266 1.38-2.224 0-.964-.452-1.765-1.35-2.406-.901-.64-2.25-.958-4.05-.958-2.12 0-3.638.47-4.558 1.408-.92.944-1.64 2.215-2.16 3.818l-6.478-2.703c.76-2.684 2.24-4.875 4.44-6.58 2.199-1.702 5.076-2.553 8.637-2.553zM52.665 37.727c-2.08 0-3.74-.63-4.979-1.892-1.24-1.261-1.86-2.816-1.86-4.659V24.63c0-1.804.62-3.334 1.86-4.595 1.24-1.262 2.9-1.893 4.979-1.893 2.318 0 4.198.841 5.638 2.523 1.44 1.682 2.16 4.107 2.16 7.27 0 3.163-.73 5.583-2.19 7.27-1.462 1.681-3.329 2.522-5.608 2.522zm-1.77-26.194a12.35 12.35 0 0 1 3.268-.42c3.759 0 7.049 1.51 9.868 4.536 2.819 3.022 4.23 7.118 4.23 12.286 0 5.206-1.363 9.308-4.081 12.315-2.72 3.002-6.019 4.502-9.897 4.502-1.16 0-2.228-.137-3.207-.42-.981-.279-1.77-.606-2.37-.988-.6-.38-1.12-.762-1.56-1.144-.441-.38-.76-.708-.959-.992l-.241-.42h-.12V57.37h-7.798V12.01h7.44v3.066h.119l.126-.19c.053-.077.11-.164.174-.26.12-.18.43-.489.93-.933.498-.44 1.05-.841 1.65-1.198.598-.362 1.408-.685 2.428-.963zm-31.077 14.1h-5.699l.48-8.35h5.697l-.478 8.35zm1.32-21.389h5.638l-.48 7.754h7.797v5.285h-8.157l-.48 8.35h6.477v5.285h-6.836l-.42 7.748h-5.64l.42-7.748H13.76l-.42 7.748H7.703l.42-7.748H.624v-5.285h7.917l.479-8.35H2.724v-5.285h6.658l.478-7.754h5.58l-.481 7.754h5.698l.481-7.754z" fill="#000"/>
</svg>
