<svg width="109" height="24" viewBox="0 0 109 24" fill="none" xmlns="http://www.w3.org/2000/svg">
    <path fill-rule="evenodd" clip-rule="evenodd" d="M107.193 10.614c-.408-.477-1.038-.735-1.707-.77-.747-.037-1.318.224-1.698.681-.324.39-.55.928-.547 1.532v2.132h1.55c.114-.004.228-.002.343 0 .173.002.346.004.518-.014.637-.07 1.172-.295 1.532-.683.335-.36.519-.86.497-1.51-.018-.508-.183-1.012-.488-1.368zm-12.008 3.45h-.818v-5.05h.818v5.05zm4.568 4.151c-.58.678-1.456 1.051-2.328 1.051-1.706 0-3.07-1.093-3.07-3.266l-.008-.887h.818l.008 1.085c.01 1.207.746 2.243 2.176 2.243 1.112 0 2.25-.605 2.247-2.304l-.001-1.025h.833l.005 1.196a7.272 7.272 0 0 0 .048 1.244c.029.227.086.453.193.656l.001.002c.049.061.099.125.17.163.109.064.238.073.362.08l.026.002-.001.48v.331c-.321.008-.655-.067-.915-.264-.269-.2-.44-.505-.53-.823l-.016.018-.01.013a.017.017 0 0 1-.007.005h-.001zm.675-4.15h-.833V9.013h.833v5.052zm-13.312 5.2h-.819V15.11h.819v4.156zm5.256-7.098c0-1.793-1.14-3.154-3.007-3.154-.522 0-1.531.167-2.25.898V5.057h-.817v9.01h.818v-2.064c0-1.374 1.119-2.162 2.225-2.164 1.234-.004 2.213.81 2.213 2.364v1.863h.818V12.35h-.003l.003-.183zm0 7.099h-.819V15.11h.819v4.156zm10.867-3.94l.005-.317h2.002c.117.001.234.002.35-.01.874-.029 1.645-.374 2.172-.947.478-.52.756-1.224.73-2.05-.021-.673-.23-1.355-.604-1.839-.577-.746-1.511-1.144-2.533-1.147-.907-.002-1.672.348-2.2.986-.607.733-.738 1.414-.738 2.367v1.82h-1.191v.82h1.191l.002.742v.168a4.34 4.34 0 0 0 .024.592c.039.334.118.664.243.976.176.439.449.842.815 1.146.51.425 1.166.624 1.825.632.985.012 2.017-.393 2.623-1.223-.117-.09-.239-.177-.36-.263-.1-.071-.199-.142-.297-.216-.574.625-1.141.913-2.012.885-.447-.015-.885-.146-1.233-.423-.27-.214-.475-.509-.62-.883a2.895 2.895 0 0 1-.194-.963l.001-.28c.001-.188.002-.36-.001-.574zM73.369 8.94c0-.765.762-1.119 1.99-1.119 1.348 0 2.814.296 3.81.71l-.351-3.06c-1.115-.236-2.11-.411-3.925-.411-3.456 0-5.8 1.367-5.8 4.233 0 2.938 2.363 3.775 4.279 4.453 1.304.462 2.401.85 2.401 1.78 0 .88-.647 1.35-2.228 1.35-1.403 0-3.574-.47-4.862-1.116l.47 3.235c1.288.471 3.044.705 4.452.705 3.572 0 6.501-1.177 6.501-4.705 0-2.783-2.36-3.61-4.287-4.285-1.329-.465-2.45-.858-2.45-1.77zm-50.14-3.587h4.276v14.053h-4.277v-5.528h-4.452v5.528H14.5V5.353h4.277v5.586h4.452V5.353zm19.154 0v11.23h4.1l-.644 2.823h-7.733V5.353h4.277zm-7.439 0h-4.277v14.053h4.277V5.353zm13.063 0h4.275v14.053h-4.274V5.353zm19.798 5.056c0 3.587-2.52 5.646-6.5 5.646H59.78v3.351h-4.277V5.353c1.464-.176 3.514-.294 5.213-.294 4.394 0 7.088 1.412 7.088 5.35zm-4.217.06c0 1.822-.878 3.058-3.106 3.058h-.701V7.719c.249-.014.482-.014.7-.014 2.11 0 3.107.999 3.107 2.764zM12.8 10.41c0 3.587-2.519 5.646-6.5 5.646H4.776v3.351H.5V5.353c1.465-.176 3.514-.294 5.215-.294 4.392 0 7.086 1.412 7.086 5.35zm-4.215.06c0 1.822-.88 3.058-3.106 3.058h-.703V7.719c.249-.014.484-.014.703-.014 2.108 0 3.106.999 3.106 2.764z" fill="#000"/>
</svg>
