<svg width="1440" height="840" viewBox="0 0 1440 840" fill="none" xmlns="http://www.w3.org/2000/svg">
    <g clip-path="url(#a)">
        <path fill="#AAD5D2" d="M0 0h1440v840H0z"/>
        <path fill="url(#b)" d="M0 0h1440v840H0z"/>
        <path fill-rule="evenodd" clip-rule="evenodd" d="M153.895 428.66c-1.136-.522-6.87.058-13.506.199 2.801 2.646 3.569 4.809 7.107 6.075 1.617.58 8.699-.607 13.302-.992-2.173-1.793-3.615-3.759-6.903-5.282z" fill="#fff"/>
        <path fill-rule="evenodd" clip-rule="evenodd" d="M116.037 461.438c1.276-1.318-.882-3.143-1.92-5.344-5.679.223-11.51.093-11.704.523-.688 1.539.532 3.265 1.027 4.922 4.416-.003 12.05.468 12.597-.101z" fill="#fff"/>
        <path fill-rule="evenodd" clip-rule="evenodd" d="M60.546 488.365c5.223-.627 12.903-.75 14.973-2.021 2.07-1.272-1.471-3.693-2.554-5.611-5.413.345-10.833.687-18.957 1.205 2.802 2.753 4.675 4.591 6.538 6.427z" fill="#fff"/>
        <path fill-rule="evenodd" clip-rule="evenodd" d="M33.986 511.863c-2.543-1.763-4.26-3.786-8.083-5.146-1.336-.473-7.86.697-14.44 1.363 2.844 2.102 4.454 4.499 6.563 4.612 5.2.28 10.629-.485 15.96-.829z" fill="#fff"/>
        <path fill-rule="evenodd" clip-rule="evenodd" d="M11.114 485.872c-6.892.454-12.545.386-15.644 1.229-1.402.381 2.27 2.575 3.644 3.944 4.546-.383 9.626-.531 13.353-1.276 1.34-.267-.565-1.968-1.353-3.897z" fill="#fff"/>
        <path fill-rule="evenodd" clip-rule="evenodd" d="M52.163 465.397c.125-1.524-1.805-3.181-2.936-4.788-4.128.196-11.403.05-11.737.661-.731 1.351 2.034 3.084 3.986 5.384 5.317-.587 10.643-.749 10.687-1.257z" fill="#fff"/>
        <path fill-rule="evenodd" clip-rule="evenodd" d="M95.51 431.933c-7.195 1.38-15.073 2.314-15.07 3 .004 1.85 2.921 3.713 5.799 5.268.496.274 8.915-.784 9.4-1.499 1.254-1.861.131-3.874-.13-6.769z" fill="#fff"/>
        <path fill-rule="evenodd" clip-rule="evenodd" d="M138.349 405.095c-7.929 1.964-14.68 2.796-16.425 4.308-1.742 1.506 1.54 3.695 2.622 5.583 4.964-.9 11.912-1.38 14.324-2.818 2.33-1.388-.022-3.769-.521-7.073z" fill="#fff"/>
        <path fill-rule="evenodd" clip-rule="evenodd" d="M35.462 440.024c-1.15-.557-6.858-.067-13.559-.044 2.59 2.717 3.144 4.888 6.569 6.183 1.597.601 8.756-.499 13.396-.827-2.001-1.8-3.249-3.775-6.406-5.312z" fill="#fff"/>
        <path fill-rule="evenodd" clip-rule="evenodd" d="M78.92 413.314c-1.148-.559-6.838-.083-13.502-.071 2.58 2.729 3.15 4.89 6.552 6.216 1.502.588 8.742-.509 13.38-.841-2.01-1.799-3.266-3.768-6.43-5.304z" fill="#fff"/>
        <path fill-rule="evenodd" clip-rule="evenodd" d="M-13.965 473.103c5.107-.773 12.612-1.095 14.629-2.448 1.953-1.311-.028-4.445-3.39-5.389-4.082-1.148-11.418-.843-21.43-1.387 6.233 5.639 8.213 7.433 10.191 9.224z" fill="#fff"/>
        <path fill-rule="evenodd" clip-rule="evenodd" d="M22.272 419.478c-2.692-.485-7.681.606-11.66 1.004l3.666 4.989 13.151-2.104c-1.627-1.361-2.3-3.374-5.157-3.889z" fill="#fff"/>
        <path fill-rule="evenodd" clip-rule="evenodd" d="M10.01 403.146c-.183-1.868-3.198-3.697-6.16-5.244-.47-.249-8.813.895-9.275 1.629-1.168 1.863.07 3.862.47 6.737 7.162-1.442 15.035-2.468 14.965-3.122z" fill="#fff"/>
        <path fill-rule="evenodd" clip-rule="evenodd" d="M45.495 553.964c3.31.672 9.202-.251 13.964-.477-.895-1.691-.317-4.048-3.083-4.895-2.841-.868-8.938-.262-17.096-.328 2.744 2.753 3.113 5.071 6.215 5.7z" fill="#fff"/>
        <path fill-rule="evenodd" clip-rule="evenodd" d="M19.133 578.268c-.757-1.687-.056-4.25-2.687-4.817-2.675-.577-8.634.807-13.155 1.334l.325 6.213c6.666-1.173 11.094-1.95 15.517-2.73z" fill="#fff"/>
        <path fill-rule="evenodd" clip-rule="evenodd" d="M265.881 418.499c-3.157-.637-9.025.412-16.946.936 4.211 2.471 5.77 4.661 9.317 5.104 3.442.429 8.93-.934 13.52-1.512-1.857-1.576-2.577-3.857-5.891-4.528z" fill="#fff"/>
        <path fill-rule="evenodd" clip-rule="evenodd" d="M230.117 448.58c1.74-1.385.49-4.18-2.142-4.775-2.744-.621-8.73.645-13.298 1.086.069 1.776.135 3.55.347 8.978 7.086-2.375 12.968-3.6 15.093-5.289z" fill="#fff"/>
        <path fill-rule="evenodd" clip-rule="evenodd" d="M173.784 475.937c3.399.518 9.035-.67 13.69-1.112-1.47-1.625-1.683-3.933-4.77-4.678-3.007-.722-8.962.156-17.049.462 3.651 2.576 4.762 4.812 8.129 5.328z" fill="#fff"/>
        <path fill-rule="evenodd" clip-rule="evenodd" d="M145.016 500.915c2.482-1.56.984-3.905 1.389-7.682-7.046 1.497-14.373 2.208-16.442 3.726-2.144 1.57.81 3.927 1.533 5.939 4.696-.624 11.644-.804 13.52-1.983z" fill="#fff"/>
        <path fill-rule="evenodd" clip-rule="evenodd" d="M102.984 519.95c-6.58 1.289-10.963 2.149-15.346 3.005.978 1.654.58 4.173 3.329 4.71 2.69.525 8.594-.971 13.089-1.58l-1.072-6.135z" fill="#fff"/>
        <path fill-rule="evenodd" clip-rule="evenodd" d="M2.432 557.67c2.64-1.321.958-3.772 1.325-7.168-8.242 1.673-15.133 2.267-17.154 3.702-2.094 1.485.54 3.786 1.104 5.73 5.089-.709 12.046-.926 14.725-2.264z" fill="#fff"/>
        <path fill-rule="evenodd" clip-rule="evenodd" d="M38.96 527.188c-2.928-.631-7.885-.084-15.518-.034l8.14 6.154 14.326-2.335c-2.236-1.306-3.67-3.081-6.948-3.785z" fill="#fff"/>
        <path fill-rule="evenodd" clip-rule="evenodd" d="M171.076 447.411c-7.219 1.285-15.093 2.125-15.14 2.806-.126 1.855 2.589 3.761 5.338 5.352.499.288 8.974-.647 9.456-1.319 1.333-1.871.4-3.904.346-6.839z" fill="#fff"/>
        <path fill-rule="evenodd" clip-rule="evenodd" d="M211.488 422.619c-5.061.752-12.056 1.029-14.625 2.388-2.577 1.365-.737 3.808-.9 7.151 8.168-1.739 15.031-2.393 17.004-3.85 2.013-1.485-.79-3.759-1.479-5.689z" fill="#fff"/>
        <path fill-rule="evenodd" clip-rule="evenodd" d="M128.936 479.936c1.094-.984-1.917-3.466-4.881-3.998-2.98-.538-10.142.084-11.718.999-1.532.89 1.698 2.793 3.352 4.917 5.99-.786 12.183-.949 13.247-1.918z" fill="#fff"/>
        <path fill-rule="evenodd" clip-rule="evenodd" d="M84.283 500.859c-5.683.223-11.513.094-11.702.527-.69 1.536.534 3.265 1.033 4.918 4.417.001 11.988.485 12.598-.103 1.332-1.279-.87-3.107-1.929-5.342z" fill="#fff"/>
        <path fill-rule="evenodd" clip-rule="evenodd" d="M156.224 515.634c-1.148-.557-6.823-.07-13.566-.053 2.615 2.729 3.195 4.896 6.613 6.199 1.564.597 8.722-.506 13.345-.84-1.999-1.799-3.248-3.771-6.392-5.306z" fill="#fff"/>
        <path fill-rule="evenodd" clip-rule="evenodd" d="M197.915 491.065c-3.265-.685-8.466-.245-14.834-.323 4.152 1.95 6.394 3.801 9.759 4.363 3.488.579 8.073-.095 12.178-.219-2.29-1.319-3.747-3.12-7.103-3.821z" fill="#fff"/>
        <path fill-rule="evenodd" clip-rule="evenodd" d="M35.848 620.667c1.51.406 7.125-1.319 10.886-2.082-1.101-1.398-1.251-3.218-3.635-4.046-1.555-.535-6.353.375-12.712.872 2.312 2.5 2.682 4.505 5.461 5.256z" fill="#fff"/>
        <path fill-rule="evenodd" clip-rule="evenodd" d="M-14.142 648.586c8.435-1.523 15.395-1.991 17.559-3.386 2.282-1.474-.017-3.829-.315-5.801-5.142.609-12.126.692-14.907 1.976-2.82 1.301-1.489 3.789-2.337 7.211z" fill="#fff"/>
        <path fill-rule="evenodd" clip-rule="evenodd" d="M67.797 640.887c-.868-1.813-1.732-3.626-3.197-6.698-6.39 1.568-11.292 2.163-12.757 3.299-1.53 1.191.244 2.898.574 4.381 5.124-.326 10.255-.654 15.38-.982z" fill="#fff"/>
        <path fill-rule="evenodd" clip-rule="evenodd" d="M14.958 667.262c1.918.499 8.452-1.149 12.89-1.827-3.056-1.742-5.541-3.665-9.537-5.105-1.114-.4-6.725.633-12.936 1.291 3.757 2.4 5.48 4.575 9.583 5.641z" fill="#fff"/>
        <path fill-rule="evenodd" clip-rule="evenodd" d="M104.344 609.288c-1.354-.571-7.978.219-14.594.486 1.921 2.32 2.566 4.86 4.437 5.023 5.208.449 10.932-.087 16.452-.235-1.943-1.798-2.919-3.845-6.295-5.274z" fill="#fff"/>
        <path fill-rule="evenodd" clip-rule="evenodd" d="M195.512 562.409c-3.057-1.737-5.533-3.66-9.533-5.098-1.121-.402-6.726.629-12.941 1.285 3.765 2.401 5.496 4.567 9.602 5.649 1.886.493 8.44-1.157 12.872-1.836z" fill="#fff"/>
        <path fill-rule="evenodd" clip-rule="evenodd" d="M150.512 583.105l-19.041 1.031c2.634 2.792 4.375 4.644 6.114 6.496 5.253-.583 12.959-.644 15.075-1.892 2.155-1.269-1.2-3.709-2.148-5.635z" fill="#fff"/>
        <path fill-rule="evenodd" clip-rule="evenodd" d="M229.833 530.733c-2.427-.853-7.944-.724-16.409-1.361 6.616 4.696 8.055 6.864 12.023 8.026 1.821.531 8.61-.914 13.146-1.462-2.817-1.769-4.783-3.805-8.76-5.203z" fill="#fff"/>
        <path fill-rule="evenodd" clip-rule="evenodd" d="M34.835 681.512c-4.273.089-11.827-.199-12.175.346-.88 1.388 1.48 3.151 2.954 5.397 5.456-.4 11.007-.42 11.136-.883.417-1.534-1.123-3.229-1.915-4.86z" fill="#fff"/>
        <path fill-rule="evenodd" clip-rule="evenodd" d="M203.23 578.65c-2.265-.591-6.918-.142-12.39-.152 2.18 1.66 2.893 3.299 5.384 3.795 2.535.504 6.823-.116 10.345-.243-1.016-1.178-1.011-2.795-3.339-3.4z" fill="#fff"/>
        <path fill-rule="evenodd" clip-rule="evenodd" d="M291.847 529.619c1.539-1.232-1.985-3.122-3.267-4.721-4.495.935-8.991 1.869-15.885 3.3 2.96 2.173 4.909 3.596 6.852 5.025 4.289-1.175 10.437-2.113 12.3-3.604z" fill="#fff"/>
        <path fill-rule="evenodd" clip-rule="evenodd" d="M246.14 551.849c-.7-.48-7.329.609-13.946 1.239 2.938 2.192 4.308 3.862 7.14 4.958.937.364 8.079-.8 8.197-1.186.537-1.734.541-3.695-1.391-5.011z" fill="#fff"/>
        <path fill-rule="evenodd" clip-rule="evenodd" d="M76.687 654.472c-5.389.39-10.78.784-18.898 1.378 2.99 2.723 4.987 4.537 6.978 6.355 5.19-.671 12.839-.855 14.856-2.148 1.993-1.277-1.723-3.679-2.936-5.585z" fill="#fff"/>
        <path fill-rule="evenodd" clip-rule="evenodd" d="M165.101 607.53c2.572-1.518 1.929-3.719 2.656-5.629-3.221.051-6.437.104-9.651.156-2.913.572-8.199 1.076-8.277 1.727-.206 1.71 1.853 3.486 3.016 5.237 4.242-.463 10.558-.486 12.256-1.491z" fill="#fff"/>
        <path fill-rule="evenodd" clip-rule="evenodd" d="M118.864 630.047c-2.862-.704-11.198-.561-11.975.04-2.169 1.672-1.662 3.768-2.621 7.141 8.463-1.422 14.116-1.915 17.652-3.185 1.447-.521-.465-3.36-3.056-3.996z" fill="#fff"/>
        <path fill-rule="evenodd" clip-rule="evenodd" d="M327.811 499.903c-2.114-.75-7.941-.219-15.756-.295 3.251 2.918 4.04 5.102 7.572 6.202 1.853.577 8.514-.75 12.995-1.216-1.468-1.61-1.781-3.619-4.811-4.691z" fill="#fff"/>
        <path fill-rule="evenodd" clip-rule="evenodd" d="M372.15 473.374c-.773-.48-5.579.204-11.022.486 1.275 2.439 1.063 4.453 3.455 5.535 1.112.503 7.288-.811 11.172-1.305-1.084-1.607-1.493-3.407-3.605-4.716z" fill="#fff"/>
        <path fill-rule="evenodd" clip-rule="evenodd" d="M413.82 448.8c-2.65-.53-8.002.621-13.872 1.207 2.23 2.119 2.713 4.313 5.442 4.685 2.796.382 9.774-.69 11.27-1.742 1.509-1.06-.266-3.634-2.84-4.15z" fill="#fff"/>
        <path fill-rule="evenodd" clip-rule="evenodd" d="M271.087 506.066c-1.3-.488-7.836.587-14.457 1.162 2.645 2.16 4.022 4.585 6.097 4.716 5.172.326 10.673-.393 16.034-.692-2.405-1.773-3.971-3.799-7.674-5.186z" fill="#fff"/>
        <path fill-rule="evenodd" clip-rule="evenodd" d="M396.732 427.501c-1.093-.377-6.717.777-12.9 1.566 3.964 2.324 5.885 4.535 10.094 5.483 2.206.494 8.435-1.233 12.848-1.956-3.227-1.74-5.9-3.665-10.042-5.093z" fill="#fff"/>
        <path fill-rule="evenodd" clip-rule="evenodd" d="M305.057 487.572c8.063-1.296 14.233-1.68 17.095-2.988 1.527-.698-2.668-2.991-4.279-4.562-4.47.628-10.097.874-13.004 2.015-1.971.768-.098 2.792.188 5.535z" fill="#fff"/>
        <path fill-rule="evenodd" clip-rule="evenodd" d="M349.196 461.001c5.181-.671 12.826-.856 14.843-2.151 1.991-1.273-1.709-3.674-2.92-5.582-5.408.399-10.825.797-18.947 1.397 2.996 2.704 5.008 4.52 7.024 6.336z" fill="#fff"/>
        <path fill-rule="evenodd" clip-rule="evenodd" d="M91.38 588.81c-5.522-.487-11.43-.266-17.193-.313.642 1.697.021 4.534 2.194 4.858 4.691.701 10.812.114 18.53.03-1.605-2.217-1.985-4.438-3.532-4.575z" fill="#fff"/>
        <path fill-rule="evenodd" clip-rule="evenodd" d="M113.106 564.582c3.324 2.179 4.939 3.8 7.909 4.845.908.321 7.936-1.025 8.036-1.458.385-1.717.131-3.678-2.009-4.909-.831-.476-7.3.752-13.936 1.522z" fill="#fff"/>
        <path fill-rule="evenodd" clip-rule="evenodd" d="M171.11 536.485c-.733-.515-7.415.52-14.009 1.064 2.741 2.213 3.956 3.913 6.707 5.025.966.392 8.15-.678 8.278-1.032.629-1.741.898-3.74-.976-5.057z" fill="#fff"/>
        <path fill-rule="evenodd" clip-rule="evenodd" d="M300.755 458.717c-4.071-.336-8.821.055-15.725.221 1.714 2.374 2.302 4.952 3.801 4.932 4.178-.057 8.98-1.017 12.956-2.035.902-.23.293-3.009-1.032-3.118z" fill="#fff"/>
        <path fill-rule="evenodd" clip-rule="evenodd" d="M338.159 433.327c-.821-.472-7.32.761-13.951 1.537 3.327 2.169 4.953 3.788 7.93 4.832.913.321 7.933-1.018 8.03-1.455.385-1.719.125-3.678-2.009-4.914z" fill="#fff"/>
        <path fill-rule="evenodd" clip-rule="evenodd" d="M259.318 487.923c1.487-.487-1.245-2.807-2.527-5.149-6.301.857-13.286 1.253-13.695 1.969-1.034 1.83.852 3.804 1.563 5.721 5.014-.793 10.754-1.269 14.659-2.541z" fill="#fff"/>
        <path fill-rule="evenodd" clip-rule="evenodd" d="M214.997 509.826l-15.81 1.861c1.459 2.475 2.428 4.122 3.398 5.772 4.422-.79 10.685-1.202 12.742-2.473 2.071-1.275-.046-3.405-.33-5.16z" fill="#fff"/>
        <path fill-rule="evenodd" clip-rule="evenodd" d="M242.909 464.679c-4.807-.53-10.593.245-18.384.595 2.566 2.145 3.714 4.252 5.487 4.36 5.384.322 11.013-.127 16.55-.277-1.158-1.639-1.436-4.433-3.653-4.678z" fill="#fff"/>
        <path fill-rule="evenodd" clip-rule="evenodd" d="M287.136 438.114l-19.203.488c1.975 2.867 3.3 4.782 4.621 6.7 5.397-.435 13.238-.287 15.517-1.461 2.425-1.255-.403-3.765-.935-5.727z" fill="#fff"/>
        <path fill-rule="evenodd" clip-rule="evenodd" d="M118.563 547.95c.334-1.844-2.077-3.806-4.701-5.406-.561-.339-9.114.438-9.631 1.069-1.513 1.865-.842 3.912-1.116 6.89 7.385-1.169 15.326-1.877 15.448-2.553z" fill="#fff"/>
        <path fill-rule="evenodd" clip-rule="evenodd" d="M62.338 575.22c5.237-.584 12.944-.65 15.03-1.896 2.145-1.278-1.2-3.712-2.146-5.64-5.409.293-10.816.59-19.04 1.035 2.666 2.809 4.407 4.655 6.156 6.501z" fill="#fff"/>
        <path fill-rule="evenodd" clip-rule="evenodd" d="M36.788 598.22c1.537-.438-1.431-3.135-2.98-5.95-7.01 1.816-12.17 2.799-15.757 4.292-1.089.453 2.121 3.364 3.464 3.337 5.204-.098 11.223-.533 15.273-1.679z" fill="#fff"/>
        <path fill-rule="evenodd" clip-rule="evenodd" d="M40.394 708.066c3.426.453 8.942-.85 13.543-1.384-1.704-1.59-2.233-3.865-5.455-4.568-3.044-.668-8.905.312-17.037.766 4.068 2.53 5.48 4.726 8.95 5.186z" fill="#fff"/>
        <path fill-rule="evenodd" clip-rule="evenodd" d="M93.088 675.658c-2.903-.839-8.985-.172-17.08-.162 2.922 2.716 3.443 5.021 6.598 5.624 3.33.641 9.176-.338 13.921-.61-1.011-1.678-.604-4.034-3.439-4.852z" fill="#fff"/>
        <path fill-rule="evenodd" clip-rule="evenodd" d="M97.722 701.975c5.125.132 10.359-.551 15.545-.91-1.519-1.552-1.81-3.876-4.836-4.48-4.595-.918-11.081-.641-21.955-1.086 7.615 4.504 9.31 6.428 11.246 6.476z" fill="#fff"/>
        <path fill-rule="evenodd" clip-rule="evenodd" d="M323.756 593.152l12.392-2.606c-1.294-1.155-1.766-2.769-4.126-3.33-2.139-.51-6.329.129-12.583.379 1.988 2.551 3.151 4.055 4.317 5.557z" fill="#fff"/>
        <path fill-rule="evenodd" clip-rule="evenodd" d="M279.255 619.65c4.479-.66 10.787-.889 12.933-2.095 2.278-1.283.611-3.491.666-5.295l-15.767 1.359c.93 2.589 1.547 4.312 2.168 6.031z" fill="#fff"/>
        <path fill-rule="evenodd" clip-rule="evenodd" d="M249.427 643.713c.905-1.522-.699-3.311-1.236-4.988-4.359.07-11.867-.301-12.434.302-1.267 1.343.924 3.174 3.239 7.989 5.608-1.693 9.839-2.305 10.431-3.303z" fill="#fff"/>
        <path fill-rule="evenodd" clip-rule="evenodd" d="M198.39 671.764c.898.31 7.913-1.071 8.004-1.524.349-1.716.035-3.689-2.191-4.89-.882-.476-7.397.813-13.935 1.619 3.406 2.148 5.102 3.756 8.122 4.795z" fill="#fff"/>
        <path fill-rule="evenodd" clip-rule="evenodd" d="M150.921 697.658c7.171-1.418 12.604-2.124 16.501-3.46 1.45-.498-.368-3.581-1.292-3.591-5.257-.071-11.255.02-15.78.962-1.617.336.176 3.208.571 6.089z" fill="#fff"/>
        <path fill-rule="evenodd" clip-rule="evenodd" d="M583.014 430.039c-2.936 1.941-5.873 3.882-8.809 5.825l14.477-.496a944.284 944.284 0 0 1-5.668-5.329z" fill="#fff"/>
        <path fill-rule="evenodd" clip-rule="evenodd" d="M529.573 458.541c-.056 1.476 2.715 3.11 4.348 4.682 4.316-.592 9.443-.921 12.521-1.914 1.065-.342-2.961-2.328-5.708-4.32-5.102.664-11.141.938-11.161 1.552z" fill="#fff"/>
        <path fill-rule="evenodd" clip-rule="evenodd" d="M490.362 489.916c4.486-.658 10.802-.884 12.94-2.088 2.283-1.286.609-3.496.662-5.302l-15.76 1.367 2.158 6.023z" fill="#fff"/>
        <path fill-rule="evenodd" clip-rule="evenodd" d="M378.29 561.086c-4.126-.357-8.921-.018-15.865.096 1.563 2.382 1.883 4.955 3.538 4.977 4.025.048 8.936-.889 12.885-1.884 1.017-.256.663-3.085-.558-3.189z" fill="#fff"/>
        <path fill-rule="evenodd" clip-rule="evenodd" d="M459.977 514.448c.928-1.765 1.686-3.757.234-5.221-.508-.513-7.41.248-14.138.553 2.174 2.271 2.953 4.037 5.45 5.227.996.473 8.313-.284 8.454-.559z" fill="#fff"/>
        <path fill-rule="evenodd" clip-rule="evenodd" d="M417.697 533.537c-7.232 1.393-15.064 2.329-15.051 3.01.033 1.853 2.958 3.712 5.834 5.27.488.266 8.874-.78 9.35-1.494 1.25-1.856.129-3.864-.133-6.786z" fill="#fff"/>
        <path fill-rule="evenodd" clip-rule="evenodd" d="M531.59 437.321c-4.929-.547-10.798.15-18.47.419 2.291 2.162 3.231 4.296 4.921 4.408 5.437.365 11.153-.015 16.764-.109-1.013-1.651-1.126-4.485-3.215-4.718z" fill="#fff"/>
        <path fill-rule="evenodd" clip-rule="evenodd" d="M494.263 466.951c1.508-.93-1.739-2.83-3.384-4.911-5.99.789-12.174.957-13.235 1.925-1.077.989 1.953 3.474 4.909 3.998 3.005.531 10.23-.097 11.71-1.012z" fill="#fff"/>
        <path fill-rule="evenodd" clip-rule="evenodd" d="M437.26 494.273c1.432.612 8.842-.359 13.533-.611-1.779-1.807-2.751-3.786-5.736-5.339-1.166-.606-6.849-.257-13.573-.419 2.263 2.822 2.541 4.987 5.776 6.369z" fill="#fff"/>
        <path fill-rule="evenodd" clip-rule="evenodd" d="M408.02 519.944c2.59-1.519 1.981-3.722 2.735-5.634-3.243.058-6.49.113-9.73.171-2.916.568-8.21 1.073-8.286 1.721-.204 1.705 1.862 3.47 3.025 5.212 4.246-.455 10.558-.469 12.256-1.47z" fill="#fff"/>
        <path fill-rule="evenodd" clip-rule="evenodd" d="M347.955 543.19l4.998 5.068c4.712-.894 11.514-1.412 13.519-2.786 1.896-1.299.358-4.239-2.602-5.109-3.739-1.1-10.446-.837-15.868-1.16-.019 1.328-.033 2.657-.047 3.987z" fill="#fff"/>
        <path fill-rule="evenodd" clip-rule="evenodd" d="M151.841 669.901c-4.101-1.152-11.44-.853-21.426-1.401 6.232 5.644 8.223 7.442 10.206 9.241 5.099-.775 12.584-1.105 14.605-2.46 1.95-1.309-.023-4.44-3.385-5.38z" fill="#fff"/>
        <path fill-rule="evenodd" clip-rule="evenodd" d="M180.973 646.279c-1.142 1.869.1 3.87.534 6.769 7.127-1.457 14.944-2.469 14.888-3.153-.148-1.857-3.237-3.686-6.194-5.236-.461-.242-8.782.89-9.228 1.62z" fill="#fff"/>
        <path fill-rule="evenodd" clip-rule="evenodd" d="M240.03 623.074c-.271-1.86-3.555-3.646-6.614-5.177-.442-.219-8.726 1.027-9.129 1.777-1.016 1.899.387 3.902 1.019 6.733 7.034-1.539 14.819-2.64 14.724-3.333z" fill="#fff"/>
        <path fill-rule="evenodd" clip-rule="evenodd" d="M264.734 594.776c-1.458.876 1.834 2.742 3.598 4.831 5.858-.744 12.007-.886 12.983-1.825 1.011-.976-2.992-2.721-4.8-4.131-4.121.335-10.309.238-11.781 1.125z" fill="#fff"/>
        <path fill-rule="evenodd" clip-rule="evenodd" d="M309.962 572.492c5.167-.084 11.163-.534 15.21-1.677 1.537-.435-1.369-3.122-2.875-5.941-7.084 1.815-12.246 2.786-15.843 4.273-1.08.445 2.122 3.371 3.508 3.345z" fill="#fff"/>
        <path fill-rule="evenodd" clip-rule="evenodd" d="M471.695 442.865c-2.888-.807-8.91-.098-17.079-.018 3.123 2.699 3.784 4.987 6.979 5.561 3.364.606 9.144-.428 13.867-.744-1.125-1.663-.879-3.989-3.767-4.799z" fill="#fff"/>
        <path fill-rule="evenodd" clip-rule="evenodd" d="M433.19 473.604c1.44-2.016.819-5.285-2.537-6.09-3.38-.813-11.072.738-18.442 1.391 2.824 2.867 3.332 5.512 7.063 6.446 2.594.647 13.283-.861 13.916-1.747z" fill="#fff"/>
        <path fill-rule="evenodd" clip-rule="evenodd" d="M378.351 500.03c3.397.521 9.036-.668 13.693-1.107-1.472-1.624-1.684-3.933-4.777-4.682-2.994-.723-8.95.154-17.029.457 3.646 2.578 4.748 4.816 8.113 5.332z" fill="#fff"/>
        <path fill-rule="evenodd" clip-rule="evenodd" d="M335.109 526.78c3.436.481 9.001-.76 13.631-1.251-1.599-1.607-1.973-3.929-5.135-4.623-3.142-.687-9.092.263-17.091.658 3.878 2.524 5.172 4.735 8.595 5.216z" fill="#fff"/>
        <path fill-rule="evenodd" clip-rule="evenodd" d="M311.03 544.759c-12.256 1.866-16.159 2.46-20.064 3.056 1.555 1.406 2.095 3.494 4.961 4.024 2.776.518 9.557-.101 11.649-1.058 2.555-1.172 2.064-3.215 3.454-6.022z" fill="#fff"/>
        <path fill-rule="evenodd" clip-rule="evenodd" d="M248.576 580.297l15.505-2.745c-.768-1.684-.083-4.236-2.714-4.809-2.664-.577-8.608.8-13.119 1.32.093 1.781.19 3.561.328 6.234z" fill="#fff"/>
        <path fill-rule="evenodd" clip-rule="evenodd" d="M223.619 602.414c1.901-1.136-.558-4.021-3.593-5.058-1.715-.587-11.308.684-12.355 1.657-1.843 1.703.172 3.821.64 6.106 5.953-.959 13.013-1.326 15.308-2.705z" fill="#fff"/>
        <path fill-rule="evenodd" clip-rule="evenodd" d="M123.314 650.833c1.419 1.376 1.814 3.407 4.555 3.946 2.688.531 7.756-.449 11.784-.768l-2.905-5.044c-5.76.801-9.598 1.335-13.434 1.866z" fill="#fff"/>
        <path fill-rule="evenodd" clip-rule="evenodd" d="M167.823 629.894l13.733-1.63c-1.233-1.396-1.365-3.448-4.002-4.007-2.693-.572-7.847.321-11.921.573l2.19 5.064z" fill="#fff"/>
        <path fill-rule="evenodd" clip-rule="evenodd" d="M426.47 563.317c5.175-.667 12.847-.846 14.823-2.135 1.981-1.294-1.714-3.69-2.92-5.603-5.409.404-10.822.809-18.942 1.413 3.001 2.696 5.022 4.509 7.039 6.325z" fill="#fff"/>
        <path fill-rule="evenodd" clip-rule="evenodd" d="M170.915 717.007c5.22.536 11.088.108 16.697.058-1.686-1.823-2.369-3.881-5.55-5.357-1.331-.619-7.999.004-14.562.093 1.464 2.417 1.631 5.024 3.415 5.206z" fill="#fff"/>
        <path fill-rule="evenodd" clip-rule="evenodd" d="M213.441 687.981c-2.499 1.35-.5 3.77-.463 7.125 8.073-1.804 14.918-2.515 16.841-3.995 1.934-1.485-1.028-3.736-1.842-5.651-5.027.796-11.973 1.138-14.536 2.521z" fill="#fff"/>
        <path fill-rule="evenodd" clip-rule="evenodd" d="M259.649 666.506c1.907.514 8.523-1.067 13.007-1.698-2.927-1.747-5.253-3.678-9.146-5.127-1.12-.418-6.749.545-13.028 1.129 3.593 2.428 5.15 4.61 9.167 5.696z" fill="#fff"/>
        <path fill-rule="evenodd" clip-rule="evenodd" d="M307.763 633.14c-1.123-.47-6.812.287-13.286.635 3.186 2.546 4.334 4.704 8.098 5.904 1.698.543 8.591-.824 13.125-1.322-2.517-1.776-4.376-3.723-7.937-5.217z" fill="#fff"/>
        <path fill-rule="evenodd" clip-rule="evenodd" d="M341.971 614.69c8.046-1.295 14.173-1.695 17.12-3.005 1.511-.669-2.687-2.98-4.313-4.547-4.464.627-10.099.875-12.991 2.011-1.966.777-.098 2.806.184 5.541z" fill="#fff"/>
        <path fill-rule="evenodd" clip-rule="evenodd" d="M384.293 587.745l15.369-.98-3.195-6.701c-6.385 1.568-11.292 2.162-12.751 3.298-1.532 1.191.244 2.901.577 4.383z" fill="#fff"/>
        <path fill-rule="evenodd" clip-rule="evenodd" d="M475.466 530.129c-1.137-.474-6.865.296-13.387.658 3.202 2.53 4.36 4.699 8.139 5.869 1.779.549 8.604-.823 13.142-1.324-2.505-1.767-4.336-3.719-7.894-5.203z" fill="#fff"/>
        <path fill-rule="evenodd" clip-rule="evenodd" d="M607.244 478.243l14.84-1.718c-1.666-1.355-2.344-3.161-5.264-3.936-2.856-.758-7.998-.465-15.739-.781l6.163 6.435z" fill="#fff"/>
        <path fill-rule="evenodd" clip-rule="evenodd" d="M528.254 530.741c.916.312 7.918-1.069 8.007-1.515.343-1.719-.016-3.666-2.194-4.899-.807-.459-7.321.813-13.941 1.632 3.401 2.141 5.107 3.748 8.128 4.782z" fill="#fff"/>
        <path fill-rule="evenodd" clip-rule="evenodd" d="M273.75 684.66c2.636.524 8.844.338 10.119-.312 1.266-.648-.644-2.703-3.055-3.321-2.37-.607-7.12-.179-12.687-.221 2.27 1.68 3.054 3.345 5.623 3.854z" fill="#fff"/>
        <path fill-rule="evenodd" clip-rule="evenodd" d="M226.184 713.073c7.286-1.251 15.209-2.06 15.272-2.724.163-1.857-2.441-3.779-5.157-5.369-.519-.306-9.017.59-9.521 1.257-1.405 1.866-.546 3.901-.594 6.836z" fill="#fff"/>
        <path fill-rule="evenodd" clip-rule="evenodd" d="M325.47 658.739c.141-1.52-1.797-3.177-2.914-4.783-4.141.196-11.429.045-11.763.66-.74 1.344 2.048 3.078 4.026 5.388 5.297-.588 10.604-.751 10.651-1.265z" fill="#fff"/>
        <path fill-rule="evenodd" clip-rule="evenodd" d="M365.941 627.231c-5.102.776-12.598 1.102-14.617 2.457-1.948 1.308.033 4.443 3.392 5.383 4.109 1.15 11.452.845 21.434 1.389-6.231-5.631-8.221-7.429-10.209-9.229z" fill="#fff"/>
        <path fill-rule="evenodd" clip-rule="evenodd" d="M410.222 600.689c-6.542.664-13.742.891-14.171 1.537-1.252 1.864.22 3.898.628 5.862 5.081-.699 10.837-1.066 14.911-2.263 1.581-.468-.621-2.815-1.368-5.136z" fill="#fff"/>
        <path fill-rule="evenodd" clip-rule="evenodd" d="M494.408 554.96c1.029-.971-2.924-2.722-4.703-4.129-4.147.329-10.31.23-11.871 1.118-1.493.85 1.811 2.73 3.562 4.811 5.893-.736 12.032-.865 13.012-1.8z" fill="#fff"/>
        <path fill-rule="evenodd" clip-rule="evenodd" d="M449.966 575.762c-5.684.222-11.516.092-11.71.521-.686 1.54.533 3.267 1.033 4.923 4.412-.002 11.984.483 12.601-.106 1.339-1.278-.872-3.106-1.924-5.338z" fill="#fff"/>
        <path fill-rule="evenodd" clip-rule="evenodd" d="M587.262 506.736c-6.24-5.647-8.225-7.443-10.213-9.24-5.095.777-12.585 1.103-14.594 2.457-1.952 1.311.012 4.443 3.372 5.385 4.102 1.149 11.44.849 21.435 1.398z" fill="#fff"/>
        <path fill-rule="evenodd" clip-rule="evenodd" d="M659.209 445.655c-.782-.348-5.643.766-10.915 1.548 2.183 2.143 2.8 4.115 5.72 5.003 1.335.407 7.224-1.325 11.048-2.089-1.839-1.527-3.142-3.247-5.853-4.462z" fill="#fff"/>
        <path fill-rule="evenodd" clip-rule="evenodd" d="M603.921 452.125c-3.687.795-8.677 1.305-10.669 2.467-1.779 1.033-.238 2.789-.097 5.503l17.344-2.886c-2.19-1.694-4.388-3.39-6.578-5.084z" fill="#fff"/>
        <path fill-rule="evenodd" clip-rule="evenodd" d="M511.196 505.032c-1.408 1.863-.549 3.898-.605 6.833 7.297-1.251 15.227-2.055 15.287-2.722.162-1.856-2.448-3.778-5.167-5.371-.52-.303-9.007.591-9.515 1.26z" fill="#fff"/>
        <path fill-rule="evenodd" clip-rule="evenodd" d="M551.137 484.53c5.163.33 10.657-.388 16.013-.684-2.388-1.776-3.928-3.807-7.627-5.186-1.323-.497-7.89.584-14.497 1.157 2.65 2.158 4.017 4.581 6.111 4.713z" fill="#fff"/>
        <path fill-rule="evenodd" clip-rule="evenodd" d="M583.16 524.17c3.408.488 8.979-.758 13.601-1.244-1.597-1.612-1.972-3.91-5.139-4.636-3.033-.694-8.962.249-17.03.637 3.86 2.536 5.135 4.752 8.568 5.243z" fill="#fff"/>
        <path fill-rule="evenodd" clip-rule="evenodd" d="M371.187 653.742c3.368.607 9.159-.427 13.896-.743-1.137-1.664-.894-3.998-3.793-4.802-2.912-.809-8.956-.086-17.079.004 3.102 2.669 3.773 4.961 6.976 5.541z" fill="#fff"/>
        <path fill-rule="evenodd" clip-rule="evenodd" d="M326.089 685.205c7.113-2.377 12.997-3.599 15.122-5.287 1.74-1.384.48-4.174-2.154-4.774-2.727-.623-8.713.638-13.273 1.076.061 1.785.12 3.57.305 8.985z" fill="#fff"/>
        <path fill-rule="evenodd" clip-rule="evenodd" d="M285.865 707.492c6.306-1.059 13.258-1.458 14.954-2.723 1.741-1.297-.6-3.748-3.367-5.059-1.072-.505-10.462.293-11.977 1.279-2.02 1.315-.056 3.396.39 6.503z" fill="#fff"/>
        <path fill-rule="evenodd" clip-rule="evenodd" d="M403.853 623.84c3.848 2.548 5.115 4.775 8.536 5.257 3.432.484 9.007-.77 13.645-1.264-1.605-1.604-2.004-3.889-5.171-4.613-3.025-.694-8.93.24-17.01.62z" fill="#fff"/>
        <path fill-rule="evenodd" clip-rule="evenodd" d="M463.886 596.417c-3.054-.637-8.907.422-16.974.965 4.236 2.46 5.801 4.64 9.326 5.068 3.489.424 8.947-.921 13.533-1.489-1.844-1.583-2.566-3.851-5.885-4.544z" fill="#fff"/>
        <path fill-rule="evenodd" clip-rule="evenodd" d="M489.479 571.226c2.836 2.866 3.356 5.506 7.087 6.445 2.582.65 13.263-.863 13.892-1.746 1.44-2.02.839-5.29-2.509-6.092-3.384-.814-11.072.737-18.47 1.393z" fill="#fff"/>
        <path fill-rule="evenodd" clip-rule="evenodd" d="M540.48 551.056c2.67.528 8.571-.962 13.053-1.564l-1.077-6.158a24943.97 24943.97 0 0 1-15.32 3.015c.984 1.652.589 4.162 3.344 4.707z" fill="#fff"/>
        <path fill-rule="evenodd" clip-rule="evenodd" d="M636.274 491.821a53832.92 53832.92 0 0 1-15.331 3.029c.984 1.647.588 4.163 3.335 4.688 2.719.524 8.604-.96 13.093-1.564-.314-1.757-.629-3.515-1.097-6.153z" fill="#fff"/>
        <path fill-rule="evenodd" clip-rule="evenodd" d="M640.143 520.595c5.098-.778 12.572-1.104 14.609-2.461 1.953-1.305-.012-4.44-3.364-5.376-4.118-1.151-11.451-.855-21.446-1.407 6.244 5.657 8.22 7.451 10.201 9.244z" fill="#fff"/>
        <path fill-rule="evenodd" clip-rule="evenodd" d="M595.672 544.532c5.401.317 11.032-.125 16.574-.275-1.15-1.636-1.416-4.423-3.63-4.672-4.796-.533-10.596.24-18.402.585 2.57 2.157 3.711 4.257 5.458 4.362z" fill="#fff"/>
        <path fill-rule="evenodd" clip-rule="evenodd" d="M347.371 699.731c3.484.584 8.082-.088 12.195-.21-2.276-1.318-3.747-3.145-7.045-3.814-3.418-.694-8.616-.264-14.86-.35 4.133 1.959 6.346 3.812 9.71 4.374z" fill="#fff"/>
        <path fill-rule="evenodd" clip-rule="evenodd" d="M301.652 721.972c.101 1.544 2.372 3.188 3.785 4.791 4.027-.329 10.215-.226 11.566-1.089 2.046-1.306.73-3.285.936-6.525-11.325 1.899-16.322 2.244-16.287 2.823z" fill="#fff"/>
        <path fill-rule="evenodd" clip-rule="evenodd" d="M400.312 667.339c-7.117 1.616-12.422 2.453-16.156 3.867-1.256.479 1.282 3.487 2.429 3.481 5.217-.02 11.217-.303 15.507-1.35 1.568-.385-.808-3.159-1.78-5.998z" fill="#fff"/>
        <path fill-rule="evenodd" clip-rule="evenodd" d="M484.259 622.842c.343-1.84-2.093-3.799-4.723-5.399-.557-.336-9.096.432-9.632 1.076-1.545 1.847-.871 3.892-1.174 6.872 7.458-1.172 15.404-1.872 15.529-2.549z" fill="#fff"/>
        <path fill-rule="evenodd" clip-rule="evenodd" d="M445.069 640.894c-8.362 1.602-15.271 2.131-17.365 3.543-2.19 1.476.258 3.803.678 5.759 5.131-.658 12.133-.803 14.856-2.115 2.738-1.32 1.23-3.795 1.831-7.187z" fill="#fff"/>
        <path fill-rule="evenodd" clip-rule="evenodd" d="M570.647 569.808c.872-.75-3.194-3.026-6.675-3.765-3.328-.709-8.676-.304-15.171-.427 4.312 2.001 6.628 3.873 10.149 4.479 3.513.608 10.875.431 11.697-.287z" fill="#fff"/>
        <path fill-rule="evenodd" clip-rule="evenodd" d="M521.784 590.479c-.907-.357-8.067.804-8.196 1.203-.557 1.726-.573 3.693 1.387 4.993.739.491 7.346-.593 13.925-1.207-2.925-2.199-4.296-3.873-7.116-4.989z" fill="#fff"/>
        <path fill-rule="evenodd" clip-rule="evenodd" d="M778.548 462.456c4.509-.618 10.826-.781 13.033-1.97 2.355-1.271.834-3.515 1.004-5.331-4.518.342-9.035.686-15.772 1.194.743 2.623 1.243 4.365 1.735 6.107z" fill="#fff"/>
        <path fill-rule="evenodd" clip-rule="evenodd" d="M356.301 721.919c4.507-.618 10.824-.781 13.032-1.972 2.359-1.27.832-3.511 1.006-5.327-4.517.34-9.035.681-15.776 1.193.747 2.619 1.244 4.362 1.738 6.106z" fill="#fff"/>
        <path fill-rule="evenodd" clip-rule="evenodd" d="M415.059 692.538c-2.432-1.152-4.449-3.087-7.39-3.269-3.953-.246-10.695.447-12.357 1.504-1.513.962.914 3.694 3.841 4.311 4.402.928 10.751.692 16.273.951l-.367-3.497z" fill="#fff"/>
        <path fill-rule="evenodd" clip-rule="evenodd" d="M458.662 661.485c-12.04 1.6-17.719 1.845-20.45 2.939-1.271.511 3.182 2.671 5.046 4.08 4.485-.69 9.777-1.099 13.166-2.174 2.081-.658 1.254-2.335 2.238-4.845z" fill="#fff"/>
        <path fill-rule="evenodd" clip-rule="evenodd" d="M740.85 487.794c.936.363 8.075-.797 8.2-1.188.541-1.731.585-3.715-1.392-5.008-.75-.494-7.409.616-13.952 1.24 2.937 2.188 4.308 3.858 7.144 4.956z" fill="#fff"/>
        <path fill-rule="evenodd" clip-rule="evenodd" d="M704.902 513.747c.908-1.771 1.674-3.764.222-5.229-.516-.518-7.373.239-14.085.536 2.174 2.287 2.936 4.057 5.421 5.248.996.473 8.309-.291 8.442-.555z" fill="#fff"/>
        <path fill-rule="evenodd" clip-rule="evenodd" d="M655.72 538.994c4.328-.321 8.757-1.597 12.63-2.783.524-.159-1.424-2.761-3.135-2.822-4.154-.151-8.841.529-15.473 1.041 2.747 2.194 4.462 4.677 5.978 4.564z" fill="#fff"/>
        <path fill-rule="evenodd" clip-rule="evenodd" d="M564.714 586.736c-1.622 1.509 1.843 3.657 3.074 5.526 4.908-.945 11.77-1.486 14.149-2.948 2.235-1.368-.278-3.709-1.024-7.082-7.882 2.073-14.553 2.975-16.199 4.504z" fill="#fff"/>
        <path fill-rule="evenodd" clip-rule="evenodd" d="M610.29 565.356c4.63-.577 10.406-.77 13.512-1.856 2.308-.809 1.154-2.775 1.791-5.185-11.076 1.158-17.607 1.345-17.857 1.964-.629 1.589 1.517 3.371 2.554 5.077z" fill="#fff"/>
        <path fill-rule="evenodd" clip-rule="evenodd" d="M480.666 638.337c-1.134 1.281 1.375 3.075 2.811 5.338 5.587-.388 11.205-.388 11.342-.859.44-1.521-1.129-3.217-1.924-4.844-4.291.09-11.681-.255-12.229.365z" fill="#fff"/>
        <path fill-rule="evenodd" clip-rule="evenodd" d="M529.888 617.56c.944.348 8.067-.903 8.18-1.318.48-1.72.351-3.682-1.694-4.95-.771-.48-7.325.679-13.952 1.376 3.097 2.178 4.562 3.83 7.466 4.892z" fill="#fff"/>
        <path fill-rule="evenodd" clip-rule="evenodd" d="M680.495 489.138c-1.17 1.863.076 3.86.488 6.754 7.16-1.451 14.985-2.463 14.924-3.131-.173-1.865-3.239-3.692-6.187-5.25-.452-.237-8.769.89-9.225 1.627z" fill="#fff"/>
        <path fill-rule="evenodd" clip-rule="evenodd" d="M739.381 466.045c-.173-1.864-3.243-3.687-6.195-5.243-.452-.242-8.769.893-9.221 1.622-1.154 1.868.077 3.87.488 6.76 7.144-1.45 14.989-2.467 14.928-3.139z" fill="#fff"/>
        <path fill-rule="evenodd" clip-rule="evenodd" d="M680.696 471.309c1.303-1.126-.572-3.529-3.222-4.117-2.747-.613-8.12.273-12.339.503.504 1.512 1.012 3.024 2.573 7.671 6.135-1.815 11.399-2.686 12.988-4.057z" fill="#fff"/>
        <path fill-rule="evenodd" clip-rule="evenodd" d="M718.83 440.05l-18.812 1.804c2.549 2.354 3.299 4.962 7.22 5.992 2.605.683 13.436-.595 14.133-1.523 1.44-1.903-1.44-4.161-2.541-6.273z" fill="#fff"/>
        <path fill-rule="evenodd" clip-rule="evenodd" d="M714.615 535.848c5.224-.624 12.928-.741 14.965-2.009 2.061-1.283-1.472-3.703-2.553-5.625-5.422.346-10.831.693-18.942 1.209 2.799 2.751 4.663 4.588 6.53 6.425z" fill="#fff"/>
        <path fill-rule="evenodd" clip-rule="evenodd" d="M504.303 665.745c5.09-.768 12.661-1.089 14.569-2.435 1.815-1.284-2.267-3.64-3.755-5.524l-18.745 1.731c3.393 2.663 5.66 4.445 7.931 6.228z" fill="#fff"/>
        <path fill-rule="evenodd" clip-rule="evenodd" d="M476.277 689.487c1.634-1.026-1.496-3.004-2.501-4.556-4.493.301-10.064.164-13.113 1.056-2.239.654-1.174 2.664-1.577 4.069 1.532.995 3.065 1.99 4.598 2.983 4.364-1.151 10.153-2.017 12.593-3.552z" fill="#fff"/>
        <path fill-rule="evenodd" clip-rule="evenodd" d="M416.402 716.408c5.207.451 10.927-.086 16.449-.233-1.948-1.799-2.936-3.845-6.3-5.277-1.348-.571-7.963.216-14.578.48 1.92 2.329 2.561 4.87 4.429 5.03z" fill="#fff"/>
        <path fill-rule="evenodd" clip-rule="evenodd" d="M632.168 587.642c2.586.543 11.121-.807 13.275-2.105 3.247-1.957 3.214-4.603 4.578-6.957l-10.415.536c-3.735 1.147-9.798 2.207-10.645 3.458-1.161 1.704.194 4.433 3.207 5.068z" fill="#fff"/>
        <path fill-rule="evenodd" clip-rule="evenodd" d="M544.501 634.392c-1.06 1.866.335 3.849.932 6.711 7.107-1.538 14.949-2.657 14.836-3.321-.331-1.865-3.574-3.648-6.652-5.175-.451-.223-8.688 1.023-9.116 1.785z" fill="#fff"/>
        <path fill-rule="evenodd" clip-rule="evenodd" d="M588.621 614.335c7.14-1.448 14.989-2.466 14.925-3.137-.166-1.863-3.231-3.689-6.184-5.242-.456-.243-8.797.897-9.237 1.622-1.133 1.896.097 3.913.496 6.757z" fill="#fff"/>
        <path fill-rule="evenodd" clip-rule="evenodd" d="M680.003 554.208c-1.331-.472-7.842.697-14.477 1.367 2.856 2.101 4.465 4.486 6.583 4.603 5.195.282 10.624-.486 15.957-.83-2.533-1.763-4.248-3.783-8.063-5.14z" fill="#fff"/>
        <path fill-rule="evenodd" clip-rule="evenodd" d="M756.468 504.117c-.706 1.529.532 3.253 1.033 4.903 4.424-.001 11.963.495 12.637-.109 1.391-1.255-.867-3.092-1.924-5.327-5.712.229-11.544.095-11.746.533z" fill="#fff"/>
        <path fill-rule="evenodd" clip-rule="evenodd" d="M806.436 475.811c-1.089-.41-6.724.556-12.96 1.14 3.598 2.426 5.171 4.594 9.189 5.703 1.839.511 8.483-1.058 12.956-1.685-2.937-1.757-5.292-3.689-9.185-5.158z" fill="#fff"/>
        <path fill-rule="evenodd" clip-rule="evenodd" d="M849.608 451.572c-3.34.384-7.954.452-9.648 1.238-1.582.737-.061 2.231.238 4.466 7.409-.588 11.737-.936 16.061-1.281l-6.651-4.423z" fill="#fff"/>
        <path fill-rule="evenodd" clip-rule="evenodd" d="M730.842 554.424c1.271.451 7.241-1.094 11.081-1.737-1.497-1.565-2.396-3.326-4.837-4.585-.77-.398-5.643.538-11.036 1.121 1.82 2.256 2.086 4.247 4.792 5.201z" fill="#fff"/>
        <path fill-rule="evenodd" clip-rule="evenodd" d="M520.457 684.317c1.65.379 7.232-1.479 11.036-2.326-2.085-1.507-3.67-3.208-6.603-4.389-.766-.313-5.683.983-10.951 1.959 2.509 2.032 3.384 4.034 6.518 4.756z" fill="#fff"/>
        <path fill-rule="evenodd" clip-rule="evenodd" d="M473.716 710.355c5.094-.647 10.87-.946 14.96-2.109 1.67-.474-.294-2.822-.794-5.163-6.692.598-13.969.745-14.445 1.387-1.371 1.854-.012 3.912.279 5.885z" fill="#fff"/>
        <path fill-rule="evenodd" clip-rule="evenodd" d="M556.921 653.168c-1.089.986 1.912 3.48 4.848 3.995 3.034.533 10.153-.084 11.758-1.001 1.537-.876-1.71-2.788-3.384-4.912-5.965.786-12.153.952-13.222 1.918z" fill="#fff"/>
        <path fill-rule="evenodd" clip-rule="evenodd" d="M640.288 601.958c-2.816 1.308-1.493 3.794-2.336 7.219 8.431-1.524 15.401-1.994 17.55-3.388 2.275-1.477-.032-3.835-.342-5.806-5.127.608-12.109.693-14.872 1.975z" fill="#fff"/>
        <path fill-rule="evenodd" clip-rule="evenodd" d="M685.061 580.67c5.07-.682 10.854-1.021 14.86-2.219 1.625-.485-.63-2.844-1.392-5.198-6.51.689-13.658.916-14.134 1.59-1.278 1.843.25 3.871.666 5.827z" fill="#fff"/>
        <path fill-rule="evenodd" clip-rule="evenodd" d="M614.005 631.228c.02-1.516-2.082-3.156-3.344-4.747-4.07.242-11.319.175-11.565.786-.56 1.378 2.352 3.094 4.554 5.409 5.18-.681 10.347-.912 10.355-1.448z" fill="#fff"/>
        <path fill-rule="evenodd" clip-rule="evenodd" d="M766.399 524.43c-1.525.896 1.718 2.795 3.384 4.913 5.974-.788 12.173-.956 13.234-1.926 1.077-.989-1.952-3.462-4.933-4.003-2.949-.533-10.128.101-11.685 1.016z" fill="#fff"/>
        <path fill-rule="evenodd" clip-rule="evenodd" d="M823.148 497.064c-.666-.491-7.325.519-13.953 1.07 2.723 2.21 3.929 3.911 6.672 5.025.972.392 8.184-.68 8.305-1.026.605-1.743.807-3.72-1.024-5.069z" fill="#fff"/>
        <path fill-rule="evenodd" clip-rule="evenodd" d="M865.065 470.002c-4.994.849-11.928 1.257-14.432 2.669-2.404 1.355-.21 3.752.084 7.111 7.999-1.902 14.771-2.682 16.611-4.182 1.827-1.489-1.307-3.702-2.263-5.598z" fill="#fff"/>
        <path fill-rule="evenodd" clip-rule="evenodd" d="M743.028 574.736c3.311.675 9.209-.246 13.972-.471-.899-1.697-.339-4.048-3.106-4.904-2.811-.87-8.914-.26-17.058-.329 2.739 2.756 3.102 5.076 6.192 5.704z" fill="#fff"/>
        <path fill-rule="evenodd" clip-rule="evenodd" d="M659.589 626.327c3.36.608 9.152-.42 13.879-.733-1.133-1.669-.883-4.017-3.783-4.814-2.945-.81-9.011-.084-17.07.004 3.101 2.673 3.767 4.96 6.974 5.543z" fill="#fff"/>
        <path fill-rule="evenodd" clip-rule="evenodd" d="M566.836 673.493c2.847 2.925 3.335 5.558 7.046 6.501 2.546.649 13.186-.852 13.856-1.756 1.48-2.001.867-5.269-2.465-6.079-3.384-.817-11.06.701-18.437 1.334z" fill="#fff"/>
        <path fill-rule="evenodd" clip-rule="evenodd" d="M615.259 655.403l15.086-3.311c-1.214-1.614-1.13-4.094-4.014-4.594-2.714-.47-8.563 1.151-13.036 1.852.56 1.73 1.121 3.459 1.964 6.053z" fill="#fff"/>
        <path fill-rule="evenodd" clip-rule="evenodd" d="M532.877 704.656c3.42.516 9.063-.67 13.734-1.111-1.484-1.621-1.706-3.928-4.796-4.674-2.997-.725-8.954.156-17.034.463 3.634 2.571 4.74 4.812 8.096 5.322z" fill="#fff"/>
        <path fill-rule="evenodd" clip-rule="evenodd" d="M489.427 731.37c3.404.52 9.043-.67 13.706-1.111-1.473-1.624-1.686-3.932-4.78-4.678-3.001-.724-8.959.155-17.034.459 3.638 2.578 4.748 4.817 8.108 5.33z" fill="#fff"/>
        <path fill-rule="evenodd" clip-rule="evenodd" d="M714.599 594.351c-6.752 1.04-11.25 1.734-15.751 2.43.524 1.721-.5 4.33 2 4.927 2.671.635 8.677-.631 13.223-1.065.153-1.803.302-3.606.528-6.292z" fill="#fff"/>
        <path fill-rule="evenodd" clip-rule="evenodd" d="M782.251 545.536c-1.848.938-.101 4.415 1.944 4.545 4.215.269 9.697-.936 14.662-1.537-.665-1.88-1.327-3.762-2.134-6.053-5.606 1.091-11.665 1.622-14.472 3.045z" fill="#fff"/>
        <path fill-rule="evenodd" clip-rule="evenodd" d="M836.947 517.668c-2.981-.752-8.983.081-17.042.32 3.444 2.593 4.412 4.853 7.736 5.391 3.388.551 9.092-.587 13.779-.989-1.368-1.639-1.436-3.96-4.473-4.722z" fill="#fff"/>
        <path fill-rule="evenodd" clip-rule="evenodd" d="M867.771 492.981c1.557 1.408 2.098 3.493 4.97 4.03 2.767.517 9.551-.106 11.641-1.066 2.557-1.171 2.065-3.216 3.453-6.016l-20.064 3.052z" fill="#fff"/>
        <path fill-rule="evenodd" clip-rule="evenodd" d="M920.382 466.071c-3.13-.691-9.088.254-17.026.636 3.852 2.534 5.123 4.753 8.563 5.244 3.409.487 8.991-.764 13.626-1.255-1.606-1.607-1.993-3.926-5.163-4.625z" fill="#fff"/>
        <path fill-rule="evenodd" clip-rule="evenodd" d="M717.374 622.901c5.103-.764 12.694-1.081 14.602-2.424 1.823-1.285-2.267-3.645-3.76-5.531l-18.756 1.75c3.388 2.656 5.647 4.432 7.914 6.205z" fill="#fff"/>
        <path fill-rule="evenodd" clip-rule="evenodd" d="M673.622 646.972c5.328.227 10.797-.345 16.219-.6-1.44-1.604-2.187-4.363-4.461-4.569-4.833-.438-10.464.454-18.366.972 3.159 2.095 4.7 4.114 6.608 4.197z" fill="#fff"/>
        <path fill-rule="evenodd" clip-rule="evenodd" d="M646.661 672.89c2.263-1.096.068-3.396-.295-6.027-6.667.944-13.371 1.169-15.19 2.344-1.892 1.213.964 3.345 1.75 5.077 4.76-.414 11.488-.301 13.735-1.394z" fill="#fff"/>
        <path fill-rule="evenodd" clip-rule="evenodd" d="M590.759 694.126c-.186 1.705 1.876 3.472 3.041 5.213 4.232-.452 10.504-.465 12.218-1.459 2.606-1.519 2.061-3.718 2.856-5.628l-9.915.164c-2.884.567-8.131 1.065-8.2 1.71z" fill="#fff"/>
        <path fill-rule="evenodd" clip-rule="evenodd" d="M546.385 727.785c7.301-1.249 15.231-2.056 15.288-2.722.161-1.854-2.449-3.775-5.163-5.369-.517-.303-9.028.597-9.516 1.258-1.391 1.893-.548 3.948-.609 6.833z" fill="#fff"/>
        <path fill-rule="evenodd" clip-rule="evenodd" d="M773.183 595.078c-.181-1.865-3.231-3.694-6.179-5.251-.448-.239-8.794.896-9.229 1.623-1.138 1.891.088 3.907.5 6.76 7.156-1.451 14.973-2.468 14.908-3.132z" fill="#fff"/>
        <path fill-rule="evenodd" clip-rule="evenodd" d="M859.942 541.85c1.525-.891-1.738-2.795-3.42-4.917-5.962.791-12.146.963-13.194 1.931-1.073.993 1.94 3.473 4.901 3.999 2.992.533 10.14-.096 11.713-1.013z" fill="#fff"/>
        <path fill-rule="evenodd" clip-rule="evenodd" d="M816.831 568.241c-.286-1.861-3.59-3.642-6.652-5.183-.419-.214-8.656 1.016-9.071 1.771-1.029 1.876.375 3.864 1.004 6.747 7.055-1.542 14.824-2.644 14.719-3.335z" fill="#fff"/>
        <path fill-rule="evenodd" clip-rule="evenodd" d="M898.959 512.587c-5.183-.168-10.81.62-15.332 1.523-1.081.216.852 3.268 2.509 3.444 5.28.563 11.081.384 19.62.55-3.106-2.635-4.889-5.456-6.797-5.517z" fill="#fff"/>
        <path fill-rule="evenodd" clip-rule="evenodd" d="M941.865 485.733c-5.175.56-12.19.573-15.005 1.832-2.912 1.298-1.747 3.806-2.816 7.236 8.519-1.451 15.506-1.857 17.724-3.231 2.372-1.472.25-3.853.097-5.837z" fill="#fff"/>
        <path fill-rule="evenodd" clip-rule="evenodd" d="M983.762 465.708c.331-1.846-2.085-3.81-4.703-5.412-.557-.338-9.104.438-9.628 1.074-1.521 1.862-.851 3.91-1.134 6.883 7.386-1.166 15.344-1.874 15.465-2.545z" fill="#fff"/>
        <path fill-rule="evenodd" clip-rule="evenodd" d="M687.001 667.555c2.9.577 8.463-.532 12.835-.885-.859-1.595-.476-3.567-2.981-4.657-1.819-.791-7.466-.415-11.411-.56l-8.483 1.649c3.255 1.544 5.708 3.59 10.04 4.453z" fill="#fff"/>
        <path fill-rule="evenodd" clip-rule="evenodd" d="M657.527 692.664c2.271-1.47-.028-3.815-.33-5.776-5.135.603-12.142.678-14.901 1.956-2.819 1.307-1.48 3.797-2.319 7.236 8.475-1.546 15.4-2.022 17.55-3.416z" fill="#fff"/>
        <path fill-rule="evenodd" clip-rule="evenodd" d="M606.998 719.841c.932.362 8.088-.8 8.213-1.193.544-1.729.585-3.712-1.396-5.003-.762-.494-7.418.614-13.948 1.237 2.928 2.189 4.304 3.86 7.131 4.959z" fill="#fff"/>
        <path fill-rule="evenodd" clip-rule="evenodd" d="M835.377 611.443c1.646.584 8.709-.61 13.32-.999-2.179-1.789-3.623-3.755-6.914-5.272-1.146-.528-6.845.05-13.493.186 2.796 2.659 3.546 4.83 7.087 6.085z" fill="#fff"/>
        <path fill-rule="evenodd" clip-rule="evenodd" d="M806.077 636.63c2.283-1.474-.016-3.83-.314-5.8-5.139.61-12.125.693-14.909 1.975-2.819 1.301-1.488 3.788-2.327 7.213 8.438-1.524 15.4-1.994 17.55-3.388z" fill="#fff"/>
        <path fill-rule="evenodd" clip-rule="evenodd" d="M749.377 662.492c5.199.281 10.628-.485 15.961-.827-2.541-1.763-4.272-3.78-8.084-5.147-1.311-.469-7.825.695-14.44 1.364 2.852 2.102 4.461 4.497 6.563 4.61z" fill="#fff"/>
        <path fill-rule="evenodd" clip-rule="evenodd" d="M705.689 689.189c5.231-.172 10.463-.342 15.695-.515-.44-1.839-.88-3.682-1.626-6.779-6.668 1.31-11.73 1.713-13.379 2.782-1.848 1.192-.593 2.981-.69 4.512z" fill="#fff"/>
        <path fill-rule="evenodd" clip-rule="evenodd" d="M666.123 709.499c-.198 1.722 1.839 3.508 2.985 5.267 4.243-.463 10.56-.488 12.238-1.49 2.557-1.53 1.904-3.731 2.606-5.645l-9.604.147c-2.893.571-8.152 1.075-8.225 1.721z" fill="#fff"/>
        <path fill-rule="evenodd" clip-rule="evenodd" d="M884.922 578.388c-1.113-.494-6.861.173-13.419.419 2.984 2.587 3.948 4.744 7.591 5.98 1.65.561 8.644-.704 13.21-1.14-2.332-1.786-3.969-3.744-7.382-5.259z" fill="#fff"/>
        <path fill-rule="evenodd" clip-rule="evenodd" d="M915.231 559.585c1.5 1.007 3.001 2.01 4.505 3.016 4.437-1.195 10.294-2.108 12.819-3.688 1.674-1.049-.08-3.881-2.722-4.42-3.005-.613-9.79-.014-12.884.912-2.279.685-1.262 2.738-1.718 4.18z" fill="#fff"/>
        <path fill-rule="evenodd" clip-rule="evenodd" d="M1017.06 506.989c2.38-1.471.25-3.853.09-5.837-5.17.561-12.16.573-15 1.833-2.915 1.287-1.75 3.791-2.83 7.234 8.53-1.452 15.52-1.856 17.74-3.23z" fill="#fff"/>
        <path fill-rule="evenodd" clip-rule="evenodd" d="M973.259 525.23c-6.378 1.567-11.279 2.163-12.739 3.299-1.532 1.19.242 2.901.561 4.383l15.38-.977c-.871-1.828-1.742-3.657-3.202-6.705z" fill="#fff"/>
        <path fill-rule="evenodd" clip-rule="evenodd" d="M1052.92 475.443c-1.16-.53-6.83.04-13.47.162 2.81 2.673 3.57 4.835 7.09 6.114 1.59.574 8.69-.618 13.28-1.01-2.17-1.784-3.62-3.749-6.9-5.266z" fill="#fff"/>
        <path fill-rule="evenodd" clip-rule="evenodd" d="M826.31 588.873c1.291-1.435.799-2.988 1.061-4.492-3.3.29-8.697.309-9.459.926-1.549 1.249-.585 2.822-.795 7.149 4.937-1.862 8.346-2.637 9.193-3.583z" fill="#fff"/>
        <path fill-rule="evenodd" clip-rule="evenodd" d="M953.8 506.005c-4.134-.189-8.849.446-15.473.897 2.533 2.217 4.01 4.722 5.547 4.632 4.279-.25 8.805-1.459 12.657-2.608.621-.186-1.089-2.847-2.731-2.921z" fill="#fff"/>
        <path fill-rule="evenodd" clip-rule="evenodd" d="M993.523 481.102c-.548-.528-7.401.238-14.073.531 2.126 2.274 2.864 4.052 5.357 5.242 1 .478 8.39-.29 8.535-.567.924-1.763 1.674-3.759.181-5.206z" fill="#fff"/>
        <path fill-rule="evenodd" clip-rule="evenodd" d="M913.936 535.093c1.303-.488-2.231-2.752-4.368-5.102-5.849 1.094-12.513 1.742-12.787 2.512-.657 1.844 1.694 3.745 2.836 5.625 4.913-.96 10.592-1.637 14.319-3.035z" fill="#fff"/>
        <path fill-rule="evenodd" clip-rule="evenodd" d="M869.344 554.822c-7.837 2.052-14.537 2.951-16.215 4.486-1.641 1.506 1.82 3.664 3.042 5.534 4.921-.949 11.794-1.498 14.206-2.968 2.239-1.364-.286-3.713-1.033-7.052z" fill="#fff"/>
        <path fill-rule="evenodd" clip-rule="evenodd" d="M727.805 636.265c1.868 2.327 2.63 4.887 4.151 4.853 4.207-.095 8.954-1.111 12.935-2.153.815-.213-.032-2.978-1.432-3.081-4.094-.302-8.853.145-15.654.381z" fill="#fff"/>
        <path fill-rule="evenodd" clip-rule="evenodd" d="M775.172 616.929c.923.314 7.918-1.066 8.011-1.511.338-1.723.016-3.689-2.195-4.903-.859-.469-7.397.828-13.952 1.642 3.408 2.136 5.111 3.745 8.136 4.772z" fill="#fff"/>
        <path fill-rule="evenodd" clip-rule="evenodd" d="M763.539 683.23c2.109.506 8.329-1.147 12.698-1.827-2.09-1.565-3.191-3.55-6.62-4.545-2.214-.641-7.829.176-15.448.481 4.078 2.778 5.51 4.973 9.37 5.891z" fill="#fff"/>
        <path fill-rule="evenodd" clip-rule="evenodd" d="M721.392 710.211c4.376-.915 10.624-1.504 12.584-2.839 1.872-1.274-.726-3.327-1.363-5.038-4.505.672-9.007 1.343-15.767 2.349 1.944 2.362 3.247 3.945 4.546 5.528z" fill="#fff"/>
        <path fill-rule="evenodd" clip-rule="evenodd" d="M903.477 597.426c-7.47 1.022-15.413 1.547-15.679 2.257-.673 1.816 1.44 3.852 3.885 5.479.605.405 9.285-.16 9.785-.72 1.686-1.869 1.343-3.938 2.009-7.016z" fill="#fff"/>
        <path fill-rule="evenodd" clip-rule="evenodd" d="M1113.25 467.416c-7.19 1.381-15.03 2.311-15.02 2.991.03 1.859 2.95 3.722 5.81 5.292.46.259 8.9-.796 9.36-1.505 1.23-1.888.11-3.92-.15-6.778z" fill="#fff"/>
        <path fill-rule="evenodd" clip-rule="evenodd" d="M1071.55 499.943c1.95-1.145-.85-3.321-1.88-5.84-6.7 1.224-13.4 1.704-14.86 2.925-1.51 1.261 2.08 3.247 3.44 4.913 4.63-.624 11.26-.812 13.3-1.998z" fill="#fff"/>
        <path fill-rule="evenodd" clip-rule="evenodd" d="M1014.09 528.507c7.3-1.249 15.24-2.056 15.29-2.721.17-1.855-2.44-3.777-5.16-5.367-.52-.306-9.02.59-9.52 1.26-1.4 1.863-.55 3.896-.61 6.828z" fill="#fff"/>
        <path fill-rule="evenodd" clip-rule="evenodd" d="M988.078 551.23c1.105-.525-2.456-3.192-5.526-3.743-2.832-.505-10.766.232-11.359.923-1.464 1.714-.012 3.713.48 7.022 7.894-1.905 13.303-2.738 16.405-4.202z" fill="#fff"/>
        <path fill-rule="evenodd" clip-rule="evenodd" d="M944.951 572.851l-15.768 1.353c.932 2.6 1.541 4.318 2.154 6.034 4.486-.661 10.778-.89 12.956-2.103 2.275-1.27.605-3.481.658-5.284z" fill="#fff"/>
        <path fill-rule="evenodd" clip-rule="evenodd" d="M803.572 651.411c-1.391 1.89-.548 3.945-.601 6.829 7.301-1.248 15.223-2.053 15.284-2.718.165-1.857-2.453-3.779-5.159-5.373-.517-.302-9.036.598-9.524 1.262z" fill="#fff"/>
        <path fill-rule="evenodd" clip-rule="evenodd" d="M851.427 630.001c2.707.433 8.676-.01 9.632-.721.956-.714-1.682-2.71-4.279-3.262-2.513-.537-6.974.048-12.21.181 2.884 1.706 4.207 3.379 6.857 3.802z" fill="#fff"/>
        <path fill-rule="evenodd" clip-rule="evenodd" d="M781.811 704.751c4.223.581 10.302-.649 15.562-1.086-2.671-1.746-4.203-4.198-8.326-5.033-3.945-.795-10.584.096-19.914.354 5.805 2.789 8.342 5.164 12.678 5.765z" fill="#fff"/>
        <path fill-rule="evenodd" clip-rule="evenodd" d="M878.17 649.605c1.767-.919-.504-4.315-2.505-4.436-4.429-.274-12.012.293-14.206 1.495-2.227 1.219.468 3.609 1.153 5.986 6.87-1.244 12.977-1.7 15.558-3.045z" fill="#fff"/>
        <path fill-rule="evenodd" clip-rule="evenodd" d="M838.298 670.563c-8.019.783-13.364 1.302-18.704 1.823 1.371 1.896 1.149 4.658 4.546 5.45 3.541.825 10.548-.242 16.046-.481l-1.888-6.792z" fill="#fff"/>
        <path fill-rule="evenodd" clip-rule="evenodd" d="M917.829 620.731c-3.691-.967-10.653-.433-20.281-.651 4.509 2.961 6.002 5.417 9.991 6.156 4.163.776 10.729-.095 16.243-.247-1.851-1.815-2.267-4.286-5.953-5.258z" fill="#fff"/>
        <path fill-rule="evenodd" clip-rule="evenodd" d="M1128.4 490.875c-3.63-.644-10.27.804-15.59 1.335 1.41 1.9 2.81 3.801 4.92 6.65l17.52-2.815c-2.16-1.807-3.06-4.496-6.85-5.17z" fill="#fff"/>
        <path fill-rule="evenodd" clip-rule="evenodd" d="M1087.49 520.986c2.48-1.518.99-3.851 1.41-7.679-7.12 1.517-14.45 2.233-16.51 3.754-2.12 1.562.88 3.911 1.64 5.918 4.67-.628 11.53-.804 13.46-1.993z" fill="#fff"/>
        <path fill-rule="evenodd" clip-rule="evenodd" d="M1035.87 548.214c4.21.648 10.45-.465 15.8-.807-2.39-1.769-3.56-4.226-7.54-5.115-3.81-.851-10.56-.077-20.03.026 5.36 2.842 7.55 5.247 11.77 5.896z" fill="#fff"/>
        <path fill-rule="evenodd" clip-rule="evenodd" d="M1008.61 565.542c-13.614 2.682-17.946 3.534-22.279 4.389 1.223 1.611 1.162 4.067 4.042 4.592 2.783.511 10.177-.487 12.697-1.705 3.08-1.492 3.2-3.903 5.54-7.276z" fill="#fff"/>
        <path fill-rule="evenodd" clip-rule="evenodd" d="M960.783 593.909c-3.764-.911-10.625-.259-20.124-.32 4.889 2.894 6.724 5.332 10.826 6.032 4.195.716 10.617-.28 16.062-.526-2.13-1.792-2.924-4.255-6.764-5.186z" fill="#fff"/>
        <path fill-rule="evenodd" clip-rule="evenodd" d="M837.128 698.283c1.549.596 8.753-.508 13.392-.841-2.005-1.795-3.251-3.767-6.414-5.299-1.149-.557-6.841-.073-13.553-.057 2.598 2.723 3.163 4.888 6.575 6.197z" fill="#fff"/>
        <path fill-rule="evenodd" clip-rule="evenodd" d="M878.876 666.82c-1.384 1.869-.529 3.904-.569 6.851 7.285-1.256 15.187-2.073 15.235-2.731.141-1.859-2.448-3.778-5.159-5.369-.524-.308-9.015.589-9.507 1.249z" fill="#fff"/>
        <path fill-rule="evenodd" clip-rule="evenodd" d="M929.288 640.868c-3.424-.689-8.608-.249-14.852-.324 4.151 1.949 6.39 3.799 9.762 4.361 3.489.581 8.075-.093 12.173-.219-2.287-1.319-3.775-3.149-7.083-3.818z" fill="#fff"/>
        <path fill-rule="evenodd" clip-rule="evenodd" d="M1143.7 511.823c-2.18-.635-7.7.342-13.84.749 1.43 2.109 1.23 4.314 3.71 4.796 2.59.494 7.78-.682 11.84-1.127-.44-1.539.55-3.762-1.71-4.418z" fill="#fff"/>
        <path fill-rule="evenodd" clip-rule="evenodd" d="M980.543 641.175c1.751.616 8.636-.545 13.202-.903-1.178-1.627-1.097-3.645-3.941-4.755-2.077-.809-8.002-.423-15.868-.696 2.787 2.977 3.243 5.169 6.607 6.354z" fill="#fff"/>
        <path fill-rule="evenodd" clip-rule="evenodd" d="M934.532 667.381c4.368-.92 10.6-1.516 12.56-2.849 1.872-1.275-.718-3.323-1.347-5.03l-15.791 2.345c1.956 2.368 3.267 3.951 4.578 5.534z" fill="#fff"/>
        <path fill-rule="evenodd" clip-rule="evenodd" d="M894.478 692.223c1.004.474 8.309-.286 8.446-.555.928-1.768 1.719-3.767.25-5.222-.528-.524-7.409.242-14.129.541 2.17 2.277 2.944 4.044 5.433 5.236z" fill="#fff"/>
        <path fill-rule="evenodd" clip-rule="evenodd" d="M1208.7 512.593l-.39-3.527c-2.41-1.148-4.43-3.084-7.33-3.257-3.98-.236-10.65.451-12.38 1.518-1.52.932.92 3.673 3.84 4.292 4.41.931 10.75.708 16.26.974z" fill="#fff"/>
        <path fill-rule="evenodd" clip-rule="evenodd" d="M1243.22 478.784c-4.13-.329-8.93.06-15.72.226 1.71 2.36 2.26 4.942 3.8 4.927 4.16-.035 8.98-1.001 12.94-2.019.92-.234.29-3.028-1.02-3.134z" fill="#fff"/>
        <path fill-rule="evenodd" clip-rule="evenodd" d="M1157.56 535.187c1.93-1.487-1.03-3.737-1.84-5.652-5.03.797-12.02 1.136-14.53 2.517-2.5 1.378-.51 3.804-.48 7.129 8.11-1.811 14.94-2.52 16.85-3.994z" fill="#fff"/>
        <path fill-rule="evenodd" clip-rule="evenodd" d="M1112.86 556.392c-.79-.455-7.31.806-13.91 1.614 3.4 2.148 5.11 3.757 8.12 4.804.89.305 7.89-1.068 7.99-1.524.36-1.714-.03-3.656-2.2-4.894z" fill="#fff"/>
        <path fill-rule="evenodd" clip-rule="evenodd" d="M1020.34 610.744c-1.34.451-.53 2.835-.82 5.365 6.04-1.922 10.35-3.016 13.73-4.526 1.06-.472.18-3.047-.75-2.971-3.92.306-8.56.925-12.16 2.132z" fill="#fff"/>
        <path fill-rule="evenodd" clip-rule="evenodd" d="M1063.49 589.497c.91.32 7.93-1.019 8.03-1.454.39-1.72.13-3.678-2.01-4.916-.82-.47-7.31.762-13.95 1.537 3.33 2.17 4.96 3.79 7.93 4.833z" fill="#fff"/>
        <path fill-rule="evenodd" clip-rule="evenodd" d="M1092.19 541.947c1.7.567 8.66-.704 13.24-1.143-2.33-1.784-3.95-3.742-7.37-5.246-1.13-.498-6.89.177-13.47.428 2.99 2.577 3.94 4.744 7.6 5.961z" fill="#fff"/>
        <path fill-rule="evenodd" clip-rule="evenodd" d="M1045.93 570.642c7.27-1.244 15.17-2.034 15.25-2.716.22-1.85-2.36-3.778-5.07-5.365-.53-.308-9.12.594-9.64 1.275-1.42 1.853-.51 3.888-.54 6.806z" fill="#fff"/>
        <path fill-rule="evenodd" clip-rule="evenodd" d="M1019.19 593.796c2.28-1.473-.02-3.831-.32-5.802-5.13.607-12.15.689-14.9 1.972-2.82 1.321-1.48 3.815-2.31 7.221 8.41-1.524 15.36-1.996 17.53-3.391z" fill="#fff"/>
        <path fill-rule="evenodd" clip-rule="evenodd" d="M976.304 612.343c-6.994 1.807-12.178 2.786-15.763 4.281-1.09.456 2.129 3.379 3.501 3.355 5.179-.089 11.233-.523 15.206-1.679 1.582-.461-1.411-3.148-2.944-5.957z" fill="#fff"/>
        <path fill-rule="evenodd" clip-rule="evenodd" d="M1185.18 484.712c-4.95-.46-10.65.344-18.39.764 2.83 2.116 4.18 4.188 5.97 4.28 5.39.272 10.95-.231 16.44-.428-1.29-1.62-1.87-4.418-4.02-4.616z" fill="#fff"/>
        <path fill-rule="evenodd" clip-rule="evenodd" d="M993.511 661.589c4.982.541 10.839-.184 16.329-.36-2.15-1.793-3.37-3.831-6.89-5.251-1.37-.549-7.962.301-22.072 1.015 5.752 2.192 8.66 4.166 12.633 4.596z" fill="#fff"/>
        <path fill-rule="evenodd" clip-rule="evenodd" d="M957.431 687.33c1.92.5 8.454-1.149 12.895-1.823-3.061-1.744-5.554-3.667-9.564-5.113-1.097-.398-6.708.638-12.915 1.301 3.755 2.391 5.477 4.569 9.584 5.635z" fill="#fff"/>
        <path fill-rule="evenodd" clip-rule="evenodd" d="M1095.01 608.87c1.93-1.491-1-3.738-1.81-5.653-5.04.797-11.97 1.142-14.57 2.529-2.49 1.334-.49 3.751-.44 7.115 8.1-1.812 14.92-2.519 16.82-3.991z" fill="#fff"/>
        <path fill-rule="evenodd" clip-rule="evenodd" d="M1047.63 629.495c-3.78.651-8.85.972-10.97 2.043-2.02 1.024-.97 2.828-1.53 5.573 8.19-1.104 13.03-1.756 17.87-2.41-1.79-1.733-3.59-3.472-5.37-5.206z" fill="#fff"/>
        <path fill-rule="evenodd" clip-rule="evenodd" d="M1130.19 577.758c-1.14-.526-6.83.052-13.5.188 2.8 2.656 3.55 4.827 7.09 6.083 1.65.581 8.71-.611 13.32-1.002-2.17-1.787-3.62-3.75-6.91-5.269z" fill="#fff"/>
        <path fill-rule="evenodd" clip-rule="evenodd" d="M1165.6 552.384c-.19 1.711 1.86 3.484 3.03 5.231 4.23-.456 10.54-.476 12.23-1.475 2.57-1.524 1.96-3.726 2.7-5.641-3.24.054-6.47.109-9.7.165-2.91.568-8.19 1.073-8.26 1.72z" fill="#fff"/>
        <path fill-rule="evenodd" clip-rule="evenodd" d="M1213.69 526.212c-3.01-1-9.34-.893-17.48-1.535 5.22 4.619 6.45 7.085 8.46 7.233 5.28.385 10.9-.243 16.38-.469-2.33-1.785-3.5-3.955-7.36-5.229z" fill="#fff"/>
        <path fill-rule="evenodd" clip-rule="evenodd" d="M1260.38 500.098c-4.48.631-10.09.885-13.06 2.025-1.95.749-.1 2.77.17 5.51 8.09-1.292 14.24-1.675 17.14-2.982 1.52-.682-2.65-2.984-4.25-4.553z" fill="#fff"/>
        <path fill-rule="evenodd" clip-rule="evenodd" d="M1220.52 552.982c4.52-.892 10.98-1.433 13.02-2.781 1.97-1.305 1.06-4.22-1.57-5.012-3.2-.968-9.51-.453-17.87-.664 3.92 5.166 5.17 6.811 6.42 8.457z" fill="#fff"/>
        <path fill-rule="evenodd" clip-rule="evenodd" d="M1051.2 655.658c1.91.559 8.47-.842 12.93-1.358-1.62-1.599-2.11-3.606-5.23-4.658-2.15-.724-7.92-.125-15.69-.107 3.44 2.879 4.38 5.065 7.99 6.123z" fill="#fff"/>
        <path fill-rule="evenodd" clip-rule="evenodd" d="M1260.04 520.707c-1.81 1.684-.82 3.726-1.06 7.085 8.21-1.674 13.72-2.341 17.05-3.705 1.25-.518-1.49-3.27-4.31-3.861-2.87-.598-10.98-.163-11.68.481z" fill="#fff"/>
        <path fill-rule="evenodd" clip-rule="evenodd" d="M1175.71 572.591c-.04 1.873 2.62 3.774 5.36 5.371.49.284 8.94-.662 9.44-1.344 1.35-1.862.41-3.885.36-6.813-7.25 1.283-15.16 2.146-15.16 2.786z" fill="#fff"/>
        <path fill-rule="evenodd" clip-rule="evenodd" d="M1092.22 623.822c1.47 2.373 1.41 4.379 3.91 5.417 1.17.486 7.27-.903 11.14-1.444-1.22-1.596-1.79-3.383-4-4.677-.77-.452-5.61.318-11.05.704z" fill="#fff"/>
        <path fill-rule="evenodd" clip-rule="evenodd" d="M1136.73 604.491c2.78.386 9.76-.681 11.28-1.734 1.52-1.052-.24-3.632-2.8-4.149-2.66-.535-8.01.607-13.88 1.182 2.22 2.125 2.67 4.325 5.4 4.701z" fill="#fff"/>
        <path fill-rule="evenodd" clip-rule="evenodd" d="M1314.15 493.332c-.77-.424-5.63.423-11.04.904 1.63 2.311 1.75 4.299 4.34 5.315 1.18.464 7.25-.999 11.1-1.588-1.35-1.58-2.08-3.353-4.4-4.631z" fill="#fff"/>
        <path fill-rule="evenodd" clip-rule="evenodd" d="M1279.31 547.219c4.14.837 10.83.086 16.4.026-1.57-1.832-1.6-4.313-5.13-5.318-3.62-1.03-10.66-.614-20.44-.997 4.14 3.041 5.3 5.508 9.17 6.289z" fill="#fff"/>
        <path fill-rule="evenodd" clip-rule="evenodd" d="M1256.53 571.32c-2.67-1.747-4.2-4.183-8.34-5.037-3.84-.793-10.46.099-19.9.361 5.81 2.787 8.34 5.163 12.67 5.758 4.23.584 10.31-.648 15.57-1.082z" fill="#fff"/>
        <path fill-rule="evenodd" clip-rule="evenodd" d="M1195.71 598.775c4.17.806 10.79-.012 16.34-.121-1.72-1.82-1.95-4.295-5.55-5.278-3.68-1-10.67-.535-20.34-.845 4.33 3.022 5.64 5.49 9.55 6.244z" fill="#fff"/>
        <path fill-rule="evenodd" clip-rule="evenodd" d="M1151.89 625.412c4.82-.903 10.63-1.406 14.08-2.873 1.83-.776 1.01-4.403-1.21-4.655-3.66-.418-9.42.858-15.16 1.519.86 2.249 1.57 4.129 2.29 6.009z" fill="#fff"/>
        <path fill-rule="evenodd" clip-rule="evenodd" d="M1321.06 514.043c-.16 2.003-.34 4.005-.51 6.01 6.17-1.276 12.33-2.557 18.5-3.842-6-.723-11.98-1.447-17.99-2.168z" fill="#fff"/>
        <path fill-rule="evenodd" clip-rule="evenodd" d="M1028.72 682.461c-.53.157-1.05.313-1.58.468.72.027 1.43.047 2.18.08-.22-.198-.39-.355-.6-.548z" fill="#fff"/>
        <path fill-rule="evenodd" clip-rule="evenodd" d="M34.529 356.332c-3.158 1.285-5.668 4.896-3.994 6.215 1.928 1.521 9.067 2.558 13.528 2.293 17.654-1.047 35.23-2.498 52.659-4.188 7.991-.775 10.773.647 10.639 3.885-.221 5.472-1.428 10.944-1.212 16.408.119 3.041 2.481 6.052 3.479 9.102 1.643 5.003 2.355 10.093 4.805 15.003.928 1.857 5.592 3.313 8.553 4.95 2.252-1.458 5.535-2.773 6.584-4.397 5.906-9.149 11.262-18.374 16.835-27.569.671-1.101 1.379-2.205 2.32-3.258 4.636-5.202 5.499-4.979 15.044-1.569 11.648 4.16 24.395 7.666 36.741 11.401 5.218 1.579 10.32 3.421 16.071 4.366 3.169.522 8.888-.001 11.057-1.084 2.205-1.101 3.069-3.798 1.713-5.224-5.496-5.79-12.003-11.377-18.267-17.007-6.785-6.094-13.569-12.188-20.613-18.217-7.214-6.172-.746-11.683 4.356-16.992 6.824-7.099 15.613-13.791 22.641-20.854 1.534-1.543.513-4.379-1.764-5.751-1.803-1.086-7.931-1.582-11.101-1.04-7.515 1.282-14.442 3.314-21.559 5.087-5.467 1.365-9.305 1.113-11.004-2.012-5.58-10.253-11.265-20.493-16.895-30.741-.173-.314-.065-.662-.255-.972-2.065-3.384-2.336-8.092-11.983-8.166-9.184-.071-9.806 4.376-11.548 7.705-2.058 3.928-4.359 7.829-7.036 12.603 0 4.576.268 9.9-.082 15.216-.327 4.978-4.718 6.032-14.298 3.739-18.42-4.41-36.735-8.92-55.399-13.097-3.139-.703-8.564-.51-11.51.335-2.072.595-2.803 3.089-2.195 4.562.748 1.809 3.1 3.578 5.48 5.124 13.821 8.984 27.975 17.857 41.75 26.855 5.161 3.37 5.157 5.745-3.946 8.648-17.49 5.579-33.604 12.128-49.594 18.641z" fill="#fff"/>
        <path d="M143.913 560.681s-7.097-.346-11.642.35c-4.549.697-9.292.106-8.533-2.014l16.068-9.89s5.599-3.565 7.026-8.888c2.632-2.383-3.838-6.514-5.589-8.543-2.381-2.753-5.734-5.175-8.221-7.897-3.863-4.227-7.533-8.531-10.83-12.934-.64-.853.439-2.462 1.48-3.391.37-.33 3.34.031 4.507.585 5.96 2.832 11.686 5.859 17.566 8.758 3.437 1.693 6.919 3.367 10.564 4.876 2.741 1.132 5.505 1.632 6.505-1.255.916-2.64 2.073-5.246 3.089-7.874.599-1.551 1.33-3.096 1.649-4.672.79-3.909 1.168-7.858 2.206-11.736.236-.884 2.497-2.184 3.779-2.156 1.696.039 4.31.984 4.85 1.911 2.32 3.989 4.386 8.065 5.869 12.199 2.329 6.503 4.175 13.073 6.088 19.63.513 1.758 1.503 2.64 4.544 1.973 6.111-1.342 12.274-2.6 18.357-3.986 3.183-.723 6.386-1.49 9.32-2.523 2.701-.95 5.244-3.363 8.165-1.009 1.079.87-1.426 4.828-1.426 4.828l-5.566 5.031s-11.939 8.159-18.363 11.934c-3.399 1.997-3.193 3.755-1.119 5.884l14.601 16.314c.49 1.754.916 3.584.63 5.33-.32 1.92-2.386 2.925-5.599 2.029-2.739-.764-5.351-1.707-8.013-2.578-7.726-3.375-15.597-6.631-23.122-10.171-4.327-2.034-5.528-1.905-7.307 1.417-1.472 2.748-3.429 5.39-5.028 8.113-3.335 5.677-6.637 11.363-9.764 17.089-.312.575-5.68 1.585-5.68 1.585l-1.734-4.813c-.855-4.245-.947-9.755-.495-13.728 0 0-1.18-4.865-1.429-6.747-.327-2.473-7.403-3.031-7.403-3.031z" fill="#fff"/>
    </g>
    <defs>
        <linearGradient id="b" x1="720" x2="720" y2="840" gradientUnits="userSpaceOnUse">
            <stop stop-color="#fff" stop-opacity="0"/>
            <stop offset="1" stop-color="#FFF3DA"/>
        </linearGradient>
        <clipPath id="a">
            <path fill="#fff" d="M0 0h1440v840H0z"/>
        </clipPath>
    </defs>
</svg>
