<svg width="116" height="60" viewBox="0 0 116 60" fill="none" xmlns="http://www.w3.org/2000/svg">
    <g clip-path="url(#a)" fill-rule="evenodd" clip-rule="evenodd">
        <path d="M10.076 10.752a.702.702 0 0 1-.091-.006c-.351-.049-.645-.358-.656-.693-.011-.327-.216-8.03 4.415-9.782 1.169-.442 2.23-.343 3.155.296 1.112.767 1.923 2.283 2.41 4.504.344 1.57.4 2.924.402 2.98.013.335-.261.569-.612.522-.352-.046-.647-.355-.66-.69-.056-1.395-.551-5.258-2.157-6.366-.514-.355-1.136-.386-1.902-.096-3.97 1.502-3.781 8.734-3.779 8.807.01.304-.218.524-.525.524z" fill="#8DB84A"/>
        <path d="M19.256 4.811L3.557 9.758s-.674.195-.832.388c-.173.212-.207.783-.207.783L.092 29.978l18.217 3.473L19.71 4.795c-.2-.04-.406.004-.455.016z" fill="#8DB84A"/>
        <path d="M25.275 7.258s-.028-.147-.114-.2c-.085-.054-.18-.064-.18-.064l-2.705-.195-1.991-1.915a.604.604 0 0 0-.251-.105L18.557 33.45l10.387-2.175-3.669-24.018z" fill="#5B873E"/>
        <path d="M13.069 20.548a6.164 6.164 0 0 0-.912-1.037c-.326-.3-.669-.56-1.004-.792a6.623 6.623 0 0 1-.622-.469 3.086 3.086 0 0 1-.432-.448 1.627 1.627 0 0 1-.248-.45 1.253 1.253 0 0 1-.07-.47c.008-.22.053-.418.13-.593.079-.177.189-.33.328-.458.14-.13.31-.232.506-.308a2.27 2.27 0 0 1 .67-.14c.27-.016.53-.007.778.02a5.278 5.278 0 0 1 1.812.562l1.17-3.76a3.294 3.294 0 0 0-.63-.258 5.254 5.254 0 0 0-.813-.175 6.748 6.748 0 0 0-.956-.06 7.824 7.824 0 0 0-1.062.078 6.396 6.396 0 0 0-2.15.69 5.55 5.55 0 0 0-2.592 2.99 6.8 6.8 0 0 0-.412 2.118c-.02.46.024.883.116 1.273.093.392.238.753.42 1.087.185.337.41.648.665.934.257.29.544.558.85.804.25.196.46.381.635.56.176.181.316.356.424.53.108.176.183.35.229.53.046.18.063.367.055.564a1.551 1.551 0 0 1-.117.545 1.095 1.095 0 0 1-.764.656 1.574 1.574 0 0 1-.622.015 3.52 3.52 0 0 1-.786-.23 5.534 5.534 0 0 1-.733-.375 7.205 7.205 0 0 1-1.122-.836l-.8 2.867c.132.184.3.367.5.544.2.179.433.352.69.513a6.631 6.631 0 0 0 1.896.803c.725.173 1.429.215 2.085.12a4.071 4.071 0 0 0 1.835-.73c.548-.4 1.004-.953 1.334-1.655.335-.711.536-1.568.577-2.563a4.945 4.945 0 0 0-.207-1.661 4.877 4.877 0 0 0-.651-1.335z" fill="#FFFFFE"/>
        <path d="M7.283 10.382a.47.47 0 0 1-.076-.006c-.29-.045-.49-.334-.448-.645.04-.306 1.043-7.494 5.218-9.13 1.054-.413 1.934-.32 2.617.276.822.716 1.274 2.13 1.346 4.204.051 1.465-.108 2.728-.115 2.781-.04.312-.307.53-.596.487-.29-.043-.492-.331-.452-.644.166-1.301.338-4.907-.848-5.94-.38-.332-.9-.361-1.591-.09-3.579 1.4-4.523 8.15-4.532 8.218-.038.284-.265.49-.523.49z" fill="#8DB84A"/>
        <path d="M40.56 19.514c-.98-.557-1.483-1.026-1.483-1.671 0-.822.7-1.349 1.792-1.349 1.008 0 1.876.293 2.408.557l.896-2.874c-.616-.381-1.764-.674-3.248-.674-3.389 0-5.712 2.023-5.712 4.868 0 1.612 1.092 2.844 2.548 3.724 1.176.703 1.596 1.202 1.596 1.935 0 .763-.588 1.379-1.68 1.379-1.204.029-2.464-.5-3.165-.88l-.951 2.874c.728.527 2.212.967 3.808.997 3.472.029 5.964-1.79 5.964-5.015 0-1.73-1.26-2.962-2.772-3.87z" fill="#000"/>
        <path d="M54.393 13.473c-1.708 0-3.052.85-4.088 2.141l-.056-.03 1.484-8.122H47.87l-3.752 20.674h3.864l1.288-7.067c.504-2.67 1.82-4.311 3.052-4.311.868 0 1.205.615 1.205 1.495 0 .557-.057 1.232-.169 1.79l-1.456 8.093h3.865l1.512-8.358c.167-.88.28-1.935.28-2.64 0-2.286-1.149-3.665-3.165-3.665z" fill="#000"/>
        <path d="M64.39 25.32c-1.316 0-1.876-1.173-1.876-2.639 0-2.317 1.148-6.1 3.248-6.1 1.372 0 1.82 1.232 1.82 2.434 0 2.493-1.148 6.305-3.192 6.305zm1.904-11.847c-4.648 0-7.728 4.399-7.728 9.296 0 3.138 1.848 5.66 5.32 5.66 4.564 0 7.644-4.282 7.644-9.296 0-2.903-1.624-5.66-5.236-5.66z" fill="#000"/>
        <path d="M77.719 25.379c-.7 0-1.176-.235-1.596-.587l.644-3.782c.448-2.522 1.708-4.194 3.052-4.194 1.176 0 1.54 1.144 1.54 2.229 0 2.61-1.484 6.334-3.64 6.334zm3.696-11.906c-1.54 0-3.052.88-4.089 2.405h-.055l.224-2.17h-3.416a90.084 90.084 0 0 1-.784 5.366l-2.689 14.81h3.865l1.063-5.983h.084c.448.293 1.317.528 2.269.528 4.536 0 7.504-4.868 7.504-9.795 0-2.727-1.148-5.16-3.976-5.16z" fill="#000"/>
        <path d="M90.907 7.667c-1.231 0-2.211 1.026-2.211 2.346 0 1.202.727 2.024 1.82 2.024h.055c1.204 0 2.24-.851 2.269-2.347 0-1.173-.757-2.023-1.933-2.023z" fill="#000"/>
        <path d="M85.503 28.136h3.865L92 13.796h-3.892l-2.605 14.34z" fill="#000"/>
        <path d="M101.827 13.766H99.14l.14-.674c.224-1.378 1.008-2.61 2.296-2.61.503 0 .896.088 1.232.205l.756-3.167c-.448-.205-1.148-.352-2.1-.352-1.373 0-2.744.411-3.78 1.35-1.317 1.172-1.933 2.873-2.24 4.574l-.113.674H93.54l-.56 3.05h1.792l-2.044 11.32h3.864l2.045-11.32h2.66l.531-3.05z" fill="#000"/>
        <path d="M111.124 13.796l-2.352 6.422c-.56 1.554-.841 2.463-1.148 3.431h-.056c-.056-.938-.168-1.965-.336-3.401l-.616-6.452h-4.06l2.324 13.167c.056.293.028.469-.084.674-.448.91-1.204 1.79-2.1 2.434-.728.557-1.54.91-2.184 1.144l1.064 3.431c.784-.176 2.408-.85 3.78-2.2 1.764-1.73 3.388-4.398 5.068-8.035l4.732-10.615h-4.032z" fill="#000"/>
        <path d="M38.543 51.516c.615.497 1.509.79 2.598.79 3.548 0 6.006-5.266 6.006-8.865 0-1.668-.614-3.54-2.598-3.54-1.9 0-4.386 2.545-5.14 6.787l-.866 4.828zm-2.514 7.649l2.682-15.098c.335-1.843.586-3.46.754-4.975h1.145l-.419 3.03h.056c1.201-1.894 2.877-3.232 4.665-3.232 2.542 0 3.492 2.203 3.492 4.514 0 4.74-3.1 10.19-7.375 10.19-1.313 0-2.179-.489-2.682-.489h-.056l-1.06 6.06h-1.202z" fill="#000"/>
        <path d="M59.3 40.106c-.308-.117-.783-.205-1.621-.205-3.855 0-6.872 4.505-6.9 8.923-.028 1.843.475 3.482 2.29 3.482 2.18 0 4.638-3.423 5.28-7.051l.95-5.15zm-1.788 13.377c-.029-1.136.14-2.272.335-3.787h-.056c-1.537 3.03-3.24 3.894-5 3.894-2.04 0-3.27-1.842-3.27-4.358 0-4.798 3.27-10.4 8.465-10.4.95 0 2.012.124 2.71.388l-1.425 7.717c-.474 2.633-.642 5.032-.586 6.546h-1.173z" fill="#000"/>
        <path d="M61.562 53.483l1.704-9.624c.336-1.785.531-3.253.643-4.767h1.09c-.084 1.136-.196 1.893-.364 3.408h.056c.81-1.894 2.151-3.538 3.827-3.538.168 0 .363-.057.503-.057l-.251 1.302a1.728 1.728 0 0 0-.447-.05c-1.76 0-3.716 2.947-4.274 6.02l-1.285 7.306h-1.202z" fill="#000"/>
        <path d="M74.524 36.014l-.586 3.078h3.156l-.223 1.136h-3.157l-1.48 8.335c-.168.936-.28 1.652-.28 2.412 0 .82.363 1.31 1.201 1.31.447 0 .726-.034.978-.122l.084 1.022a4.457 4.457 0 0 1-1.313.204c-1.593 0-2.207-1.113-2.207-2.282 0-.761.084-1.461.307-2.544l1.509-8.335h-1.928l.196-1.136h1.955l.447-2.52 1.341-.558z" fill="#000"/>
        <path d="M76.927 53.483l1.787-10.092c.308-1.667.475-3.163.587-4.3h1.145l-.39 3.03h.055c1.174-1.893 2.85-3.245 4.693-3.245 1.313 0 2.99.834 2.99 3.496 0 .703-.112 1.562-.252 2.323l-1.536 8.788h-1.202l1.565-8.81c.112-.643.195-1.406.195-2.137 0-1.463-.558-2.561-2.207-2.561-1.787 0-4.33 2.497-4.916 5.891l-1.313 7.617h-1.201z" fill="#000"/>
        <path d="M98.067 41.89c0-1.287-.863-1.99-2.12-1.99-2.067 0-3.899 2.341-4.737 5.384 3.492.029 6.857-.585 6.857-3.365v-.029zm-.58 10.444c-.698.498-1.983 1.054-3.659 1.054-3.13 0-4.219-2.575-4.219-5.267 0-4.037 2.71-9.332 6.537-9.332 2.207 0 3.13 1.492 3.13 3.072 0 3.57-3.912 4.564-8.298 4.535-.14.643-.167 2.486.112 3.51.475 1.58 1.508 2.37 2.934 2.37 1.48 0 2.485-.556 3.1-.936l.363.994z" fill="#000"/>
        <path d="M100.086 53.483l1.703-9.624c.336-1.785.531-3.253.643-4.767h1.09c-.085 1.136-.196 1.893-.363 3.408h.056c.81-1.894 2.15-3.538 3.826-3.538.168 0 .364-.057.503-.057l-.251 1.302a1.734 1.734 0 0 0-.447-.05c-1.76 0-3.715 2.947-4.274 6.02l-1.285 7.306h-1.201z" fill="#000"/>
        <path d="M107.125 51.486c.475.38 1.369.79 2.347.79 1.76 0 2.961-1.317 2.961-2.926 0-1.404-.558-2.252-1.816-3.1-1.341-.908-2.067-2.166-2.067-3.482 0-2.194 1.704-3.979 4.079-3.979.921 0 1.815.292 2.206.614l-.447 1.083c-.419-.263-1.117-.585-1.899-.585-1.62 0-2.71 1.2-2.71 2.633 0 1.316.726 2.048 1.816 2.838 1.285.907 2.067 2.194 2.067 3.627 0 2.838-1.983 4.39-4.302 4.39-1.201 0-2.263-.47-2.71-.85l.475-1.053z" fill="#000"/>
    </g>
    <defs>
        <clipPath id="a">
            <path fill="#fff" d="M0 0h116v60H0z"/>
        </clipPath>
    </defs>
</svg>
