<svg width="136" height="24" viewBox="0 0 136 24" fill="none" xmlns="http://www.w3.org/2000/svg">
    <g clip-path="url(#a)" fill-rule="evenodd" clip-rule="evenodd">
        <path d="M70.522 9.884h-1.863l.097-.452c.155-.923.698-1.748 1.591-1.748.35 0 .621.06.854.138l.524-2.12c-.31-.138-.795-.237-1.456-.237-.95 0-1.902.276-2.62.904-.912.785-1.34 1.924-1.553 3.063l-.077.452h-1.243l-.388 2.042h1.243l-1.418 7.58h2.68l1.416-7.58h1.844l.369-2.042zM34.807 11.12c.718-.864 1.65-1.434 2.834-1.434 1.398 0 2.193.923 2.193 2.455 0 .47-.077 1.178-.194 1.767l-1.048 5.597h-2.678l1.009-5.42c.078-.373.117-.825.117-1.198 0-.59-.234-1.001-.835-1.001-.854 0-1.767 1.099-2.116 2.886l-.893 4.733h-2.678l2.6-13.844h2.68l-1.03 5.439.04.02zm72.843-1.284l.407-2.06-.93.374-.309 1.686h-1.356l-.135.761h1.336l-1.046 5.582c-.155.725-.213 1.194-.213 1.703 0 .784.426 1.528 1.53 1.528.329 0 .658-.058.91-.136l-.058-.684c-.174.058-.368.08-.678.08-.581 0-.833-.327-.833-.876 0-.509.078-.988.194-1.615l1.026-5.582h2.189l.155-.76h-2.189zm-11.27.542c.581 0 .91.06 1.124.138l-.659 3.447c-.445 2.43-2.15 4.722-3.66 4.722-1.259 0-1.607-1.097-1.588-2.331.02-2.959 2.11-5.976 4.783-5.976zm.077 6.854c-.118.87-.21 1.556-.193 2.241h.813c-.038-1.014.078-2.62.407-4.383l.988-5.168c-.484-.176-1.22-.26-1.879-.26-3.602 0-5.867 3.752-5.867 6.965 0 1.685.852 2.918 2.266 2.918 1.22 0 2.4-.579 3.466-2.607h.038l-.04.294zm-11.54 1.453c-.756 0-1.376-.196-1.802-.529l.6-3.233c.523-2.84 2.247-4.545 3.564-4.545 1.375 0 1.8 1.254 1.8 2.37 0 2.41-1.703 5.937-4.163 5.937zm-1.685-5.517l-1.86 10.11h.833l.736-4.058h.039c.133 0 .303.048.513.107.34.095.784.22 1.346.22 2.963 0 5.112-3.65 5.112-6.823 0-1.548-.658-3.023-2.42-3.023-1.24 0-2.402.896-3.234 2.164h-.039l.29-2.029h-.794a46.789 46.789 0 0 1-.522 3.332zm15.84 6.305l1.181-6.444c.233-1.195.368-2.178.446-3.193h.755c-.04.523-.089.926-.153 1.456l-.001.002v.005c-.03.24-.062.505-.098.82h.039c.561-1.268 1.491-2.37 2.653-2.37.061 0 .127-.01.19-.02.057-.009.112-.018.158-.018l-.174.873a1.238 1.238 0 0 0-.31-.034c-1.22 0-2.575 1.973-2.963 4.03l-.89 4.893h-.833zm10.65 0l1.24-6.758a32.87 32.87 0 0 0 .406-2.879h.794l-.271 2.03h.039c.813-1.269 1.975-2.175 3.253-2.175.91 0 2.072.56 2.072 2.342 0 .47-.077 1.046-.174 1.555l-1.065 5.885h-.833l1.085-5.899c.077-.43.135-.942.135-1.431 0-.98-.387-1.715-1.53-1.715-1.239 0-3.001 1.672-3.408 3.945l-.91 5.1h-.833zm13.185-9.095c.871 0 1.469.47 1.469 1.333v.02c0 1.86-2.332 2.272-4.753 2.252.581-2.037 1.851-3.605 3.284-3.605zm-1.469 9.032c1.162 0 2.052-.373 2.536-.706l-.251-.666c-.426.255-1.123.627-2.15.627-.987 0-1.704-.529-2.033-1.587-.194-.685-.174-1.92-.078-2.35 3.041.019 5.752-.647 5.752-3.037 0-1.058-.639-2.057-2.169-2.057-2.653 0-4.531 3.546-4.531 6.25 0 1.802.755 3.526 2.924 3.526zm4.338.063l1.181-6.444c.232-1.195.368-2.178.445-3.193h.755c-.039.522-.088.924-.152 1.451-.03.243-.063.512-.099.832h.039c.561-1.268 1.491-2.37 2.652-2.37.061 0 .127-.01.19-.02.058-.009.113-.018.159-.018l-.174.873a1.25 1.25 0 0 0-.31-.034c-1.22 0-2.576 1.973-2.963 4.03l-.891 4.893h-.832zm6.506-.808c-.678 0-1.297-.274-1.627-.529l-.329.706c.31.254 1.046.568 1.879.568 1.607 0 2.982-1.039 2.982-2.939 0-.96-.542-1.822-1.433-2.43-.755-.528-1.259-1.018-1.259-1.9 0-.96.755-1.763 1.879-1.763.542 0 1.026.216 1.316.392l.31-.725c-.271-.215-.891-.411-1.53-.411-1.646 0-2.827 1.195-2.827 2.664 0 .882.503 1.724 1.433 2.332.871.568 1.259 1.136 1.259 2.076 0 1.077-.833 1.96-2.053 1.96zm-104.23-4.933c-.679-.373-1.028-.688-1.028-1.12 0-.55.485-.903 1.242-.903.699 0 1.3.196 1.67.373l.62-1.924c-.427-.256-1.222-.452-2.251-.452-2.349 0-3.96 1.355-3.96 3.26 0 1.08.757 1.905 1.767 2.493.815.472 1.106.806 1.106 1.297 0 .51-.408.923-1.165.923-.834.02-1.708-.334-2.193-.59l-.66 1.925c.505.353 1.534.648 2.64.668 2.407.02 4.134-1.198 4.134-3.358 0-1.159-.873-1.984-1.921-2.592zm16.519 3.887c-.913 0-1.301-.785-1.301-1.767 0-1.551.796-4.084 2.252-4.084.95 0 1.261.824 1.261 1.63 0 1.669-.796 4.222-2.212 4.222zm1.32-7.933c-3.223 0-5.358 2.946-5.358 6.225 0 2.101 1.281 3.79 3.688 3.79 3.164 0 5.299-2.867 5.299-6.225 0-1.944-1.126-3.79-3.63-3.79zm6.812 7.58c.292.236.622.393 1.107.393 1.494 0 2.523-2.494 2.523-4.242 0-.726-.252-1.492-1.067-1.492-.932 0-1.805 1.12-2.116 2.808l-.447 2.533zm.835-5.97c.718-1.02 1.766-1.61 2.834-1.61 1.96 0 2.756 1.63 2.756 3.457 0 3.298-2.057 6.558-5.202 6.558-.66 0-1.261-.157-1.572-.353h-.058l-.738 4.006H48.88l1.863-9.917c.214-1.12.427-2.612.544-3.594h2.367l-.155 1.454h.039zM62.952 5.8c-.854 0-1.533.688-1.533 1.571 0 .805.504 1.355 1.261 1.355h.04c.834 0 1.552-.57 1.571-1.57 0-.786-.524-1.356-1.339-1.356zm-1.067 13.707h-2.68l1.806-9.603h2.698l-1.824 9.603zm13.45-5.302l1.63-4.3h2.796l-3.28 7.108c-1.165 2.435-2.29 4.222-3.513 5.38-.952.904-2.077 1.355-2.62 1.473l-.738-2.297c.446-.157 1.009-.393 1.514-.766.62-.432 1.145-1.021 1.455-1.63.078-.137.097-.255.059-.451l-1.612-8.818h2.815l.427 4.32c.116.963.194 1.65.233 2.278h.039l.071-.218c.188-.572.38-1.156.724-2.08z" fill="#000"/>
        <path d="M6.92 7.865a.512.512 0 0 1-.062-.004c-.244-.033-.447-.24-.455-.464-.008-.219-.15-5.377 3.06-6.55.81-.297 1.546-.23 2.187.197.771.514 1.333 1.53 1.67 3.017.24 1.051.278 1.958.28 1.995.008.225-.182.381-.425.35-.244-.031-.448-.238-.457-.462-.039-.934-.382-3.521-1.495-4.263-.357-.238-.788-.259-1.319-.065-2.751 1.006-2.621 5.85-2.62 5.898.008.204-.15.351-.363.351z" fill="#8DB84A"/>
        <path d="M13.284 3.887L2.402 7.2s-.467.13-.576.26c-.12.141-.144.524-.144.524L0 20.739l12.628 2.326.972-19.189a.823.823 0 0 0-.316.011z" fill="#8DB84A"/>
        <path d="M17.456 5.525s-.019-.098-.079-.134c-.059-.036-.124-.043-.124-.043l-1.876-.13-1.38-1.282a.427.427 0 0 0-.174-.07l-1.023 19.2 7.2-1.457-2.544-16.084z" fill="#5B873E"/>
        <path d="M8.995 14.425a4.175 4.175 0 0 0-.632-.694 6.361 6.361 0 0 0-.696-.53 4.577 4.577 0 0 1-.43-.314c-.122-.102-.221-.2-.3-.3a1.078 1.078 0 0 1-.172-.301.812.812 0 0 1-.049-.315c.006-.147.037-.28.091-.398a.919.919 0 0 1 .227-.306c.097-.087.215-.156.35-.207a1.62 1.62 0 0 1 .465-.093c.187-.011.367-.005.54.013a3.754 3.754 0 0 1 1.256.377l.81-2.519a2.333 2.333 0 0 0-.436-.172 3.755 3.755 0 0 0-.564-.117 4.836 4.836 0 0 0-.663-.041 5.62 5.62 0 0 0-.736.052 4.547 4.547 0 0 0-1.49.463 3.826 3.826 0 0 0-1.096.849 3.778 3.778 0 0 0-.7 1.153 4.418 4.418 0 0 0-.287 1.418c-.013.308.017.591.081.853.065.262.165.504.291.727.128.226.285.434.46.626.18.195.379.374.59.538.173.132.319.256.44.376.123.12.22.238.294.355.075.117.127.234.159.355.032.12.044.245.038.377a1.009 1.009 0 0 1-.08.365.768.768 0 0 1-.207.28.77.77 0 0 1-.324.16c-.126.029-.27.034-.43.01a2.51 2.51 0 0 1-.545-.155 3.885 3.885 0 0 1-.509-.25 5.005 5.005 0 0 1-.777-.56l-.555 1.92c.092.122.209.245.347.363.139.12.3.236.478.344a4.694 4.694 0 0 0 1.266.526l.012.003a.086.086 0 0 0 .012.003l.012.003.012.003c.503.115.99.144 1.446.08.469-.065.9-.228 1.271-.49.38-.267.696-.637.926-1.107.231-.476.371-1.05.399-1.717a3.206 3.206 0 0 0-.143-1.112 3.22 3.22 0 0 0-.452-.894z" fill="#FFFFFE"/>
        <path d="M4.985 7.617a.38.38 0 0 1-.363-.436c.028-.204.723-5.018 3.617-6.113.73-.277 1.34-.214 1.814.185.57.48.883 1.426.933 2.814.035.982-.075 1.827-.08 1.863a.37.37 0 0 1-.413.326.38.38 0 0 1-.313-.431c.115-.872.234-3.286-.588-3.978-.264-.222-.625-.242-1.103-.06-2.48.938-3.135 5.457-3.142 5.503a.372.372 0 0 1-.362.327z" fill="#8DB84A"/>
    </g>
    <defs>
        <clipPath id="a">
            <path fill="#fff" d="M0 0h136v24H0z"/>
        </clipPath>
    </defs>
</svg>
