<?xml version="1.0" encoding="UTF-8"?><!DOCTYPE svg PUBLIC "-//W3C//DTD SVG 1.1//EN" "http://www.w3.org/Graphics/SVG/1.1/DTD/svg11.dtd"><svg xmlns="http://www.w3.org/2000/svg" xmlns:xlink="http://www.w3.org/1999/xlink"><defs>
        <clipPath id="a">
            <path d="M0 0h25v14H0z"/>
        </clipPath>
    </defs><symbol id="icon-arrow-next-lg" viewBox="0 0 48 30">
    <path d="M1 16h46H1zM33 1c17.9 19.1 18.5 9.7 2.5 28"/>
</symbol><symbol id="icon-arrow-next" viewBox="0 0 25 14">
    <g clip-path="url(#a)">
        <path d="M16.233.858a1 1 0 0 1 1.409-.125 54.53 54.53 0 0 0 2.869 2.268l.794.578 1.59 1.131c1.53 1.088 1.913 1.453 2.07 2.205.185.88-.172 1.423-1.273 2.359l-.373.31-1.514 1.208-.846.686c-.69.568-1.357 1.14-2.06 1.768a1 1 0 1 1-1.332-1.492 69.456 69.456 0 0 1 2.657-2.257l1.36-1.086c-1.88-.045-3.822-.032-6.643.03l-5.293.127c-3.181.067-5.247.067-7.465-.016L.951 8.5C-.349 8.435-.3 6.5 1 6.5h20.956l-.08-.058-1.095-.779c-1.627-1.158-2.557-1.855-3.846-2.916l-.577-.48a1 1 0 0 1-.125-1.409z"/>
    </g>
    
</symbol><symbol id="icon-checkmark" viewBox="0 0 15 15">
    <path fill-rule="evenodd" clip-rule="evenodd" d="M14.352.63c.43.289.543.871.253 1.3-2.253 3.34-4.477 6.4-6.137 8.624a218.79 218.79 0 0 1-2.712 3.555l-.038.049-.013.016-.736-.58-.619.705v-.001l-.002-.001-.003-.003-.008-.008-.022-.02a5.832 5.832 0 0 1-.277-.285 13.48 13.48 0 0 1-.766-.935c-.663-.877-1.635-2.31-2.916-4.576a.937.937 0 1 1 1.632-.923c1.25 2.21 2.176 3.57 2.78 4.368l.158.207.054-.07c.477-.62 1.161-1.516 1.985-2.62a224.343 224.343 0 0 0 6.086-8.55.937.937 0 0 1 1.301-.253zM5.594 12.894h-.001.001zm-.625.699l-.618.705a.938.938 0 0 0 1.354-.125l-.736-.58z"/>
</symbol></svg>