<svg width="99" height="114" viewBox="0 0 99 114" fill="none" xmlns="http://www.w3.org/2000/svg">
    <g clip-path="url(#a)">
        <path d="M4.134 88.92l42.972 21.823L88.447 88.92V3.583H4.134V88.92z" fill="#fff"/>
        <path d="M89.318 3.909L3.264 90.44l44.604 22.04 41.45-21.171v-87.4z" fill="#F2F3F2"/>
        <path d="M1.306 32.029v58.737l1.523.76L45.8 113.349l1.306.651 1.305-.651 41.45-21.823 1.523-.76V.76H1.305V32.03zm2.828 57.108V3.583h84.422v85.554l-41.45 21.823L4.135 89.137z" fill="#DCDEDC"/>
        <path d="M46.345 4.995c.435 0 .87 0 1.306.108L46.345 7.6c-1.958-.108-3.699 1.412-3.808 3.366-.108 1.954 1.415 3.691 3.373 3.8h.435c.87 0 1.74-.326 2.394-.869l1.414 2.389a6.604 6.604 0 0 1-3.808 1.194c-3.481.109-6.419-2.497-6.527-5.971-.11-3.474 2.502-6.406 5.983-6.514h.544zm4.46 5.32l1.632 2.714-1.631 2.605-1.524-2.605h-3.154l1.631-2.714h3.047zm-2.61-.978c0-.434.108-.868.326-1.194.218-.326.653-.651.979-.868l.218-.109c.435-.217.544-.326.544-.543 0-.217-.327-.434-.544-.434-.436 0-.762.217-.98.651l-.544-.543c.11-.217.327-.434.544-.651.327-.217.653-.217.98-.217.326 0 .761.108.979.326.217.217.435.542.435.868 0 .543-.326.977-.98 1.194l-.326.218c-.326.217-.544.325-.652.651h1.958v.76l-2.938-.109zm-1.85 13.572l10.335-5.863V.76H35.901v16.177l10.444 5.972z" fill="#FF492C"/>
        <path d="M20.67 44.623v-9.554c0-.109.109-.217.218-.217h2.502c.109 0 .218.108.218.217v9.554c0 1.411.979 2.497 2.502 2.497 1.523 0 2.502-.977 2.502-2.497v-9.554c0-.109.109-.217.217-.217h2.503c.108 0 .217.108.217.217v9.554c0 3.04-2.176 4.994-5.44 4.994-3.263 0-5.439-2.063-5.439-4.994zM33.4 46.469v-.217c0-.109.108-.218.217-.218h2.285c.109 0 .217.109.217.218 0 .651.762 1.085 1.85 1.085.979 0 1.632-.434 1.632-.977 0-.868-1.632-.868-3.155-1.411-1.414-.435-2.938-1.195-2.938-3.04 0-2.063 1.741-3.366 4.46-3.366 2.72 0 4.461 1.411 4.461 3.366 0 .108-.108.217-.217.217h-2.285c-.109 0-.217-.109-.217-.217 0-.652-.653-1.086-1.741-1.086-.87 0-1.523.326-1.523.977 0 .869 1.414.869 3.046 1.412 1.632.434 3.264 1.194 3.264 3.148 0 2.063-1.85 3.257-4.57 3.257-2.937 0-4.786-1.303-4.786-3.148zm20.561-1.737c0 .217-.109.217-.326.217h-6.528c-.108 0-.108 0-.108.108 0 .326.108.543.217.869.326.76.98 1.194 2.176 1.194.98 0 1.632-.434 2.176-1.086.109-.108.217-.217.326 0l1.523 1.52c.109.109.109.218 0 .326-.979 1.194-2.502 1.846-4.243 1.846-2.393 0-4.025-1.194-4.786-3.149-.327-.76-.436-1.52-.436-2.605 0-.76.11-1.52.327-2.172.653-1.954 2.284-3.257 4.569-3.257 2.829 0 4.57 1.846 4.896 4.451.217.543.217 1.086.217 1.738zm-6.745-2.498c-.109.218-.109.435-.109.652 0 .108 0 .108.11.108h3.59c.108 0 .108 0 .108-.108 0-.217-.109-.434-.109-.543-.217-.869-.87-1.303-1.85-1.303-.87 0-1.413.434-1.74 1.194zm15.23-3.365c.11.108.11.217.11.325l-.435 2.389c0 .217-.11.217-.327.109-.326-.109-.761-.109-1.197-.109-.979.109-1.849.76-1.849 1.846v5.754c0 .109-.109.217-.218.217h-2.502c-.109 0-.217-.108-.217-.217V38.977c0-.108.108-.217.217-.217h2.502c.11 0 .218.109.218.217v.76c0 .109.109.109.109.109.544-.76 1.305-1.303 2.284-1.303.653 0 .98.109 1.306.326zm.871 7.6v-.217c0-.109.109-.218.218-.218h2.284c.11 0 .218.109.218.218 0 .651.762 1.085 1.85 1.085.979 0 1.631-.434 1.631-.977 0-.868-1.632-.868-3.155-1.411-1.414-.435-2.937-1.195-2.937-3.04 0-2.063 1.74-3.366 4.46-3.366 2.72 0 4.46 1.411 4.46 3.366 0 .108-.108.217-.217.217h-2.284c-.11 0-.218-.109-.218-.217 0-.652-.653-1.086-1.74-1.086-.87 0-1.524.326-1.524.977 0 .869 1.415.869 3.047 1.412 1.631.434 3.263 1.194 3.263 3.148 0 2.063-1.85 3.257-4.569 3.257-2.937 0-4.787-1.303-4.787-3.148zm-52.11 20.303V52.657c0-.108.108-.217.217-.217h2.502c.109 0 .218.109.218.217v11.726c0 .109 0 .109.108.109h6.854c.11 0 .218.108.218.217v2.063c0 .108-.109.217-.218.217h-9.682c-.109 0-.218-.109-.218-.217zm11.858-3.04c-.218-.652-.327-1.412-.327-2.172 0-.76.109-1.628.327-2.171.652-2.063 2.393-3.257 4.786-3.257 2.285 0 4.026 1.302 4.678 3.257.218.651.327 1.411.327 2.171 0 .76-.11 1.52-.327 2.063-.652 2.171-2.393 3.474-4.678 3.474-2.393.109-4.242-1.194-4.787-3.365zm6.636-.652c.109-.434.217-.977.217-1.411 0-.543-.108-1.086-.217-1.52-.327-.977-.98-1.52-1.85-1.52-.979 0-1.632.543-1.85 1.52-.217.325-.217.868-.217 1.52 0 .543 0 1.085.11 1.411.325.977.978 1.52 1.957 1.52.87.109 1.523-.543 1.85-1.52zm7.18 3.692l-3.373-10.315c-.108-.217 0-.325.218-.325h2.72c.109 0 .217.108.326.217l1.74 6.297c0 .108.11.108.11 0l1.74-6.297c0-.109.11-.217.327-.217h2.72c.217 0 .326.108.217.325l-3.373 10.206c0 .109-.108.217-.326.217h-2.72c-.217.109-.326.109-.326-.108zm17.189-4.452c0 .217-.109.217-.326.217h-6.528c-.109 0-.109 0-.109.109 0 .326.11.543.218.868.326.76.98 1.195 2.176 1.195.979 0 1.632-.435 2.176-1.086.108-.109.217-.217.326 0l1.523 1.52c.109.109.109.217 0 .326-.98 1.194-2.502 1.845-4.243 1.845-2.393 0-4.025-1.194-4.787-3.148-.326-.76-.435-1.52-.435-2.606 0-.76.109-1.52.327-2.171.652-1.955 2.284-3.257 4.569-3.257 2.828 0 4.569 1.845 4.895 4.451.218.543.218 1.086.218 1.737zm-6.745-2.497c-.109.217-.109.434-.109.651 0 .109 0 .109.109.109h3.59c.109 0 .109 0 .109-.109 0-.217-.109-.434-.109-.542-.218-.869-.87-1.303-1.85-1.303-.978 0-1.523.434-1.74 1.194zm12.837 2.389v-9.555c0-.108.11-.217.218-.217h2.502c.109 0 .218.109.218.217v9.555c0 1.411.979 2.497 2.502 2.497 1.523 0 2.502-.977 2.502-2.497v-9.555c0-.108.109-.217.218-.217h2.502c.109 0 .217.109.217.217v9.555c0 3.04-2.175 4.994-5.44 4.994-3.263 0-5.439-2.063-5.439-4.994zm12.729 1.845v-.217c0-.108.109-.217.217-.217h2.285c.109 0 .218.109.218.217 0 .652.761 1.086 1.85 1.086.978 0 1.631-.434 1.631-.977 0-.869-1.632-.869-3.155-1.412-1.414-.434-2.937-1.194-2.937-3.04 0-2.063 1.74-3.365 4.46-3.365 2.72 0 4.46 1.411 4.46 3.365 0 .109-.108.217-.217.217h-2.285c-.109 0-.217-.108-.217-.217 0-.651-.653-1.085-1.74-1.085-.871 0-1.524.325-1.524.977 0 .868 1.414.868 3.046 1.411 1.632.434 3.264 1.194 3.264 3.149 0 2.063-1.85 3.257-4.57 3.257-2.937 0-4.786-1.303-4.786-3.149z" fill="#252530"/>
        <path d="M16.319 79.475h21.758v.868H16.319v-.868zm38.947 0h21.758v.868H55.266v-.868z" fill="#DCDEDC"/>
        <path d="M41.449 78.497l3.373-.542 1.74-3.366 1.632 3.257 3.59.651-2.502 2.498.544 3.582-3.264-1.52-3.264 1.52.436-3.582-2.285-2.498z" fill="#DCDEDC"/>
    </g>
    <defs>
        <clipPath id="a">
            <path fill="#fff" d="M0 0h99v114H0z"/>
        </clipPath>
    </defs>
</svg>
